<?xml version="1.0" encoding="utf-8"?>
<!-- Generator: Adobe Illustrator 16.0.0, SVG Export Plug-In . SVG Version: 6.00 Build 0)  -->
<!DOCTYPE svg PUBLIC "-//W3C//DTD SVG 1.1//EN" "http://www.w3.org/Graphics/SVG/1.1/DTD/svg11.dtd">
<svg version="1.1" id="Layer_1" xmlns="http://www.w3.org/2000/svg" xmlns:xlink="http://www.w3.org/1999/xlink" x="0px" y="0px" viewBox="0 0 165 82.8" xml:space="preserve">
<g>
	<path fill="#3C4530" d="M129.9,62.6c0.6,1,2.4,2.3,3.5,1.5c1-0.7,0-2.6-0.4-3.4c-0.7-1.3-1.8-2.5-3-3.3c1.1,0.1,2.2,0.2,3.4,0.2
		c0,0,0,0.1,0,0.1c0.6,1.9,2.1,3.9,3.9,4.9c1,0.5,3.6,0.6,3.5-1.1c-0.1-1.4-2.3-2.4-3.4-3c-0.6-0.3-1.3-0.7-2-1
		c1.1,0,4.2-0.1,4.3-0.1c2,0.2,4.2,1.1,6.3,0.5c0.9-0.3,2.2-2,1.2-2.9c-1-0.8-2.8-0.2-3.8,0.1c-1.1,0.3-2.2,0.8-3.2,1.3
		c-0.1,0-0.8,0.3-0.8,0.3c-1.2,0.1-2.5,0.1-3.8,0.1c0.9-0.3,1.7-1,2.4-1.5c0.9-0.7,2.4-1.8,2.4-3.1c-0.1-1.6-2.5-1.2-3.3-0.7
		c-1.7,1-2.4,3.3-3,5.1c0,0.1,0,0.1,0,0.2c-0.2,0-0.5,0-0.7,0c-0.1,0-0.2,0-0.4,0c0,0,0,0,0,0c-0.9-0.1-1.9-0.1-2.8-0.3
		c1.7-0.8,5.2-3.1,4.5-4.8c0-0.2-0.1-0.4-0.3-0.5c-2.3-2.3-6.1,2.4-5.8,5c0,0,0,0,0,0c-2-0.3-4.1-0.8-6-1.4c2.6-0.5,6.1-1.7,5.4-3.8
		c-1.2-3.7-5.9,1.7-7.2,2.9c-0.1,0-0.3,0.1-0.3,0.1c-0.7-0.3-1.5-0.6-2.2-0.9c0.7-0.3,1.4-0.8,2-1.3c0.7-0.6,1.9-1.5,1.6-2.6
		c-0.3-1.2-1.8-0.7-2.5-0.2c-1.1,0.9-1.7,2.2-2.5,3.3c-0.1,0-0.1-0.1-0.2-0.1c-1.5-0.8-2.9-1.8-4.2-2.9c-0.5-0.4-1.3,0.3-0.7,0.8
		c1.3,1.1,2.7,2,4.2,2.8c-0.1,0.5-0.1,1.1-0.2,1.5c-0.1,0.7-0.2,1.5,0,2.3c0.2,0.7,1,1.9,1.9,1.2c0.6-0.5,0.4-1.8,0.2-2.5
		c-0.1-0.6-0.3-1.2-0.5-1.8c0.9,0.4,1.8,0.8,2.8,1.2c0,0,0,0.1,0,0.1c0.2,2.5,1.5,8.7,4.6,8c1.8-0.4,1.2-2.7,0.7-3.9
		c-0.6-1.3-1.6-2.4-2.7-3.3c1.9,0.5,3.8,0.9,5.7,1.2C128.6,59.1,128.9,61,129.9,62.6z"/>
</g>
<g>
	<path fill="#535233" d="M110.5,51.9c0.7-0.9,0.4-2.2-0.2-3.4c-0.5-2.2-2.2-4.4-3.9-6c-0.3-0.3-0.5-0.6-0.8-0.9
		c-0.1-0.1-0.1-0.3-0.2-0.4c0,0,0-0.1-0.1-0.1c2.2-0.1,4.4-0.2,6.6-0.4c0.7,2.6,1.9,5.2,3.5,7.3c1.3,1.8,4.3,3.5,6,1.1
		c1.4-1.9-1.3-4.4-2.6-5.6c-0.3-0.3-0.6-0.6-1-0.9c-1-0.9-2.2-1.7-3.2-2.2c2-0.2,3.9-0.4,5.8-0.6c1.9,3,3.7,6.2,6.3,8.7
		c1.9,1.8,5.4,3.5,7.7,1.5c1.9-1.6-0.1-4.7-1.4-5.9c-2.8-2.7-6.5-3.7-10.2-4.7c0.4,0,0.8-0.1,1.1-0.1c2.4-0.3,4.8-0.8,7.2-1.5
		c2,2.2,3.6,4.8,6.1,6.5c2,1.4,5.3,2.2,7.4,0.6c1.9-1.5-0.4-3.9-1.6-4.8c-2.4-1.9-6.1-2.4-9.2-2.6c0-0.1,0.1-0.2,0.1-0.3
		c0-0.1,0-0.2,0-0.4c2.7-0.9,5.6-2.1,8.5-3.6c3,3.1,8.9,7.5,13.1,5.5c2.4-1.2,0.8-3.3-0.7-4.3c-3.1-2-6.9-2-10.5-2
		c0-0.1,0-0.1,0-0.2c2.1-1.2,6.2-3.6,6.8-3.8c3.2-1.4,7.7-0.9,10.3-3.5c1.1-1.2,3.4-4,1.6-5.6c-1.9-1.7-4.8-0.6-6.5,0.8
		c-0.2,0.2-0.4,0.4-0.6,0.6c-1,0.8-2,1.8-2.7,2.9c-1,1.3-1.9,2.7-2.7,4c0,0,0,0,0,0c-1.8,1.2-3.7,2.2-5.6,3.2
		c3-3.7,5.5-10.5,0.5-11.7c-6.6-1.5-5.6,8.3-3.4,12.7c-0.1,0.1-0.2,0.3-0.1,0.5c-2.5,1.1-5,2.1-7.6,2.9c0.8-1.2,1.4-2.5,2-3.7
		c0.8-1.7,2.1-4.6,0.8-6.3c-1.4-1.9-4.4,0.1-5,1.7c-1.1,2.8,0,6,0.1,9c-2.8,0.8-5.7,1.4-8.6,1.8c1.3-0.9,2.2-2.5,2.8-4
		c0.6-1.5,1.5-4.9-0.6-5.7c-2.3-1-3.4,1.5-3.9,3.3c-0.4,1.4-0.6,2.8-0.7,4.2c-0.1,0.7-0.2,1.6,0,2.4c-0.2,0-0.5,0.1-0.7,0.2
		c-1.7,0.2-3.3,0.3-5,0.5c1.3-0.8,2.5-1.9,3.3-3.4c0.8-1.5,1.1-4,0.1-5.4c-1.2-1.9-3.9,0.3-4.7,1.4c-1.6,2.2-0.6,5.1-1.7,7.4
		c-0.2,0.1-0.4,0.1-0.5,0.3c-2.1,0.1-4.2,0.2-6.3,0.3c1.6-1.1,2.7-2.7,3.2-4.6c0.4-1.4,0.3-4.4-1.7-4.5c-3.7-0.3-4.8,6.1-4.7,9.3
		c-6.5,0.1-13,0-19.3-0.4c-1.2-0.1-1.5,1.8-0.2,1.9c6.6,0.4,13.3,0.5,20,0.3c-0.1,0.9,0.1,1.8,0.1,2.6c0.2,1.8,0.6,3.7,1.5,5.3
		C105.2,50.5,108.9,54.1,110.5,51.9z"/>
</g>
<g>
	<path fill="#535233" d="M27.7,12.1c1.4,2.4,3.4,4.4,4.7,6.9c1,2,1.5,4.3,2.2,6.4c1.2,4,3,7.4,5.4,10.7c1,1.3,2.2,2.7,3.7,4.1
		c-0.4,0.1-0.8,0.2-1.2,0.3c-6.4-0.6-12-2.9-17.5-6.3c-5-3.1-9.4-6.1-15.3-7c-0.4-0.1-0.4,0.5-0.1,0.6c10.6,2.6,18.1,11.7,28.7,13.8
		c-10,2.5-20.8,4-30.3-0.5c-0.3-0.1-0.5,0.3-0.2,0.5c11,6.2,23.9,3.5,35.4,0.5c0,0,0,0,0,0c0,0.1,0,0.2,0,0.2c-1,0.4-2,0.8-2.9,1.3
		C35,44.9,29.9,46.1,25,48.2c-3.3,1.4-6,3.9-8.7,6c-2.4,1.8-4.8,3-5.8,6c-0.1,0.3,0.3,0.6,0.5,0.3c1.9-2.5,5-3.9,7.5-5.7
		c3.3-2.3,6.2-4.4,10-5.8c2.3-0.9,4.7-1.6,7.1-2.2c-2.2,2.2-3.8,4.8-5.4,7.4c-1.9,3.2-4.3,6-6.2,9.3c-2,3.5-2.9,8.1-3.1,12.1
		c0,0.3,0.4,0.5,0.5,0.2c1-2.9,1.7-5.9,2.7-8.7c1.4-3.9,4.2-7,6.5-10.4c0.5-0.7,1-1.5,1.4-2.2c2-1.9,4-3.8,6.1-5.7
		c1.4-1.3,3.1-2.2,4.7-3.2c-1.2,8-6.5,13.3-14.7,16c-0.3,0.1-0.2,0.6,0.1,0.6C38.1,61,43.9,53.7,45,44.6c1.3-0.3,2.5-0.6,3.7-1
		c1.4,0.6,0,0.7,1.4,0.6c1-0.1,0.6-4-0.4-3.9c-1.1,0.1,0.7,2.3-0.4,1.9c-0.2-0.4-0.7-0.7-1.2-0.6c-4.5-2.4-8.3-8.1-10.2-11.8
		c-1.6-3.2-2.3-6.8-3.5-10.1c-1.2-3.3-4-5.4-6.3-7.8C27.9,11.5,27.5,11.8,27.7,12.1z"/>
</g>
<g>
	<path fill="#535233" d="M47.5,46.7c0,2.8,0.4,5.5,0,8.3c-0.5,3.5-3.7,6.8-6.4,8.8c-0.2,0.2,0,0.6,0.3,0.5
		c7.5-3.6,8.5-10.3,8.1-17.8C49.4,45.2,47.5,45.5,47.5,46.7z"/>
</g>
<g>
	<path fill="#A5A36C" d="M26.4,11.2C26,11,25.7,11.6,26,11.8c2.6,1.7,4,4.2,5.1,6.9c-0.7-0.2-1.4-0.4-2.1-0.5
		c-0.3-0.1-0.5,0.5-0.2,0.6c0.9,0.3,1.8,0.6,2.6,0.9c1.2,3.4,2,7.2,3.6,10.3c2,3.8,4.9,7,8.4,9.2c-0.6-0.1-1.2-0.3-1.8-0.6
		c-5.1-3.2-9.6-8.6-14.2-11.7c-0.3-0.2-0.7,0.2-0.5,0.5c2,2.2,4.3,4.3,6.6,6.3c-2.6-1.9-5.2-3.9-7.5-4.8c-2.8-1.2-7.1-2-11-1.7
		c-3.4-1.4-7.2-2.2-10.6-0.5c-2.2,1.1-3.9,3.8-2.7,6.1c0.1,0.3,0.6,0.2,0.6-0.1c-0.8-5.4,4.5-5.5,8.8-4.6c-1.9,0.7-3.5,1.9-4.5,3.6
		C6.5,32,7,32.3,7.2,32.1c1.5-2.1,4-3,6.7-3.2c0.6,0.2,1.2,0.4,1.6,0.6c4.8,2.2,9.1,5.5,13.7,8.2c2,1.2,4.6,2.5,7.3,3.5
		c-3.7-0.2-7.3-0.7-11-1.5c-0.4-0.1-0.5,0.5-0.2,0.6c4.1,1.3,8.5,2,12.8,2.3c-4.5,1.3-9,2.2-13.9,2.1c-6.7-0.1-14.4-1.2-19.7-5.5
		C4.4,39,4,39.4,4.3,39.6c6.2,5.5,14.2,7.1,22.3,6.7c-3.7,0.6-7.4,1.1-11.1,1c-0.4,0-0.5,0.5-0.1,0.6c4,0.4,8.1,0.1,12.1-0.5
		c-0.9,0.4-1.9,0.8-2.8,1.2c-2.5,1.1-4.8,2.4-7,4c0,0,0,0,0,0c-3.8,1.1-7.7,2-11.4,3.5c-0.4,0.1-0.1,0.7,0.2,0.6
		c3-0.9,6.1-1.6,9.1-2.4c-3.6,2.9-6.6,6.4-8.7,10.7c-0.2,0.3,0.3,0.6,0.5,0.3c5.2-8.2,13.2-13.2,22.2-16.5c1.9-0.7,3.8-1.3,5.7-1.9
		c-2.3,2.4-4.4,5-6.2,7.6c-2.9,0.4-5.9,0.2-8.1-1.3c-0.3-0.2-0.7,0.2-0.5,0.4c1.8,2,4.6,2.5,7.5,2.3c-0.7,1-1.3,2-2,3
		c-4.1,6.6-7.2,14.8-4.5,22.5c0.1,0.3,0.6,0.1,0.5-0.2c-1.1-3.8-0.8-7.6,0.3-11.3c0,0,0.1,0,0.1,0C33.8,68.2,45,57.5,48.1,46.2
		c0.2,7.5-2.3,15.2-9.2,18.9c-0.3,0.2-0.1,0.7,0.2,0.5c6.5-2.6,10.1-9.4,10.9-16.3c0.6,2.5,1.1,5.2,2.5,7.4c0.2,0.3,0.6,0,0.5-0.3
		c-0.7-1.3-1.1-2.6-1.4-4c1.1,2.7,2.9,5.1,5.4,6.5c0.5,0.3,1-0.6,0.5-0.9c-4.9-3.5-6.7-9.6-6.9-15.4c0-0.1,0-0.1-0.1-0.2
		c0.1,0,0.2-0.1,0.3-0.2c0,0,0,0,0,0c0.7-0.2,0.5-1.1-0.1-1.3c-0.1-0.1-0.2-0.2-0.4-0.2c-0.2,0-0.3-0.1-0.4-0.1
		c0.2-0.4,0-0.9-0.6-1.1c-0.2-0.1-0.4-0.1-0.6-0.2c-0.2-0.2-0.4-0.4-0.8-0.5c-1.9-2.9-3.1-8.4-4.2-10.3c-2.7-4.5-6.4-7.8-11.1-9.5
		C31.5,16,29.8,13.1,26.4,11.2z M21.3,29.4c4.5,0.9,8,3.3,11.6,5.9c2.6,1.8,5.6,4.1,8.9,5.3c-3.7-0.6-7.6-2.4-10.4-3.9
		C27,34.4,23,31.3,18.7,29C19.6,29.1,20.5,29.2,21.3,29.4z M39.2,45.5c0.6-0.2,1.2-0.4,1.8-0.5c1-0.3,2-0.5,3-0.8
		c-0.2,0.4-0.3,0.9-0.5,1.3c-2.2,3.5-4.9,6.2-9.2,7.6c-0.9,0.3-1.8,0.6-2.9,0.8C33.7,50.8,36.3,47.9,39.2,45.5z M22.6,69.1
		c1.2-3.7,3.2-7.1,5.3-10.3c0.7-1.1,1.5-2.2,2.2-3.2c1.3-0.2,2.6-0.4,3.7-0.7c2.5-0.5,4.6-1.5,6.4-2.9c-3.2,5.1-7.8,9.4-13.4,10.7
		c-0.4,0.1-0.4,0.7,0.1,0.7c8.2-1,16.1-9.7,19-18.2c0.3-0.6,0.6-1.2,0.9-1.9c0,0,0,0,0,0C45,55.1,33.8,66.1,22.6,69.1z M44.1,33.5
		c0.4,1.1,1,3,1.8,4.7c-5.6-3-9.3-8.4-11.5-14.4c-0.4-1.1-0.8-2.2-1.1-3.3C38.4,23.2,41.9,27.8,44.1,33.5z"/>
</g>
<g>
	<path fill="#535233" d="M48.2,38.1c-0.1,0.6-0.2,1.3-0.2,1.9c-4.6,2.3-10.3,1.3-15-0.2c-0.3-0.1-0.5,0.4-0.2,0.5
		c4.5,1.7,10.1,3.1,14.9,1.5c-2.1,11.1-8.9,22.1-20.1,25.9c-0.3,0.1-0.2,0.6,0.1,0.5c12.7-2.7,20.1-15.4,22.2-27.4
		c0.2-0.1,0.5-0.3,0.7-0.4c0.7-0.5,0.2-1.4-0.4-1.5c0-0.2,0-0.3,0.1-0.5C50.4,37.1,48.3,36.8,48.2,38.1z"/>
</g>
<g>
	<path fill="#4F2621" d="M49.7,40.2c-0.2,0.1-0.2,0.3-0.2,0.5c-0.3,0.2-0.5,0.5-0.2,0.8c0.8,1,1.7,2,2.6,3c0.8,0.8,1.7,1.4,2.8,1.3
		c0.4,0,0.3-0.5,0-0.6c-1.8-0.5-2.3-2.3-3.3-3.6c0.3,0,0.6,0.1,0.9,0.3c0.7,0.4,1.3,0.9,2,1.3c1,0.6,2,0.9,3.2,0.4
		c0.3-0.1,0.1-0.6-0.2-0.5c-2,0.6-3.4-1.7-5.1-2.6c0.8-0.2,1.7-0.2,2.6,0.2c0.3,0.1,0.6-0.2,0.4-0.5C54,38.9,51.1,39.2,49.7,40.2z"
		/>
</g>
<g>
	<path fill="#4F2621" d="M50,35.7c-1.1,0.3-1.6,1.7-1.2,2.7c0,0.1,0.1,0.1,0.2,0.2c0,0.3,0.2,0.5,0.6,0.4c1.2-0.2,2.4-0.5,3.6,0
		c0.3,0.1,0.6-0.3,0.3-0.6c-1-0.7-2.4-0.9-3.6-0.7c0.1-0.5,0-1.1,0.5-1.5C50.7,36.1,50.4,35.6,50,35.7z"/>
</g>
<g>
	<path fill="#F0E5C9" d="M95.9,20.6c-1,0.7,2.6,3.8,4.5,4.5c1.9,0.7,6,0.8,6.8,0.1c0.8-0.7,0.3-3.1-2.9-4.4
		C101,20,98.1,19.1,95.9,20.6z"/>
</g>
<g>
	<path fill="#F0E5C9" d="M99.8,19.1c-1.4,0,6.7-2.2,8.1-2.1c1.4,0.2,1.2,2.1-0.4,3.3s-1,1-1.8,0.5C104.8,20.3,101.4,19.1,99.8,19.1z
		"/>
</g>
<g>
	<path fill="#F0E5C9" d="M107.6,21.6c0,0,0.6,1.1,0.6,1.7c0,0.6,1.6-0.1,3.1-0.7c1.5-0.6,4.6-3.5,4.4-3.8
		C114.4,19.1,109.2,20.2,107.6,21.6z"/>
</g>
<g>
	<path fill="#F0E5C9" d="M95.1,19.8c0.3,0.2,3-0.3,3.5-1.1c0.5-0.8-1.7-3.6-3-4.8c-1.4-1.2-4.5-3.7-4.9-2.3
		C90.3,13.1,91.7,17.6,95.1,19.8z"/>
</g>
<g>
	<path fill="#F0E5C9" d="M96.8,13.9c-0.1,0.6,2.5,3.5,2.8,4.4c1.3-0.3,4.2-1.4,5-1.6c0.8-0.2-2.9-3.5-2.9-4.2
		C100.7,12.8,96.9,12.9,96.8,13.9z"/>
</g>
<g>
	<path fill="#F0E5C9" d="M94.2,20.7c-1.2-0.2-6.9-1.2-9-3C83.1,16,79.4,13.1,78,13c1-0.9,3.8,0.3,5.2,0.8c1.4,0.5,7.5,3.4,8.3,3.3
		C92.3,18.4,94.2,20.7,94.2,20.7z"/>
</g>
<g>
	<path fill="#F0E5C9" d="M79.5,13.6c0.5,1.2,5,6.9,11.3,6.5"/>
</g>
<g>
	<path fill="#F0E5C9" d="M92.1,21c-1.7,0-8.5,0.4-8.7,2.6s2.1,3.2,2,4.3c1.5,0.4,3.9,0.9,5.4,1.1c1.4,0.2,6.2,0.7,8.1-3.5
		c-1.6-1.2-2.8-3.2-3.7-4C94.2,20.7,93.1,21,92.1,21z"/>
</g>
<g>
	<path fill="#F0E5C9" d="M91,16.1c-1-2-1.8-5-0.7-5.3c-1.1-1.4-5.6-6.9-6.8-6.8c0.3,0.7,0.9,3.4,1.5,5.7
		C85.8,12.9,87.7,14.7,91,16.1z"/>
</g>
<g>
	<path fill="#F0E5C9" d="M79.8,15.3c-1.2-0.7-4.3-0.1-5.4,0.5c-1,0.6-3.3,3-3.7,3.8c0.8,0.6,2.8,1.8,5.3,1.9s8-1.3,10.5-1.2
		C84.2,19.3,80.2,16.5,79.8,15.3z"/>
</g>
<g>
	<path fill="#F0E5C9" d="M85.2,21.2c1.2-0.3-2.9,1.4-2.7,2.7c0.2,1.2,1.9,3.2,1.9,3.8c0,0.6,3.1,1.9,4.7,2.3
		c-1.5,0.8-7.3,2.6-11.5,0.9s-3.6-2.4-4.8-2c0.7-1.6-0.9-4.6,1-5.5C75.8,22.5,83,21.8,85.2,21.2z"/>
</g>
<g>
	<path fill="#F0E5C9" d="M91.9,30c-1.4,0.1-3.6,6.7-2.4,8.5c1.3,1.8,5,5.4,5,6.8c1.6-0.7,4.5-1.3,6.3-2c1.8-0.7,5.9-5.4,4-11.1
		c-2.3-2.4-3.6-4.8-4-6c-0.5-0.4-1.6-0.5-1.6-0.5s-1.1,2.2-2.5,3C95.3,29.5,92.9,29.9,91.9,30z"/>
</g>
<g>
	<path fill="#F0E5C9" d="M80.4,32.5c-1,1.3-0.9,5.6-0.5,6.7s1.9,3.7,1.4,4.5c2-1,4.1,0,5.9,0c1.7,0,3.3-0.9,4-1.6
		c-0.8-1-2.7-2.7-2.8-4.2s0.1-6.1,1.6-7.4C88.4,31.7,82.7,33.5,80.4,32.5z"/>
</g>
<g>
	<path fill="#F0E5C9" d="M103.9,42c-1.4,1,10,5.6,11.4,7.9c-0.1-2,2.2-4.6,1.7-6.8c-0.4-2.2-4.3-6.8-5.9-7.9
		c-2.2-0.7-4.3-1.7-5.3-2.3C106.6,34.9,106.5,40.1,103.9,42z"/>
</g>
<g>
	<path fill="#F0E5C9" d="M101.7,26.2c-1.2-1,2.8,5.2,5.5,6.3s4.6,1.8,5.5,2.6c0.8-1,2.7-1,2.4-2.5c-0.2-1.6-5.6-6.1-7.4-6.5
		C105.9,26.3,103.1,27.2,101.7,26.2z"/>
</g>
<g>
	<path fill="#F0E5C9" d="M108.3,25.2c-0.3-0.1,0.9-0.9,1.8-0.9c0.9,0,9,5.5,11.4,7.1s4.5,4.3,4.6,7.3c-1.8,0.1-3.3-0.3-5.7-1
		s-5.6-2.8-5.6-3c1.1-0.9,1.6-1.5,0.8-2.8C114.9,30.6,110.7,25.8,108.3,25.2z"/>
</g>
<g>
	<path fill="#F0E5C9" d="M111.5,23.7c-1.5,0.6,7.1,1,8.6,0.6c1.5-0.5,3.8-2.3,5.3-2c-0.9-0.8-2.4-2.4-4.6-2.3
		c-2.1,0.1-4.3,0-5.1,0.4S112.9,23.2,111.5,23.7z"/>
</g>
<g>
	<path fill="#F0E5C9" d="M128.7,31.2c0.4-0.1-2.4,2.5-3.3,2c-0.8-0.5-3.3-2.5-5.1-3.6c-1.8-1.1-7.9-4.8-7.3-4.5
		c0.3,0.1,5.2,0.1,6.8,0.2c1.6,0.1,4.3,1.1,5.2,2.4C126,28.9,126.9,31.6,128.7,31.2z"/>
</g>
<g>
	<path fill="#F0E5C9" d="M107.2,16.2c-0.6,0.5,2,1.2,2.3,1.2c0.3,0,1.9-4.2,2.2-4.5C112,12.7,108.3,15.2,107.2,16.2z"/>
</g>
<g>
	<path fill="#F0E5C9" d="M109.3,19.3c-1.1,1.4,4.3-2.4,5.4-3.8c1.1-1.4,1.8-4.8,2.9-5c-2.4,0.4-5.1,0-6.4,1.9c1.3-0.4,1.4,0.4,1.2,1
		C112.1,14.7,111.1,17.1,109.3,19.3z"/>
</g>
<g>
	<path fill="#F0E5C9" d="M104.6,13.9c0.8-0.6,2.1-1.5,2.1-1.5l0.4,3.2l-1.6,1.1L104.6,13.9z"/>
</g>
<g>
	<path fill="#F0E5C9" d="M93.3,10.3c-0.9-0.6,0.3-2.3-0.1-3.5c2.1,3,3.7,5.4,3.3,5.9C96,13.2,94.5,11.2,93.3,10.3z"/>
</g>
<g>
	<path fill="#F0E5C9" d="M97.4,12.7c0.6-0.6,1.9-3.5,2-4.2c0.2,1.3,0.3,2.2,0.8,3.4C99.2,12,98.1,12.1,97.4,12.7z"/>
</g>
<g>
	<path fill="#F0E5C9" d="M103,12.3c-0.4-0.1,0.4-0.3,0.7-0.6c0.5-0.3,1-0.7,1.4-1.1c-0.2,0.6-0.2,1.3,0.1,1.9
		c-0.4,0.4-0.9,0.8-1.4,1.2c-0.3-0.3-0.7-1-0.8-1.2L103,12.3z"/>
</g>
<g>
	<path fill="#F0E5C9" d="M105.7,10.8c-0.4-1.7,3.8-1.3,4.8-1.9c-2.1,1.9-0.5,4.8-3.1,6.2c0.1-1-0.3-2.1-0.4-3.1
		c-0.1-0.9-0.2-1.6-1-0.6C106,11.2,105.8,11.1,105.7,10.8z"/>
</g>
<g>
	<path fill="#F0E5C9" d="M101.5,12c0-0.9-1-1.5-0.2-2.3c0.9-0.8,2.2-0.5,2.7-2.1c0.1,0.8,0.5,1.7,0.8,2.4c-1,0.4-2.6,1.7-3.1,2.1
		L101.5,12z"/>
</g>
<g>
	<path fill="#F0E5C9" d="M105.3,9.3c-0.4-0.5-0.7-1.6-0.6-2.3c1.8,0.1,3.5-0.6,5.1-1.4c-0.5,1.2,0.1,1.7,0.2,2.8
		C108.6,8.6,106.7,8.7,105.3,9.3L105.3,9.3z"/>
</g>
<g>
	<path fill="#F0E5C9" d="M110.6,10c-0.1,0.8,0.3,1.5,0.1,2.3c-0.2,0.7-0.8,1.3-1.3,1.7c0.4-1.3,1.1-2.7,1.1-4.1L110.6,10z"/>
</g>
<g>
	<path fill="#F0E5C9" d="M91.2,10.7c-1.3-0.9-3-2.4-1.9-5.4c0.6-1.7,1.6-2.9,0.3-4c1.5,1.9,7.3,3.3,5.9,6.8c-1.1-0.5-1.9-2-3-2.7
		c-0.4,0.5,0.2,2.1,0,2.9c-0.3,1.1-0.6,1.5,0.2,2.4C92,10.4,91.3,10.7,91.2,10.7z"/>
</g>
<g>
	<path fill="#F0E5C9" d="M98,7c-0.5-1.2,2.4-3.1,3-4.1c0.4,1,0.4,1.9,1.1,2.8c0.3,0.4,1.1,1,1,1.6c-0.1,0.9-2.1,1.4-2.6,2.3
		c-0.2-0.3-0.6-2.6-1.1-2.6c-0.7,0-0.4,1.3-0.5,1.6C98.5,8,98.3,7.6,98,7z"/>
</g>
<g>
	<path fill="#F0E5C9" d="M116.5,15.7c1.3-0.4,2.6-0.7,3.9-1.2c-0.4,1.2-1.4,5.6-3.3,5.1c1.2-2.5-3.3-1-4.2-1.3
		C112.9,18,115.2,16.1,116.5,15.7z"/>
</g>
<g>
	<path fill="#F0E5C9" d="M97.1,11.7c-0.2-0.1-0.5-0.9-0.7-1.2c-0.2-0.4-0.7-1-0.7-1.5c0-0.5,0.5-0.9,0.7-1.5
		c0.2-0.5,0.4-1.2,0.4-1.7c0.6,0.5,1.3,2.2,1.5,3C98.3,9.7,97.3,10.9,97.1,11.7L97.1,11.7z"/>
</g>
<g>
	<path fill="#F1CEB2" d="M86.8,62.7c1.7,1.2,3.4,1.2,5.1,0.4c0.3,1.9,1.2,3.5,3.3,3.9c1.3,0.2,2.4-0.2,3.5-1
		c0.8,1.9,2.2,3.3,4.3,2.4c1.8-0.8,2.5-2.7,2.7-4.8c3,1.7,6.3,2.1,9.2,0c3.7-2.8,3.7-7.2,1-10.8c-0.2-0.3-0.4-0.5-0.7-0.8
		c3-1.7,4.8-4.4,3.2-9c-1.4-4.1-5.8-6.6-9.9-5.5c0.2-3-0.8-5.7-4.1-7c-3.3-1.3-5.3,2-6.3,4.6c-0.7,1.8-0.9,3.6-0.9,5.4
		c-0.3-0.1-0.5-0.2-0.8-0.2c-3.6-0.4-6.4,3-7.7,6.1c-1,2.2-0.8,4.6,1,5.9c-0.3,0.2-0.6,0.4-0.9,0.6C85.7,54.7,82.7,59.9,86.8,62.7z"
		/>
</g>
<g>
	<path fill="#D16C5C" d="M101.6,65.6c0.7-1.4,0.6-3,0.3-4.4c-0.1-0.2-0.4-0.2-0.4,0c0.3,1.4,0.3,2.9-0.2,4.3
		C101.3,65.7,101.6,65.8,101.6,65.6z"/>
</g>
<g>
	<path fill="#D16C5C" d="M96.6,63.8c0.4-1.7,1.3-3.2,2.1-4.7c0.1-0.2-0.2-0.4-0.3-0.2c-1,1.4-1.8,3.1-2.1,4.9
		C96.4,63.9,96.6,63.9,96.6,63.8z"/>
</g>
<g>
	<path fill="#D16C5C" d="M95.5,62.2c0.4-1,0.9-2,1.5-3c0.1-0.2-0.1-0.4-0.3-0.2c-0.6,0.9-1.1,2-1.5,3.1
		C95.2,62.2,95.5,62.3,95.5,62.2z"/>
</g>
<g>
	<path fill="#D16C5C" d="M94.3,61.9c0.6-1.4,1.6-2.5,2.6-3.6c0.2-0.2-0.1-0.5-0.2-0.3c-1.1,1.1-2.1,2.3-2.6,3.8
		C94,62,94.2,62,94.3,61.9z"/>
</g>
<g>
	<path fill="#D16C5C" d="M88.9,61c1.9-1.1,3.9-1.9,5.2-3.8c0.2-0.2-0.2-0.5-0.3-0.3c-1.4,1.7-3.3,2.6-5,3.8
		C88.7,60.8,88.8,61.1,88.9,61z"/>
</g>
<g>
	<path fill="#D16C5C" d="M87.7,58.8c1.9-0.1,3.6-1.1,5-2.2c0.3-0.2-0.1-0.6-0.3-0.4c-1.5,1-3,1.9-4.8,2.3
		C87.5,58.5,87.5,58.8,87.7,58.8z"/>
</g>
<g>
	<path fill="#D16C5C" d="M87.4,56.1c1.5-0.1,3-0.4,4.5-0.8c0.2-0.1,0.1-0.5-0.1-0.4c-1.5,0.2-2.9,0.7-4.4,1
		C87.2,55.8,87.2,56.1,87.4,56.1z"/>
</g>
<g>
	<path fill="#D16C5C" d="M103,42.2c0.9-1.6,1.7-3.2,1.7-5c0-0.1-0.2-0.2-0.2,0c-0.1,1.8-0.9,3.3-1.8,4.8
		C102.6,42.2,102.9,42.4,103,42.2z"/>
</g>
<g>
	<path fill="#D16C5C" d="M101.5,40.3c0.5-1.4,1.1-2.7,1.2-4.2c0-0.2-0.2-0.2-0.3,0c-0.1,1.5-0.8,2.8-1.2,4.1
		C101.1,40.4,101.4,40.5,101.5,40.3z"/>
</g>
<g>
	<path fill="#D16C5C" d="M99.8,40c0.2-1.1,0.4-2.3,0.8-3.3c0.1-0.1-0.1-0.2-0.2-0.1c-0.5,1-0.7,2.2-0.9,3.4
		C99.4,40.2,99.7,40.2,99.8,40z"/>
</g>
<g>
	<path fill="#D16C5C" d="M108,43.4c1.2-0.9,2.7-1.2,4-1.9c0.1-0.1,0-0.3-0.1-0.2c-1.4,0.7-2.9,0.9-4.1,1.9
		C107.6,43.3,107.8,43.5,108,43.4z"/>
</g>
<g>
	<path fill="#D16C5C" d="M108.9,45.2c1-0.4,2-0.9,3-1.4c0.2-0.1,0.1-0.4-0.1-0.3c-1,0.4-2,0.9-3,1.3C108.6,45,108.7,45.3,108.9,45.2
		z"/>
</g>
<g>
	<path fill="#D16C5C" d="M109.8,47c1-0.5,2.2-0.7,3.1-1.4c0.1-0.1,0-0.3-0.2-0.2c-0.9,0.6-2.1,0.8-3,1.3
		C109.5,46.8,109.7,47.1,109.8,47z"/>
</g>
<g>
	<path fill="#D16C5C" d="M110.3,48.7c1.7-0.1,3.2-0.7,4.3-2.1c0.1-0.1-0.1-0.3-0.2-0.2c-1.2,1.2-2.6,1.7-4.2,1.9
		C110,48.3,110.1,48.7,110.3,48.7z"/>
</g>
<g>
	<path fill="#D16C5C" d="M102.2,51.9c1-0.4,0.3-2-0.7-1.6S101.3,52.3,102.2,51.9z"/>
</g>
<g>
	<path fill="#D16C5C" d="M101,55.5c0.8-0.4,1.2-1.3,0.8-2.2c-0.4-0.8-1.3-1.2-2.1-0.9s-1.2,1.3-0.8,2.2S100.2,55.8,101,55.5z"/>
</g>
<g>
	<path fill="#D16C5C" d="M98.5,51.7c0.4,0,0.7-0.1,1-0.5c0.4-0.5,0.2-1.3-0.3-1.6c0,0-0.1,0-0.1-0.1c-0.3-0.2-0.7-0.3-0.9-0.1
		c0,0,0,0-0.1,0c-0.4,0.3-0.7,0.7-0.6,1.2C97.6,51.2,98,51.7,98.5,51.7z"/>
</g>
<g>
	<path fill="#D16C5C" d="M101.2,48.9c1.1-0.5,0.3-2.3-0.8-1.8C99.3,47.6,100,49.4,101.2,48.9z"/>
</g>
<g>
	<path fill="#D16C5C" d="M104.2,48.3c1.1-0.5,0.3-2.2-0.8-1.7S103.1,48.8,104.2,48.3z"/>
</g>
<g>
	<path fill="#D16C5C" d="M105.8,51.8c1-0.5,0.3-2.1-0.7-1.7S104.8,52.2,105.8,51.8z"/>
</g>
<g>
	<path fill="#D16C5C" d="M104.8,54.5c1-0.5,0.3-2.1-0.7-1.7C103,53.3,103.8,55,104.8,54.5z"/>
</g>
<g>
	<path fill="#D16C5C" d="M109.6,54.7c1.8,0.5,3.3,1.4,4.8,2.6c0.1,0.1,0.3-0.1,0.2-0.2c-1.4-1.3-3.1-2.3-4.9-2.7
		C109.4,54.3,109.4,54.7,109.6,54.7z"/>
</g>
<g>
	<path fill="#D16C5C" d="M109.5,56.5c1.3,0.8,2.6,1.5,4,2.1c0.1,0.1,0.2-0.2,0.1-0.2c-1.3-0.7-2.6-1.4-4-2.1
		C109.5,56.2,109.3,56.4,109.5,56.5z"/>
</g>
<g>
	<path fill="#D16C5C" d="M112,60.8c0.1,0.1,0.2-0.2,0.1-0.2c-1.7-0.8-3.1-2.1-4.4-3.5c-0.1-0.2-0.4,0-0.2,0.2
		C108.7,58.7,110.2,60.1,112,60.8z"/>
</g>
<g>
	<path fill="#D16C5C" d="M110.1,62.4c0.1,0.1,0.2-0.1,0.1-0.2c-1.4-0.8-2.1-2.3-2.8-3.7c-0.1-0.2-0.4-0.1-0.3,0.1
		C107.8,60.1,108.6,61.6,110.1,62.4z"/>
</g>
<g>
	<path fill="#D16C5C" d="M103.7,64.4c0.5-1.4,0.1-2.8-0.6-4.1c-0.1-0.2-0.4-0.1-0.3,0.1c0.7,1.2,1.1,2.5,0.7,3.8
		C103.3,64.5,103.6,64.6,103.7,64.4z"/>
</g>
<g>
	<path fill="#D16C5C" d="M94.4,43.5c0.9,0.7,1.8,1.5,2.3,2.6c0.1,0.2,0.3,0.1,0.2-0.1c-0.5-1.1-1.4-2-2.4-2.7
		C94.4,43.1,94.3,43.4,94.4,43.5z"/>
</g>
<g>
	<path fill="#D16C5C" d="M93.9,44.8c0.8,0.7,1.7,1.2,2.2,2.1c0.1,0.1,0.3,0,0.2-0.1c-0.6-0.9-1.4-1.5-2.3-2.2
		C93.9,44.5,93.7,44.7,93.9,44.8z"/>
</g>
<g>
	<path fill="#D16C5C" d="M92.2,45.9c1,0.8,2.2,1.3,3.3,2c0.1,0.1,0.2-0.1,0.1-0.2c-1-0.8-2.2-1.3-3.2-2C92.2,45.6,92,45.8,92.2,45.9
		z"/>
</g>
<g>
	<path fill="#D16C5C" d="M91.7,48c0.9,0.3,1.9,0.8,2.9,0.9c0.1,0,0.2-0.2,0-0.2c-1-0.1-1.9-0.6-2.8-0.9C91.7,47.7,91.6,48,91.7,48z"
		/>
</g>
<g>
	<path fill="#D16C5C" d="M91.4,51c1.1,0.1,2.4,0.3,3.3-0.5c0.1-0.1,0-0.3-0.2-0.2c-0.9,0.6-2.1,0.4-3.2,0.4
		C91.2,50.7,91.2,51,91.4,51z"/>
</g>
<g>
	<path fill="#D16C5C" d="M100.4,64.2c0.7-1.2,0.8-2.6,0.7-4c0-0.2-0.3-0.2-0.3,0c0.1,1.3,0,2.7-0.6,3.9
		C100.1,64.2,100.3,64.3,100.4,64.2z"/>
</g>
<g>
	<path fill="#D6D9BA" d="M65.1,29.4c0-0.1-0.1-0.2-0.1-0.3c2.6-2.6,3.3-7.6,3.6-10.7c0.5-4.9-2.5-10.6-8.2-9.2
		c-8.3,2-4.5,16.9-2.6,22.3C59.5,36.1,66.9,33.9,65.1,29.4z"/>
</g>
<g>
	<path fill="#D6D9BA" d="M68.3,39.3c1.9,1.6,3.8,1.3,5.1,0.1c0.2,0.4,0.5,0.8,0.9,1.2c5.6,4.9,21.8,12.3,23.3-0.3
		c0.7-6.4-4.4-10.2-10.2-10.7c-1.6-0.1-3.6,0-5.5,0.4c1.1-2.2,1.3-4.8-0.7-6.7c-3.8-3.5-10-1.1-12.2,2.9c-1.1,2.1-1.2,4.3-1.5,6.6
		C67.2,35,66.4,37.7,68.3,39.3z"/>
</g>
<g>
	<path fill="#D6D9BA" d="M49.6,64.9c3,0.1,6.4-1.7,8.9-4.3c0.5,3.5,3.8,5.9,7.6,5.2c4.2-0.8,4.3-6.1,3.7-9.3
		c-0.1-0.4-0.2-0.7-0.3-1.1c0.1-0.2,0.2-0.5,0.3-0.7c1,1.5,2.1,2.9,3.5,3.9c3.7,2.6,9.7,6.9,13.8-0.4c2.8-5-5.9-11-10.9-12.1
		c-1.4-1-2.9-1.7-4.5-2.2c-2.8-0.9-5,2.1-4.4,4.6c0,0.2,0.1,0.3,0.1,0.5c-1.2-0.4-2.6-0.3-3.7,0.3c-0.9,0.6-1.6,1.5-2.1,2.4
		c-0.1-0.4-0.3-0.8-0.4-1.2c-0.3-0.7-1.3-0.8-1.9-0.3c-0.6-0.3-1.3-0.5-2.1-0.4c-4.7,0.3-10.7,1.6-12.9,6.3
		C42.3,60.2,45,64.8,49.6,64.9z"/>
</g>
<g>
	<path fill="#D6D9BA" d="M43.6,34.7c3,2.5,6.9,4.3,10.7,5.2c3.7,0.9,5.6-3.4,4-5.9c-0.1-0.7-0.4-1.5-0.7-2.1c-0.4-0.8-0.9-1.4-1.6-2
		c-0.3-0.3-0.5-0.6-0.8-0.8c-1.2-1.8-2.8-3.3-4.7-4.5c-2.9-1.8-7.3-3-9.6,0.4C38.7,28.5,40.9,32.4,43.6,34.7z"/>
</g>
<g>
	<path fill="#D6D9BA" d="M42.4,51.3c2.4,0.5,4.5-0.2,6.6-1.1c0.7-0.3,1.4-0.7,2.2-1.1c0,0,0.4-0.2,0.6-0.3c0.3-0.1,0.9-0.2,0.2-0.1
		c2.2-0.3,4.1-1.8,4-4.2c0-1.2-0.6-2.4-1.6-3.2c-3.7-2.4-12.5-4.4-16.7,1C34.6,46.3,38,50.4,42.4,51.3z"/>
</g>
<g>
	<path fill="#A5A36C" d="M56.9,57.7c2.6,1,5.2-1.3,6.6-3.3c0.2-0.3,0.4-0.7,0.6-1.1c0.1,0.2,0.2,0.4,0.4,0.6c2.4,3.3,7,2.9,9.3-0.2
		c0.3-0.3,0.4-0.7,0.5-1.1c1.1,0.8,2.3,1.5,3.6,1.9c3.7,1.1,8.9-2.8,7.6-6.9c-0.8-2.5-3.3-4.2-6.2-5.1c0.7-0.3,1.3-0.7,1.8-1.3
		c2.5-2.5,2.8-7.6-0.8-9.3c-3.9-1.9-9.3,0.9-11.9,4.6c0.7-1.2,1.1-2.5,1.3-3.8c0.3-1.9,0.2-3.6-0.6-5.3c-0.9-2.1-3.4-2.9-5.4-3.1
		c-3.6-0.3-5.8,2.9-5.9,6.1c-1-0.8-2.3-1.1-3.9-0.9c-3.5,0.5-5,5.4-3.1,8.1c0.5,0.7,1.1,1.3,1.8,1.8c-1.6,0.7-2.8,2.3-3,4.6
		c-0.3,3.1,1.9,5.3,4.6,6.2C52.3,53,53.6,56.5,56.9,57.7z M63.4,44.7c-0.4-0.9-1.1-1.8-2-2.6c0.8-0.3,1.4-0.9,1.8-1.6
		c1,0.2,2,0.2,3-0.4c0.3-0.2,0.6-0.4,0.8-0.7c-0.1,0.2-0.1,0.5-0.2,0.7c-0.1,0.6,0.1,1.2,0.5,1.6c0.2,0.5,0.5,0.9,0.9,1.2
		c-0.3,0.2-0.5,0.6-0.5,0.9c-0.1,0-0.2,0-0.3,0.1c-0.3,0-0.5,0.1-0.7,0.2c-1.1,0.5-2,1.5-2.3,2.7c0,0,0,0,0,0
		c-0.1-0.1-0.3-0.2-0.4-0.3c-0.1,0-0.2-0.1-0.3-0.1C63.8,45.9,63.7,45.3,63.4,44.7z"/>
</g>
<g>
	<path fill="#3C4530" d="M59.4,51.8c1.4,0.4,2.9-0.1,4-1c1.8,1.6,4.6,2,6.6,0.5c2.5-1.9,3.3-4.8,2.2-7.5c0,0,0,0,0.1-0.1
		c0.2-0.2,0.3-0.4,0.4-0.6c0-0.1,0.1-0.1,0.1-0.2c-0.3,0.4-0.2,0.3,0.2-0.3c0.3-0.6,0.4-1.2,0.4-1.9c0.2-2.4-1.9-4.6-4.1-5.2
		c-1.2-0.3-2.5,0.2-3.2,1.2c-1-1.8-3.3-2.7-5.4-2.2c-2.5,0.6-3.2,3.3-2.7,5.4c0.2,0.9,0.7,1.8,1.3,2.5c0,0-0.1,0.1-0.1,0.1
		c-2.6,0.4-4.4,3.3-3.5,5.9C56.5,50,57.7,51.4,59.4,51.8z"/>
</g>
<g>
	<path fill="#E0DFB1" d="M47.7,62.4c3.1,2,7.3,1.1,9.4-1.9c0.1-0.2-0.2-0.4-0.3-0.2c-1.8,2.5-5.1,3-7.8,1.8c-1.1-0.5-2-1.4-2.4-2.5
		c-0.5-1.6,0.8-3,1.9-4c0.4-0.4-0.2-1.2-0.7-0.8C44.9,56.9,44.5,60.4,47.7,62.4z"/>
</g>
<g>
	<path fill="#E0DFB1" d="M58.3,55.3c0.2,0,0.3-0.4,0-0.4c-2.1-0.4-2.2-2.4-2.2-4.1c0-0.4-0.6-0.5-0.7-0.1
		C54.9,52.8,56.1,55.1,58.3,55.3z"/>
</g>
<g>
	<path fill="#E0DFB1" d="M53.6,47.1c-0.5-1.4-0.9-4.3,1.2-4.5c0.4,0,0.4-0.7,0-0.6c-2.6,0.2-2.8,3.4-2,5.3
		C53,47.8,53.8,47.6,53.6,47.1z"/>
</g>
<g>
	<path fill="#E0DFB1" d="M63.5,49.5c0.3-0.1,0.1-0.6-0.2-0.5c-0.9,0.3-1.8,0.5-2.7,0.3c-1.1-0.2-1.7-1.1-2.2-2
		c-0.2-0.5-0.9-0.1-0.8,0.3C58.4,50.3,61.1,50.6,63.5,49.5z"/>
</g>
<g>
	<path fill="#E0DFB1" d="M68.5,50.3c1.3-0.7,1.6-1.9,1.4-3.3c0-0.3-0.5-0.2-0.5,0.1c0.2,2.7-2.4,3-4.1,1.8c-0.5-0.3-1,0.4-0.6,0.8
		C65.8,50.6,67.3,51,68.5,50.3z"/>
</g>
<g>
	<path fill="#E0DFB1" d="M44.1,49.5c0.7,0,0.7-0.9,0.1-1.1c-1.1-0.4-2.5-0.5-3.2-1.5c-0.6-0.8-0.3-1.7,0.1-2.5c1-1.9,3.6-3,5.7-2.4
		c0.3,0.1,0.3-0.3,0.1-0.4c-2.6-0.9-5.5,0.3-6.9,2.6C38.3,47,41.3,49.5,44.1,49.5z"/>
</g>
<g>
	<path fill="#E0DFB1" d="M68.6,58.3c-0.1-0.2-0.4-0.1-0.4,0.1c1.1,4-3.3,6.3-6.4,4c-0.5-0.4-1.2,0.3-0.7,0.7
		C64.8,66.4,70.1,62.9,68.6,58.3z"/>
</g>
<g>
	<path fill="#E0DFB1" d="M82.3,60.1c2.1-0.6,4.8-2.8,2.9-5c-0.2-0.2-0.6,0.1-0.4,0.3c1.9,2.5-2.7,3.9-4.4,4
		c-2.4,0.1-4.3-1.7-5.9-3.3c-0.6-0.5-1.4,0.3-0.8,0.9C75.9,59.5,78.9,61.1,82.3,60.1z"/>
</g>
<g>
	<path fill="#E0DFB1" d="M77.4,51.5c1.9,0.9,4.3,0.4,5.7-1c1.6-1.6,0.4-3.3-1.2-4.2c-0.3-0.2-0.5,0.3-0.3,0.5
		c1.4,0.9,1.9,2.3,0.4,3.3c-1.3,0.8-2.9,0.8-4.3,0.4C77.2,50.4,76.9,51.2,77.4,51.5z"/>
</g>
<g>
	<path fill="#E0DFB1" d="M72.3,52.1c0-0.3-0.5-0.3-0.5,0c0,0.9-0.7,1.3-1.5,1.4c-0.8,0.2-1.5-0.1-2.2-0.4c-0.5-0.3-1,0.4-0.6,0.8
		C69,55.4,72.6,54.3,72.3,52.1z"/>
</g>
<g>
	<path fill="#E0DFB1" d="M74.4,36.4c0.8-1.6,2.3-2.3,3.8-1.1c1.7,1.3,1.4,3.5,0.3,5c-0.2,0.3,0.2,0.6,0.5,0.3c1.7-1.9,2-4.6-0.1-6.3
		c-2-1.6-4.7-0.9-5.6,1.5C73.1,36.5,74.1,37.1,74.4,36.4z"/>
</g>
<g>
	<path fill="#E0DFB1" d="M68.2,38.8c0.6-0.9,1.4-1.3,2.3-0.5c0.9,0.7,1.2,1.9,0.8,2.9c-0.1,0.3,0.3,0.4,0.5,0.2c0.7-1.4,0.2-3-0.9-4
		c-1.2-1.1-2.9-0.7-3.5,0.8C67.2,38.7,67.9,39.3,68.2,38.8z"/>
</g>
<g>
	<path fill="#E0DFB1" d="M59.9,39.1c-0.1-1.2,0.1-2.2,1.4-2.7c1.2-0.5,2.5,0.1,2.8,1.3c0.1,0.3,0.5,0.2,0.5-0.1
		c-0.5-4.2-7.3-2.1-5.8,1.6C59,39.9,59.9,39.8,59.9,39.1z"/>
</g>
<g>
	<path fill="#E0DFB1" d="M60.5,29.5c1-1.3,2.2-1.8,3.9-1.7c1.7,0.1,3.2,1.1,3,3c0,0.3,0.4,0.3,0.5,0.1c1.1-4.5-6.7-5.6-8.4-2
		C59.2,29.4,60.1,30.1,60.5,29.5z"/>
</g>
<g>
	<path fill="#E0DFB1" d="M52.9,36.3c-1.4-2,0.1-5.1,2.7-4.3c0.3,0.1,0.4-0.4,0.1-0.5c-3.2-1.1-5.9,2.9-3.6,5.4
		C52.5,37.3,53.2,36.7,52.9,36.3z"/>
</g>
<g>
	<path fill="#E0DFB1" d="M42.6,26.9c1.4-3.9,6.1-1.3,8.4,0.3c0.2,0.1,0.4-0.2,0.2-0.3c-2.4-1.9-8.2-5-9.5-0.2
		C41.7,27.3,42.4,27.4,42.6,26.9z"/>
</g>
<g>
	<path fill="#E0DFB1" d="M57.7,14.2c1.6-2.8,4.9-2.2,6.9-0.2c2,2,1.4,5.7,1.2,8.2c0,0.3,0.5,0.3,0.5,0.1c0.6-3.3,1.3-7.6-1.8-9.9
		c-2.6-1.8-6.2-1.9-7.8,1.2C56.3,14.3,57.3,14.9,57.7,14.2z"/>
</g>
<g>
	<path fill="#E0DFB1" d="M78.8,30.2c2.8-0.4,3.5-3.4,2-5.4c-1.8-2.5-5.1-2.8-7.4-1c-0.2,0.2,0,0.5,0.2,0.4c2-1.4,4.5-1.3,6.2,0.5
		c0.6,0.7,1.1,1.7,1,2.6c-0.1,1.2-1.3,1.6-2.2,2.1C78.1,29.6,78.3,30.3,78.8,30.2z"/>
</g>
<g>
	<path fill="#E0DFB1" d="M84.7,43.1c2.2,0.9,4.6,1.5,7,0.9c1.9-0.5,3.8-2.5,3.8-4.5c0.2-4.1-4.3-7.2-8-7.5c-0.3,0-0.3,0.4,0,0.5
		c3.1,0.3,6.7,3,7,6.3c0.3,2.3-2,4-4.1,4.2c-1.8,0.2-3.6-0.7-5.3-1.3C84.5,41.3,83.9,42.8,84.7,43.1z"/>
</g>
<g>
	<path fill="#E0DFB1" d="M67.1,44.2c-0.2,0.2,0.1,0.7,0.4,0.5c3-1.9-1-4.9-3.3-4.3c-0.6,0.1-0.4,1.1,0.2,1
		C65.8,41.3,68.8,42.4,67.1,44.2z"/>
</g>
<g>
	<path fill="#E0DFB1" d="M64.6,43.6c0.5-0.2,0.2-0.9-0.3-0.9s-0.8,0.1-1.3-0.1c-0.4-0.2-0.6-0.5-0.8-0.8c-0.5-0.9,0-1.8,0.8-2.2
		c0.3-0.1,0.2-0.6-0.1-0.5C59.9,40.1,61.9,44.9,64.6,43.6z"/>
</g>
<g>
	<path fill="#E0DFB1" d="M69,44.6c0.1-0.3-0.3-0.4-0.4-0.2c-1.2,2.3-4.1,2.5-5.9,0.8c-0.6-0.6-1.5,0.4-0.9,0.9
		C64.1,48.2,68,47.8,69,44.6z"/>
</g>
</svg>
