<?xml version="1.0" encoding="utf-8"?>
<!-- Generator: Adobe Illustrator 16.0.0, SVG Export Plug-In . SVG Version: 6.00 Build 0)  -->
<!DOCTYPE svg PUBLIC "-//W3C//DTD SVG 1.1//EN" "http://www.w3.org/Graphics/SVG/1.1/DTD/svg11.dtd">
<svg version="1.1" id="Layer_1" xmlns="http://www.w3.org/2000/svg" xmlns:xlink="http://www.w3.org/1999/xlink" x="0px" y="0px" viewBox="0 0 40.4 81.3" xml:space="preserve">
<g>
	<path fill="#4F2621" d="M23.6,30.3L6.4,15.5L8.3,0l22.6,13l3,15.2L23.6,30.3z M7.4,15.1l16.5,14.2l8.8-1.8L30,13.6L9.1,1.6
		L7.4,15.1z"/>
</g>
<g>
	<path fill="none" stroke="#85605F" stroke-miterlimit="10" d="M2.6,66.4"/>
</g>
<g>
	<path fill="none" stroke="#85605F" stroke-miterlimit="10" d="M7.7,15.3"/>
</g>
<g>

		<rect x="4" y="50.1" transform="matrix(5.153025e-02 0.9987 -0.9987 5.153025e-02 74.0586 23.1636)" fill="#4F2621" width="41.6" height="1"/>
</g>
<g>
	<path fill="none" stroke="#85605F" stroke-miterlimit="10" d="M33.7,27.6"/>
</g>
<g>
	<rect x="10.9" y="36.6" transform="matrix(0.194 0.981 -0.981 0.194 64.7325 -4.5772)" fill="#4F2621" width="48.5" height="1"/>
</g>
<g>
	<polygon fill="#4F2621" points="1.2,64.2 0.2,64.1 8.2,0.7 9.2,0.8 11.4,57.4 10.4,57.4 8.5,6.9 	"/>
</g>
<g>
	<path fill="#4F2621" d="M25.2,81.8L3,75.6L0,63.4l25.8,7.4l12.8-7.3l0.8-2.8l1,0.2l-2.2,12.6L25.2,81.8z M3.8,74.8L25,80.7
		l12.2-7.8l1.4-8.3L26,71.9L1.4,64.8L3.8,74.8z"/>
</g>
<g>

		<rect x="25" y="71.3" transform="matrix(0.9966 8.207510e-02 -8.207510e-02 0.9966 6.3504 -1.8358)" fill="#4F2621" width="1" height="10"/>
</g>
<g>
	<polygon fill="#4F2621" points="1,64.5 0.4,63.7 10.8,56.9 10.9,56.9 39.9,60.4 39.8,61.4 11,57.9 	"/>
</g>
</svg>
