<?xml version="1.0" encoding="utf-8"?>
<!-- Generator: Adobe Illustrator 16.0.0, SVG Export Plug-In . SVG Version: 6.00 Build 0)  -->
<!DOCTYPE svg PUBLIC "-//W3C//DTD SVG 1.1//EN" "http://www.w3.org/Graphics/SVG/1.1/DTD/svg11.dtd">
<svg version="1.1" id="Layer_1" xmlns="http://www.w3.org/2000/svg" xmlns:xlink="http://www.w3.org/1999/xlink" x="0px" y="0px" viewBox="0 0 70.7 131.2" xml:space="preserve">
<g>
	<path fill="#774F38" d="M58.9,113.1c-0.1,0-0.3-0.1-0.4-0.2c-0.2-0.2-0.1-0.5,0.1-0.7l8.8-7.2l2.2-31.4l-17.3-3.8
		c-0.1,0-0.2-0.1-0.3-0.2L35,50.6L13.2,70.2L1.2,107c-0.1,0.3-0.4,0.4-0.6,0.3s-0.4-0.4-0.3-0.6l12-36.9c0-0.1,0.1-0.2,0.1-0.2
		l22.3-20c0.1-0.1,0.2-0.1,0.4-0.1c0.1,0,0.3,0.1,0.3,0.2l17.3,19.3l17.5,3.9c0.2,0.1,0.4,0.3,0.4,0.5l-2.2,32
		c0,0.1-0.1,0.3-0.2,0.4l-9,7.3C59.2,113.1,59.1,113.1,58.9,113.1z"/>
</g>
<g>
	<path fill="#774F38" d="M33.3,130.4c-0.3,0-0.5-0.2-0.5-0.5l-1.4-26.6l-30.1,4.4c-0.3,0-0.5-0.1-0.6-0.4c0-0.3,0.1-0.5,0.4-0.6
		l30.6-4.5c0.1,0,0.3,0,0.4,0.1s0.2,0.2,0.2,0.4l1.5,27.2C33.8,130.1,33.6,130.3,33.3,130.4C33.4,130.4,33.3,130.4,33.3,130.4z"/>
</g>
<g>
	<path fill="#774F38" d="M67.9,105.8C67.9,105.8,67.9,105.8,67.9,105.8l-36.1-2.6c-0.2,0-0.3-0.1-0.4-0.3s-0.1-0.3,0-0.5l20.1-32.6
		l-38.8,0.6l-10.5,4c-0.3,0.1-0.5,0-0.6-0.3c-0.1-0.3,0-0.5,0.3-0.6l10.6-4c0.1,0,0.1,0,0.2,0l39.7-0.6c0.1,0,0.1,0,0.2,0l0,0h0
		c0,0,0,0,0.1,0l0,0h0c0.1,0,0.2,0.1,0.2,0.2c0,0,0,0,0,0l15.4,36c0.1,0.2,0,0.3-0.1,0.5C68.2,105.7,68.1,105.8,67.9,105.8z
		 M32.7,102.3l34.4,2.5L52.4,70.4L32.7,102.3z"/>
</g>
<g>
	<path fill="#774F38" d="M31,103.3c-0.2,0-0.3-0.1-0.4-0.3L12.3,70.2c-0.1-0.2,0-0.5,0.2-0.7c0.2-0.1,0.5,0,0.7,0.2l18.3,32.9
		c0.1,0.2,0,0.5-0.2,0.7C31.2,103.3,31.1,103.3,31,103.3z"/>
</g>
<g>
	<path fill="#4F2621" d="M34.2,131.2c-0.1,0-0.2,0-0.3-0.1L0.4,107.2c-0.1-0.1-0.2-0.2-0.2-0.4L0,73.8c0-0.2,0.1-0.3,0.2-0.4
		l34.5-23.9c0.2-0.1,0.4-0.1,0.6,0l35.1,23.4c0.2,0.1,0.3,0.3,0.2,0.6l-11.2,39.4c0,0.1-0.1,0.2-0.2,0.3l-24.8,18.1
		C34.4,131.1,34.3,131.2,34.2,131.2z M1.2,106.6l33,23.5l24.3-17.8l11.1-38.8L35,50.5L1,74.1L1.2,106.6z"/>
</g>
<g>
	<path fill="#4F2621" d="M34.2,131.2c-0.1,0-0.2,0-0.3-0.1l-18.8-17.5c-0.1-0.1-0.1-0.1-0.1-0.2L0,74c-0.1-0.2,0-0.3,0.1-0.5
		c0.1-0.1,0.3-0.2,0.4-0.2l37.4,2.4l32.2-2.9c0.3,0,0.5,0.2,0.5,0.5c0,0.3-0.2,0.5-0.5,0.5l-32.3,2.9L1.2,74.4l14.6,38.5l18.7,17.4
		c0.2,0.2,0.2,0.5,0,0.7C34.4,131.1,34.3,131.2,34.2,131.2z"/>
</g>
<g>
	<path fill="#4F2621" d="M16,114.2c-0.2,0-0.3-0.1-0.4-0.2c-0.1-0.2-0.1-0.4,0-0.5L37,76.8l-0.2-0.4c0-0.1-0.1-0.1-0.1-0.2
		l-2.1-26.3c0-0.3,0.2-0.5,0.5-0.5c0.3,0,0.5,0.2,0.5,0.5l2.1,25.9c0.2-0.1,0.4-0.1,0.5,0c0.2,0.1,0.3,0.4,0.2,0.7l-0.2,0.4
		l21.2,35.5c0.1,0.2,0.1,0.3,0,0.5c-0.1,0.2-0.2,0.3-0.4,0.3L16,114.2C16,114.2,16,114.2,16,114.2z M37.5,77.8l-20.7,35.4l41.2-1.1
		L37.5,77.8z"/>
</g>
<g>
	<path fill="none" stroke="#85605F" stroke-linecap="round" stroke-linejoin="round" stroke-miterlimit="10" d="M58.9,112.6"/>
</g>
<g>
	<path fill="#4F2621" d="M16,114.2c-0.1,0-0.1,0-0.2,0l-15.2-6.9c-0.3-0.1-0.4-0.4-0.2-0.7c0.1-0.3,0.4-0.4,0.7-0.2l15.2,6.9
		c0.3,0.1,0.4,0.4,0.2,0.7C16.3,114.1,16.2,114.2,16,114.2z"/>
</g>
<g>
	<path fill="#4F2621" d="M35.2,50.7c-0.3,0-0.5-0.1-0.6-0.4c0,0,0-0.1,0-0.1c0,0,0,0,0,0c-2.3-0.7-3.4-3.1-3.1-4.9
		c0.2-1.4,1.3-2.9,3.8-2.8c2.2,0.1,2.8,1.4,3,2.2c0.5,2-0.7,4.8-2.6,6c-0.1,0-0.2,0.1-0.2,0.1C35.4,50.7,35.3,50.7,35.2,50.7z
		 M35,43.5c-1.4,0-2.3,0.7-2.6,2c-0.2,1.4,0.6,3.3,2.4,3.8c0.2,0,0.3,0.2,0.3,0.3c0.1-0.1,0.2-0.1,0.3-0.1c0.1,0,0.1,0,0.2,0
		c1.3-1.1,2.1-3.2,1.7-4.6c-0.2-0.9-1-1.4-2.1-1.4C35.1,43.5,35,43.5,35,43.5z"/>
</g>
<g>
	<g>
		<path fill="#4F2621" d="M34.7,46c-0.6,0-1-0.4-1-1v-0.1c0-0.6,0.4-1,1-1s1,0.4,1,1V45C35.7,45.5,35.2,46,34.7,46z"/>
	</g>
	<g>
		<path fill="#4F2621" d="M34.7,41.7c-0.6,0-1-0.4-1-1v-0.2c0-0.6,0.4-1,1-1s1,0.4,1,1v0.2C35.7,41.2,35.2,41.7,34.7,41.7z
			 M34.7,37.3c-0.6,0-1-0.4-1-1v-0.2c0-0.6,0.4-1,1-1s1,0.4,1,1v0.2C35.7,36.9,35.2,37.3,34.7,37.3z M34.7,32.9c-0.6,0-1-0.4-1-1
			v-0.2c0-0.6,0.4-1,1-1s1,0.4,1,1v0.2C35.7,32.5,35.2,32.9,34.7,32.9z M34.7,28.5c-0.6,0-1-0.4-1-1v-0.2c0-0.6,0.4-1,1-1s1,0.4,1,1
			v0.2C35.7,28.1,35.2,28.5,34.7,28.5z M34.7,24.1c-0.6,0-1-0.4-1-1v-0.2c0-0.6,0.4-1,1-1s1,0.4,1,1v0.2
			C35.7,23.7,35.2,24.1,34.7,24.1z M34.7,19.8c-0.6,0-1-0.4-1-1v-0.2c0-0.6,0.4-1,1-1s1,0.4,1,1v0.2C35.7,19.3,35.2,19.8,34.7,19.8z
			 M34.7,15.4c-0.6,0-1-0.4-1-1v-0.2c0-0.6,0.4-1,1-1s1,0.4,1,1v0.2C35.7,14.9,35.2,15.4,34.7,15.4z M34.7,11c-0.6,0-1-0.4-1-1V9.8
			c0-0.6,0.4-1,1-1s1,0.4,1,1V10C35.7,10.5,35.2,11,34.7,11z M34.7,6.6c-0.6,0-1-0.4-1-1V5.4c0-0.6,0.4-1,1-1s1,0.4,1,1v0.2
			C35.7,6.1,35.2,6.6,34.7,6.6z M34.7,2.2c-0.6,0-1-0.4-1-1V1c0-0.6,0.4-1,1-1s1,0.4,1,1v0.2C35.7,1.8,35.2,2.2,34.7,2.2z"/>
	</g>
</g>
</svg>
