<?xml version="1.0" encoding="utf-8"?>
<!-- Generator: Adobe Illustrator 16.0.0, SVG Export Plug-In . SVG Version: 6.00 Build 0)  -->
<!DOCTYPE svg PUBLIC "-//W3C//DTD SVG 1.1//EN" "http://www.w3.org/Graphics/SVG/1.1/DTD/svg11.dtd">
<svg version="1.1" id="Layer_1" xmlns="http://www.w3.org/2000/svg" xmlns:xlink="http://www.w3.org/1999/xlink" x="0px" y="0px" viewBox="0 0 72.2 85.4" xml:space="preserve">
<g>
	<path fill="#A5A36C" d="M34,60.2c-1.6,0.7-4.6,3.3-4.2,5.7s5.2,4.7,6.6,5c-1.6,2.5-3.5,6.2,0,8.4s8.4,1,10-0.6
		c1.5,4.4,2.8,6.1,6.1,6c3.3-0.1,7.2-5,6-9.7c3.6,3.4,10.1,5,11.9,2.2s2-7.5-4.4-8.9c2.3-3,2.3-5.1,0.4-6.1c4-3.1,5.4-7.3,1.9-9.5
		s-8.4,0.2-10.2,1.3c0.8-4.8-1.6-9.3-5.9-9.5s-5.2,3.5-5.5,7.3c-2.3-0.5-4.7,1-5.1,1.7c-1-1.2-4.6-4.7-7.8-1.6
		C30.5,54.7,31.7,57.5,34,60.2z"/>
</g>
<g>
	<path fill="#FFFFFF" d="M61.7,66.6c-1.4-0.3-2.5-0.4-3.7-1.2c-0.1,0-0.1,0-0.1-0.1c0.1,0,0.1-0.1,0.2-0.1c0,0.1,0,0.2,0.1,0.3
		c1.1,0.4,2.3,0.2,3.3-0.1c0.2-0.1,0.2-0.4-0.1-0.4c-1,0.1-2,0.2-3.1,0c1.1-0.6,2.2-0.9,3.5-1.1c0.2,0,0.2-0.2,0-0.3
		c-1.5-0.3-3.5,0.2-4.5,1.3c-0.2,0.2,0,0.4,0.2,0.5c-0.1,0.1-0.2,0.3,0,0.5c0.9,1.1,2.7,1.3,4.1,1C61.9,66.9,61.9,66.6,61.7,66.6z"
		/>
</g>
<g>
	<path fill="#FFFFFF" d="M58.9,55.9c-0.9,0.5-1.7,1.2-2.1,2.1c-0.1,0.3,0.3,0.4,0.5,0.2c0.5-0.8,1.1-1.4,1.9-2
		C59.3,56.1,59.1,55.8,58.9,55.9z"/>
</g>
<g>
	<path fill="#FFFFFF" d="M61,56.6c-1.3,0.8-2.6,1.8-3.1,3.3c-0.1,0.3,0.3,0.4,0.5,0.2c0.6-1.4,1.6-2.4,2.8-3.3
		C61.3,56.7,61.2,56.5,61,56.6z"/>
</g>
<g>
	<path fill="#FFFFFF" d="M62.4,57.9c-1.2,1-2.3,2-3.7,2.8c-0.3,0.2,0,0.6,0.3,0.5c1.5-0.6,2.6-1.8,3.7-3
		C62.7,58,62.5,57.8,62.4,57.9z"/>
</g>
<g>
	<path fill="#FFFFFF" d="M50.6,52.6c-0.2-0.8-0.3-1.6-0.1-2.4c0.1-0.2-0.2-0.3-0.3-0.1c-0.3,0.8-0.4,1.8,0,2.6
		C50.2,52.9,50.6,52.8,50.6,52.6z"/>
</g>
<g>
	<path fill="#FFFFFF" d="M53.1,56.2c0.5-1.9,0.2-3.9-0.3-5.8c-0.1-0.2-0.4-0.2-0.4,0c0.3,1.9,0.3,3.7-0.1,5.5
		C52.3,56.5,53,56.7,53.1,56.2z"/>
</g>
<g>
	<path fill="#FFFFFF" d="M55,50.9c-0.1-0.2-0.3,0-0.3,0.1c0.6,2-0.1,3.5-0.5,5.4c-0.1,0.4,0.5,0.7,0.7,0.3
		C55.6,54.9,55.9,52.8,55,50.9z"/>
</g>
<g>
	<path fill="#FFFFFF" d="M41.8,58.2c-1.3-0.7-2.6-1.4-3.2-2.9c-0.1-0.2-0.3-0.1-0.3,0.1c0.4,1.5,1.7,2.9,3.2,3.4
		C41.9,58.9,42.1,58.4,41.8,58.2z"/>
</g>
<g>
	<path fill="#FFFFFF" d="M41.2,59.5c-1.4-0.9-2.6-1.7-3.8-2.9c-0.1-0.1-0.3,0.1-0.2,0.2c1,1.3,2.2,2.7,3.8,3.3
		C41.3,60.2,41.5,59.7,41.2,59.5z"/>
</g>
<g>
	<path fill="#FFFFFF" d="M38.8,59.3c-0.9-0.5-1.5-1-2.1-1.8c-0.1-0.2-0.3,0-0.2,0.1c0.4,0.9,1.1,1.7,2.1,2.1
		C38.8,59.9,39.1,59.5,38.8,59.3z"/>
</g>
<g>
	<path fill="#FFFFFF" d="M49.1,60.8c-0.1-1.6-0.9-3.1-1.4-4.6c0-0.2-0.3-0.1-0.3,0c0.3,1.5,0.8,3,1,4.5c0,0,0,0,0,0
		c-1-1.2-1.5-2.7-2.3-4c-0.1-0.2-0.3,0-0.3,0.1c0.7,1.4,1.1,3.1,2.2,4.3c0.2,0.2,0.5,0,0.5-0.2C48.6,61.2,49.1,61.1,49.1,60.8z"/>
</g>
<g>
	<path fill="#FFFFFF" d="M49.9,55.8c-0.1-0.2-0.4-0.1-0.3,0.1c0.1,0.5,0.2,1,0.2,1.6c0,0.6-0.2,1.1-0.3,1.7c0,0.3,0.4,0.5,0.5,0.2
		C50.5,58.4,50.3,56.9,49.9,55.8z"/>
</g>
<g>
	<path fill="#FFFFFF" d="M46.5,60c-1,0-1.8-0.5-2.5-1.1c-0.1-0.1-0.3,0.1-0.2,0.2c0.7,0.8,1.6,1.6,2.7,1.5
		C46.9,60.6,46.9,60.1,46.5,60z"/>
</g>
<g>
	<path fill="#FFFFFF" d="M43.8,62.8c-0.7-0.4-1.7-0.2-2.4-0.2c-0.7,0.1-1.3,0.3-2,0.3c-0.2,0-0.2,0.2,0,0.3c1.4,0.1,2.7-0.2,4.1,0.2
		C43.9,63.5,44.1,63,43.8,62.8z"/>
</g>
<g>
	<path fill="#FFFFFF" d="M43.1,63.8c-1.4-0.1-2.8,0.2-4.2,0.5c-0.2,0-0.1,0.3,0.1,0.3c1.4-0.2,2.7-0.3,4.1-0.2
		C43.5,64.4,43.4,63.8,43.1,63.8z"/>
</g>
<g>
	<path fill="#FFFFFF" d="M41.5,65.7c-0.8-0.2-1.7,0-2.5,0.1c-0.2,0-0.2,0.3,0,0.3c0.4,0,0.8,0,1.1,0.1c0.4,0,0.8,0.2,1.3,0.2
		C41.8,66.3,41.9,65.8,41.5,65.7z"/>
</g>
<g>
	<path fill="#FFFFFF" d="M49.5,64c-1-0.7-2.4-0.6-3.5-0.9c-0.2,0-0.3,0.2-0.1,0.3c0.5,0.2,1,0.4,1.5,0.5c0.6,0.2,1.2,0.5,1.9,0.6
		C49.7,64.8,49.8,64.3,49.5,64z"/>
</g>
<g>
	<path fill="#FFFFFF" d="M49.9,65.3c-1.1-0.1-2.2-0.1-3.3-0.2c-0.2,0-0.2,0.2-0.1,0.3c1.1,0.4,2.3,0.6,3.4,0.6
		C50.4,65.9,50.3,65.3,49.9,65.3z"/>
</g>
<g>
	<path fill="#FFFFFF" d="M49.9,66.5c-0.9,0.1-1.8,0.5-2.7,0.2C47,66.7,46.9,67,47,67c0.9,0.4,2.1,0.4,3,0.1
		C50.4,66.9,50.2,66.5,49.9,66.5z"/>
</g>
<g>
	<path fill="#FFFFFF" d="M44.6,67.5c-0.4,0.2-0.8,0.5-1.2,0.7c-0.5,0.3-0.9,0.5-1.4,0.7c-0.2,0.1-0.1,0.3,0.1,0.3
		c0.5-0.1,1-0.3,1.5-0.5c0.5-0.2,1-0.4,1.4-0.8C45.1,67.8,44.8,67.4,44.6,67.5z"/>
</g>
<g>
	<path fill="#FFFFFF" d="M46.1,68.4c-0.5,0.3-1,0.7-1.6,1c-0.6,0.3-1.2,0.6-1.9,0.7c-0.2,0.1-0.1,0.3,0.1,0.3
		c1.3-0.2,2.8-0.7,3.8-1.6C46.7,68.6,46.4,68.2,46.1,68.4z"/>
</g>
<g>
	<path fill="#FFFFFF" d="M48.1,68.6c-1.1,1.5-2.4,2.3-4,3.2c-0.1,0.1,0,0.3,0.1,0.3c1.6-0.6,3.6-1.5,4.4-3.1
		C48.9,68.5,48.4,68.3,48.1,68.6z"/>
</g>
<g>
	<path fill="#FFFFFF" d="M52.7,72c0.2-0.3-0.3-0.6-0.5-0.3c-1.1,1.5-0.7,3.7-0.8,5.5c0,0.2,0.3,0.2,0.3,0
		C52.1,75.4,51.9,73.7,52.7,72z"/>
</g>
<g>
	<path fill="#FFFFFF" d="M48.9,78.8c-0.1-1.7-0.1-3.1,0.8-4.6c0.2-0.3-0.3-0.5-0.5-0.3c-1.1,1.4-0.9,3.2-0.6,4.9
		C48.7,78.9,48.9,78.9,48.9,78.8z"/>
</g>
<g>
	<path fill="#FFFFFF" d="M54.7,73.8c0-0.3-0.6-0.4-0.6-0.1c-0.2,1.1-0.3,2.1-0.5,3.2c-0.2,0.8-0.4,1.7-0.3,2.5c0,0.2,0.3,0.2,0.3,0
		C53.9,77.6,54.9,75.8,54.7,73.8z"/>
</g>
<g>
	<path fill="#FFFFFF" d="M56.2,74.8c0-0.3-0.5-0.4-0.5-0.1c-0.1,1.2,0,2.5-0.1,3.8c0,0.2,0.3,0.2,0.4,0C56.1,77.3,56.4,76,56.2,74.8
		z"/>
</g>
<g>
	<path fill="#FFFFFF" d="M57.7,71.3c0-1.1-1.1-2.7-2.2-3c-0.3-0.1-0.7,0.4-0.3,0.6c0.4,0.3,0.9,0.6,1.2,1c0.4,0.4,0.7,1,1,1.5
		C57.5,71.5,57.7,71.5,57.7,71.3z"/>
</g>
<g>
	<path fill="#FFFFFF" d="M56.3,71.6c-0.1-0.4-0.2-0.7-0.4-1c-0.2-0.3-0.4-0.7-0.7-0.9c-0.2-0.2-0.5,0.1-0.4,0.3
		c0.1,0.3,0.3,0.5,0.5,0.8c0.2,0.3,0.4,0.6,0.7,0.9C56,71.8,56.3,71.8,56.3,71.6z"/>
</g>
<g>
	<path fill="#FFFFFF" d="M46.1,75.4c0.1-0.2-0.2-0.4-0.4-0.2c-0.7,1-1.4,1.8-2.4,2.5c-0.1,0.1,0.1,0.4,0.2,0.3
		C44.5,77.3,45.6,76.5,46.1,75.4z"/>
</g>
<g>
	<path fill="#FFFFFF" d="M42.5,75c-0.5,0.6-1,1-1.4,1.6c-0.1,0.1,0.1,0.3,0.2,0.2c0.5-0.5,1-1,1.5-1.5C42.9,75.1,42.7,74.8,42.5,75z
		"/>
</g>
<g>
	<path fill="#FFFFFF" d="M40.7,74.1c-0.5,0.4-0.9,0.8-1.2,1.2c-0.1,0.1,0.1,0.3,0.2,0.2c0.4-0.4,0.8-0.7,1.2-1.1
		C41.1,74.3,40.9,74,40.7,74.1z"/>
</g>
<g>
	<path fill="#FFFFFF" d="M64.4,72.3c-1.2-1.2-2.8-2.2-4.5-2.4c-0.3,0-0.4,0.5-0.1,0.6c0.7,0.3,1.5,0.5,2.2,0.8
		c0.8,0.3,1.5,0.8,2.2,1.3C64.4,72.7,64.6,72.4,64.4,72.3z"/>
</g>
<g>
	<path fill="#FFFFFF" d="M65.7,71.5c-1.2-1.6-4-2.5-6-2.6c-0.5,0-0.5,0.6-0.1,0.8c2,0.6,3.9,1,5.8,2.1
		C65.6,71.8,65.8,71.6,65.7,71.5z"/>
</g>
<g>
	<path fill="#FFFFFF" d="M62.7,73.1c-0.7-0.7-1.4-1.4-2.2-2c-0.3-0.2-0.6,0.2-0.4,0.5c0.6,0.7,1.6,1.3,2.4,1.7
		C62.6,73.5,62.8,73.2,62.7,73.1z"/>
</g>
<g>
	<path fill="#FFFFFF" d="M56,61.1c0.1-0.2-0.2-0.4-0.3-0.2c-0.5,0.8-0.8,1.6-1.2,2.5c-0.2,0.4,0.4,0.7,0.6,0.3
		C55.5,62.9,55.6,62,56,61.1z"/>
</g>
<g>
	<path fill="#FFFFFF" d="M54.5,60.3c0.1-0.3-0.2-0.5-0.4-0.2c-0.3,0.4-0.6,1.1-0.6,1.6c0,0.3,0.4,0.5,0.5,0.2
		C54.3,61.4,54.3,60.8,54.5,60.3z"/>
</g>
<g>
	<path fill="#FFFFFF" d="M52.9,60.8c0-0.4,0.1-0.7,0.1-1.1c0-0.2-0.3-0.3-0.4,0c-0.1,0.4-0.2,0.8-0.1,1.2
		C52.5,61.2,52.9,61.1,52.9,60.8z"/>
</g>
<g>
	<path fill="#FFFFFF" d="M53.9,66.8c0.4-0.1,0.8-0.1,1.1-0.2c0.2-0.1,0.1-0.4-0.1-0.4c-0.4,0-0.7,0-1.1,0c-0.2,0-0.4,0.1-0.6,0.1
		c0.2-0.7,0.1-1.5,0-2c0-0.2-0.3-0.1-0.3,0c0,0.5-0.1,0.9-0.1,1.4c0,0.1-0.1,0.2-0.1,0.3c-0.2-0.7-0.8-1.5-1.2-2.1
		c-0.1-0.1-0.3,0-0.2,0.1c0.2,0.5,0.4,0.9,0.6,1.4c0.2,0.4,0.2,0.9,0.3,1.3c-0.3,0.8-0.8,1.5-1.1,2.3c-0.1,0.2,0.2,0.2,0.3,0.1
		c0.4-0.7,0.9-1.2,1.3-1.8c0.1,0.1,0.2,0.3,0.3,0.4c0.2,0.3,0.3,0.5,0.3,0.8c0,0.2,0.3,0.1,0.3,0c0-0.5-0.1-1.1-0.4-1.5
		C53.4,66.9,53.6,66.8,53.9,66.8z"/>
</g>
<g>
	<path fill="#FFFFFF" d="M67.1,67.9c0.9-1.2,1.4-2.7,1.2-4.2c-0.1-0.6-0.3-1.1-0.6-1.5c3.9-2.6,5.1-9.5-0.4-11.5
		c-2.7-1-5.8-0.2-8.3,1.5c0.4-4.3-1.7-8.3-6.7-8.8c-4.3-0.4-6.5,4-5.9,7.6c-1.5-0.1-3.1,0.1-4.6,1c-0.1,0.1-0.2,0.1-0.3,0.2
		c-2.9-2.3-6.3-3.9-8.9-0.4c-1.5,2-2,6.7,0.5,8.2c-1.3,0.5-2.5,1.2-3.3,2.3c-3.1,4.2,1.4,8.2,5.7,8.8c-1.9,2-2.4,5.2-0.7,7.7
		c2.7,3.9,8,3.2,11.3,0.8c0.7,3.4,3.7,6.5,7.6,5.8c4-0.7,6.3-5.7,5.2-9.5c3,3.4,9,5.6,12,1.8C73.7,74.2,71.9,68.4,67.1,67.9z
		 M66.9,63.6c0.5,1.6-0.8,3.7-2.1,4.4c-1.5,0.9-4.7-0.4-6.1-1.2c0,0,0,0,0,0c0-0.1,0-0.3,0-0.4c0-0.7-0.3-1.5-0.9-2
		c0.7-0.8,1.1-1.7,1.1-2.6c0.1,0,0.1,0,0.2,0C60.7,61,66,60.8,66.9,63.6z M54,67.5c0.4,0.7,1.3,3.2-1.6,3.9
		c-0.9,0.2-1.7-0.4-2.2-1.1c-0.9-1.2-0.4-3,0.9-3.5c0,0,0.1-0.1,0.1-0.1c0.4-0.2,0.6-1,0-1.4c-1.1-0.6-1.7-2.5-0.2-3.1
		c1.6-0.7,3.4,1.3,3.3,2.8c0,0.3,0.3,0.4,0.5,0.2c0,0,0.1,0,0.1,0c0.4-0.2,0.8-0.3,1.2-0.3c0.2,0,0.5,0.1,0.6,0.2
		c0.2,0.1,0.3,0.3,0.3,0.5c0.1,0.4,0.1,0.4,0.1,0.8c0,0.1,0,0.1,0,0.3c0,0.1-0.1,0.3-0.1,0.3c0,0.1-0.1,0.2-0.1,0.2
		c0,0-0.1,0.1-0.1,0.1c0,0,0,0,0,0c0,0,0,0,0,0c0,0-0.1,0.1-0.2,0.1c0.2-0.1-0.1,0-0.1,0c0,0,0,0,0,0c0,0,0,0,0,0
		c-0.1,0-0.2,0-0.2,0c0,0-0.2,0-0.2,0c-0.1,0-0.2-0.1-0.3-0.1c0,0-0.1,0-0.1,0C55.6,67.4,53.9,66.7,54,67.5z M48.9,67.8
		c-0.1,0-0.1,0-0.2,0c-1.3,0.1-2.8,0.5-3.9-0.6c-0.7-0.7-0.7-1.9-0.5-2.8c0.2-1,0.8-1.9,1.7-2.4c0.9-0.5,2-0.1,2.9,0.4
		c-0.7,1.4-0.2,3.3,1.3,4.2C49.5,66.7,49.1,67.2,48.9,67.8z M54.9,58.4c1,0.3,1.8,1,2.1,1.9c0.5,1.3-0.3,2.3-0.7,3.4
		c0,0.1,0,0.2,0,0.2c-0.5,0.1-0.9,0.3-1.3,0.5c0.1-1-0.3-2-0.9-2.8c-0.9-1.1-2.7-1.4-3.9-0.8c-0.4,0.2-0.7,0.4-0.9,0.7
		c0,0,0-0.1-0.1-0.1C50.1,59.2,52.3,57.7,54.9,58.4z M55.8,69c0.6,0.1,1.2,0.1,1.8-0.3c0.1-0.1,0.2-0.1,0.2-0.2
		c0.5,0.8,1.2,1.2,1.3,2.3c0.1,0.8-0.3,1.6-0.8,2.1c-1.3,1.5-3.3,1.2-4.5-0.4c0,0,0,0,0,0C54.9,71.9,55.6,70.4,55.8,69z M55.6,57.2
		c2-2.6,5.2-4.9,8.7-5.2c2.2-0.2,4,1,4.8,3c0.8,2.4-1.1,4.7-3,5.9c0,0,0,0,0,0c-2.2-1-5.4-0.6-7.2,0.5c-0.1-1.7-1.3-3.4-3.1-4.1
		C55.6,57.2,55.6,57.2,55.6,57.2C55.5,57.2,55.6,57.2,55.6,57.2z M52,45c1.9-0.1,3.1,0.5,4.8,2.8c1.8,2.6,0.3,5.7,0.4,5.9
		c-0.9,1-1.7,2-2.1,3.2c0,0.1,0,0.1,0,0.2c-0.4-0.1-0.8-0.2-1.1-0.2c0.1-0.2,0.1-0.4,0-0.7c-1.4-2.8-4-4.7-6.8-5.2
		C47.2,48.1,48.7,45.2,52,45z M43.3,52.9c3.5-2,7.7,0.9,9.2,4.2c0,0,0,0,0,0c-1.8,0.5-3.2,2.1-3.7,3.9c-1.6-1.3-3.5-0.6-4.7,0.8
		c-1.8-2.3-4-5.7-2-8c0.1-0.1,0.2-0.2,0.3-0.3C42.5,53.4,42.9,53.1,43.3,52.9z M33.9,52.8c1.7-2.9,4.6-1.1,6.5,0.7
		c-1.3,2.1-0.4,5,1.2,7.1c-2.1-1.1-4.8-1.4-7.2-0.9C32.3,57.9,32.6,54.9,33.9,52.8z M32.1,62.6c2.9-2.8,7.9-1.4,11.2,0
		c0.1,0,0.2,0,0.2,0c-0.2,0.3-0.4,0.7-0.5,1.1c-0.1,0.4-0.2,0.8-0.2,1.2c-2,0.6-4.1,2.4-4.7,4.5c0,0-0.1,0-0.1,0
		c-0.3,0.1-0.6,0.3-0.9,0.4C33,69.6,28.8,65.7,32.1,62.6z M36.3,77.7c-2.4-2.5-0.3-5.4,1.6-7.3c-0.1,0.9,0.1,1.8,0.7,2.7
		c1.6,2.3,5,3,7.9,2.3c-0.2,0.5-0.3,1.1-0.4,1.6C43.9,80.1,39.1,80.6,36.3,77.7z M39.8,72.6c-2.7-2.2,0.8-5.7,3-6.9
		c0.1,0.8,0.4,1.7,0.9,2.3c1.2,1.4,3.3,1.6,5,1.2c0.1,0.7,0.4,1.5,0.8,2.1C48,74.5,42.5,74.9,39.8,72.6z M54.2,83.3
		c-2.2,1.2-4.8-0.3-5.9-2.2c-1.5-2.6-0.9-5.2-0.9-6c1.5-0.5,2.8-1.4,3.5-2.6c0.2,0.1,0.4,0.2,0.6,0.2c0.6,0.2,1.2,0.1,1.7,0
		c0,0,0,0,0,0c0.7,1.6,1.9,2.3,3.2,2.3c0,0.1,0.1,0.2,0.1,0.2C58.1,78,56.7,81.9,54.2,83.3z M69.3,76.6c-2.7,3.1-7.8-0.6-9.5-3.2
		c0,0,0,0,0,0c0.8-1.2,1-2.8,0.4-4.1c1.6,0.7,3.4,1,5,0.3c0.5-0.2,1-0.6,1.4-1C66.6,68.6,73.7,71.4,69.3,76.6z"/>
</g>
<g>
	<path fill="#CDC866" d="M21,32.5c-0.5-1.3-2.5-4.1-4.5-4.1c-2,0-4.1,3.4-4.4,4.5c-1.9-1.6-4.9-3.6-6.9-1.2s-1.2,6.4,0,7.8
		c-3.7,0.5-5.2,1.3-5.2,3.9s3.8,6.3,7.7,6c-3,2.3-4.6,7.1-2.3,9c2.3,1.8,6,2.6,7.5-2.2c2.3,2.2,4,2.5,5,1.2c2.4,3.5,5.7,5.2,7.7,2.8
		c2-2.4,0.2-6.5-0.5-8.1c3.9,1.3,7.7,0.1,8.1-3.2c0.3-3.3-2.6-4.5-5.7-5.3c0.6-1.7-0.6-3.8-1.2-4.2c1-0.6,4.1-2.9,1.7-5.8
		C25.6,30.6,23.3,31.2,21,32.5z"/>
</g>
<g>
	<path fill="#FFFFFF" d="M14.4,53.2c0.3-1,0.4-1.9,1.2-2.7c0,0,0-0.1,0.1-0.1c0,0.1,0.1,0.1,0.1,0.2c-0.1,0-0.2,0-0.2,0.1
		c-0.4,0.8-0.3,1.8-0.1,2.6c0,0.2,0.3,0.2,0.3,0c0-0.8,0-1.6,0.2-2.4c0.5,0.9,0.7,1.8,0.7,2.9c0,0.1,0.2,0.2,0.2,0.1
		c0.4-1.1,0-2.7-0.8-3.6c-0.1-0.1-0.4-0.1-0.4,0.1c-0.1-0.1-0.3-0.2-0.4-0.1c-1,0.6-1.2,2-1,3C14.1,53.3,14.3,53.3,14.4,53.2z"/>
</g>
<g>
	<path fill="#FFFFFF" d="M23.2,52.5c-0.4-0.7-0.9-1.5-1.6-1.9c-0.2-0.1-0.4,0.2-0.2,0.3c0.7,0.5,1.1,1.1,1.6,1.7
		C23.1,52.7,23.3,52.6,23.2,52.5z"/>
</g>
<g>
	<path fill="#FFFFFF" d="M22.6,54c-0.6-1.2-1.4-2.2-2.6-2.9c-0.2-0.1-0.4,0.2-0.2,0.3c1.1,0.7,1.9,1.6,2.5,2.6
		C22.5,54.2,22.7,54.2,22.6,54z"/>
</g>
<g>
	<path fill="#FFFFFF" d="M21.4,54.9c-0.7-1.1-1.5-2.1-2.1-3.3c-0.1-0.3-0.5-0.1-0.4,0.2c0.4,1.2,1.4,2.3,2.3,3.3
		C21.4,55.1,21.5,55,21.4,54.9z"/>
</g>
<g>
	<path fill="#FFFFFF" d="M26.4,46.4c0.7,0,1.3-0.1,1.9,0.3c0.1,0.1,0.3-0.1,0.1-0.2c-0.6-0.4-1.4-0.5-2.1-0.4
		C26.1,46.1,26.2,46.4,26.4,46.4z"/>
</g>
<g>
	<path fill="#FFFFFF" d="M23.3,47.9c1.6,0.6,3.2,0.7,4.8,0.5c0.2,0,0.1-0.3,0-0.3c-1.6,0-3-0.3-4.5-0.8
		C23.1,47.2,22.9,47.8,23.3,47.9z"/>
</g>
<g>
	<path fill="#FFFFFF" d="M27.5,50.1c0.1,0,0.1-0.2-0.1-0.2c-1.7,0.2-2.9-0.6-4.4-1.1c-0.3-0.1-0.6,0.3-0.3,0.5
		C24.2,50,25.9,50.5,27.5,50.1z"/>
</g>
<g>
	<path fill="#FFFFFF" d="M22.2,38.8c0.6-0.9,1.3-1.8,2.5-2.1c0.1,0,0.1-0.2,0-0.2c-1.2,0.1-2.5,0.9-2.9,2
		C21.6,38.8,22,39.1,22.2,38.8z"/>
</g>
<g>
	<path fill="#FFFFFF" d="M21.2,38.2c0.8-1,1.5-1.8,2.6-2.5c0.1-0.1,0-0.3-0.2-0.2c-1.1,0.6-2.3,1.3-2.9,2.5
		C20.6,38.2,21,38.4,21.2,38.2z"/>
</g>
<g>
	<path fill="#FFFFFF" d="M21.5,36.3c0.4-0.6,0.9-1,1.6-1.4c0.1-0.1,0-0.2-0.1-0.2c-0.7,0.2-1.5,0.6-1.8,1.3
		C21,36.3,21.3,36.6,21.5,36.3z"/>
</g>
<g>
	<path fill="#FFFFFF" d="M19.7,44.1c1.3,0.1,2.6-0.3,3.8-0.4c0.1,0,0.1-0.2,0-0.2c-1.3,0-2.5,0.2-3.7,0.2c0,0,0,0,0,0
		c1-0.6,2.3-0.8,3.4-1.2c0.1-0.1,0-0.3-0.1-0.2c-1.2,0.3-2.6,0.4-3.6,1.1c-0.2,0.1-0.1,0.4,0.1,0.4C19.4,43.8,19.5,44.1,19.7,44.1z"
		/>
</g>
<g>
	<path fill="#FFFFFF" d="M23.8,45.5c0.2,0,0.1-0.3-0.1-0.3c-0.4,0-0.9,0-1.3-0.1c-0.5-0.1-0.9-0.4-1.4-0.5c-0.2-0.1-0.4,0.2-0.2,0.4
		C21.6,45.6,22.9,45.7,23.8,45.5z"/>
</g>
<g>
	<path fill="#FFFFFF" d="M20.5,42.3c0.1-0.8,0.5-1.3,1.1-1.8c0.1-0.1,0-0.3-0.1-0.2c-0.7,0.5-1.4,1-1.4,1.9
		C20,42.5,20.4,42.6,20.5,42.3z"/>
</g>
<g>
	<path fill="#FFFFFF" d="M18.3,39.8c0.3-0.5,0.3-1.3,0.3-1.8c0-0.5-0.2-1.1-0.2-1.6c0-0.1-0.2-0.2-0.2,0c-0.1,1.1,0,2.1-0.3,3.2
		C17.8,39.8,18.2,40,18.3,39.8z"/>
</g>
<g>
	<path fill="#FFFFFF" d="M17.6,39.1c0.1-1.1,0-2.2-0.2-3.3c0-0.2-0.2-0.1-0.2,0c0.1,1.1,0.1,2.2,0,3.2C17,39.3,17.5,39.3,17.6,39.1z
		"/>
</g>
<g>
	<path fill="#FFFFFF" d="M16.1,37.6c0.2-0.6,0.1-1.3,0.1-1.9c0-0.1-0.2-0.2-0.2,0c0,0.3-0.1,0.6-0.1,0.9c-0.1,0.3-0.2,0.6-0.2,1
		C15.6,37.7,16,37.8,16.1,37.6z"/>
</g>
<g>
	<path fill="#FFFFFF" d="M17.1,44c0.6-0.7,0.6-1.8,0.9-2.6c0-0.1-0.2-0.3-0.2-0.1c-0.2,0.4-0.4,0.7-0.5,1.1
		c-0.2,0.5-0.5,0.9-0.6,1.4C16.5,44,16.9,44.2,17.1,44z"/>
</g>
<g>
	<path fill="#FFFFFF" d="M16,44.2c0.1-0.9,0.2-1.7,0.4-2.5c0-0.1-0.1-0.2-0.2-0.1c-0.4,0.8-0.6,1.7-0.7,2.6
		C15.5,44.4,16,44.5,16,44.2z"/>
</g>
<g>
	<path fill="#FFFFFF" d="M15,44c-0.1-0.7-0.3-1.4-0.1-2.1c0.1-0.1-0.2-0.2-0.2-0.1c-0.4,0.6-0.4,1.6-0.2,2.3
		C14.6,44.3,15,44.3,15,44z"/>
</g>
<g>
	<path fill="#FFFFFF" d="M14.5,39.7c-0.1-0.4-0.4-0.7-0.5-1c-0.2-0.4-0.4-0.8-0.5-1.2c0-0.2-0.3-0.1-0.2,0c0.1,0.4,0.2,0.8,0.3,1.2
		c0.1,0.4,0.3,0.8,0.5,1.2C14.2,40.1,14.6,39.9,14.5,39.7z"/>
</g>
<g>
	<path fill="#FFFFFF" d="M13.6,40.8c-0.2-0.5-0.5-0.9-0.8-1.4c-0.2-0.5-0.4-1-0.5-1.6c0-0.1-0.2-0.1-0.2,0c0.1,1,0.4,2.3,1.1,3.2
		C13.4,41.2,13.8,41,13.6,40.8z"/>
</g>
<g>
	<path fill="#FFFFFF" d="M13.4,42.3c-1.2-1-1.8-2.2-2.4-3.5c-0.1-0.1-0.3-0.1-0.2,0.1c0.4,1.4,1.1,3,2.3,3.9
		C13.4,42.9,13.6,42.5,13.4,42.3z"/>
</g>
<g>
	<path fill="#FFFFFF" d="M10.4,45.4c0.3,0.2,0.5-0.2,0.3-0.4c-1.2-1.1-3-1.1-4.4-1.4C6,43.7,6,43.9,6.1,44
		C7.6,44.4,9,44.5,10.4,45.4z"/>
</g>
<g>
	<path fill="#FFFFFF" d="M5,41.5c1.4,0.2,2.6,0.3,3.8,1.2C9,42.9,9.2,42.6,9,42.4c-1.1-1-2.6-1.2-4-1.1C4.9,41.3,4.9,41.5,5,41.5z"
		/>
</g>
<g>
	<path fill="#FFFFFF" d="M8.8,46.7c0.3,0,0.4-0.4,0.1-0.5C8,46,7.1,45.7,6.3,45.4c-0.7-0.2-1.3-0.5-2.1-0.6c-0.1,0-0.2,0.2,0,0.2
		C5.7,45.5,7.2,46.6,8.8,46.7z"/>
</g>
<g>
	<path fill="#FFFFFF" d="M7.9,47.8c0.2,0,0.3-0.3,0.1-0.4c-1-0.3-2.1-0.4-3.1-0.6c-0.2,0-0.2,0.2-0.1,0.3
		C5.8,47.3,6.9,47.7,7.9,47.8z"/>
</g>
<g>
	<path fill="#FFFFFF" d="M10.7,49.4c0.9,0.2,2.3-0.5,2.6-1.3c0.1-0.3-0.3-0.6-0.5-0.4c-0.3,0.3-0.5,0.6-0.9,0.8
		c-0.4,0.3-0.9,0.4-1.3,0.6C10.5,49.2,10.5,49.3,10.7,49.4z"/>
</g>
<g>
	<path fill="#FFFFFF" d="M10.5,48.2c0.3,0,0.6-0.1,0.8-0.2c0.3-0.1,0.6-0.2,0.8-0.4c0.1-0.1-0.1-0.4-0.2-0.4c-0.3,0-0.5,0.2-0.7,0.3
		c-0.3,0.1-0.5,0.2-0.8,0.4C10.3,48,10.3,48.2,10.5,48.2z"/>
</g>
<g>
	<path fill="#FFFFFF" d="M7.9,39.8c0.2,0.1,0.4-0.1,0.2-0.3c-0.8-0.7-1.4-1.4-2-2.2c-0.1-0.1-0.3,0-0.2,0.1
		C6.5,38.3,7.1,39.3,7.9,39.8z"/>
</g>
<g>
	<path fill="#FFFFFF" d="M8.4,37.1c-0.4-0.4-0.8-0.9-1.3-1.3c-0.1-0.1-0.2,0.1-0.2,0.2c0.4,0.4,0.7,0.9,1.2,1.4
		C8.3,37.4,8.6,37.2,8.4,37.1z"/>
</g>
<g>
	<path fill="#FFFFFF" d="M9.2,35.8C9,35.4,8.6,35,8.3,34.6c-0.1-0.1-0.2,0.1-0.2,0.2c0.3,0.4,0.5,0.7,0.8,1.1
		C9.1,36.1,9.3,35.9,9.2,35.8z"/>
</g>
<g>
	<path fill="#FFFFFF" d="M9.6,54.4c1-0.8,1.9-1.8,2.2-3.2c0-0.2-0.4-0.4-0.5-0.2c-0.3,0.5-0.4,1.1-0.7,1.6c-0.3,0.6-0.7,1.1-1.2,1.5
		C9.2,54.4,9.5,54.5,9.6,54.4z"/>
</g>
<g>
	<path fill="#FFFFFF" d="M10.2,55.6c1.4-0.7,2.3-2.8,2.4-4.3c0-0.4-0.5-0.5-0.6-0.2c-0.6,1.5-1,2.9-2,4.2
		C9.9,55.5,10.1,55.6,10.2,55.6z"/>
</g>
<g>
	<path fill="#FFFFFF" d="M9,53c0.6-0.5,1.2-0.9,1.7-1.5c0.2-0.2-0.2-0.5-0.4-0.4c-0.6,0.4-1.1,1-1.5,1.6C8.7,52.9,8.9,53.1,9,53z"/>
</g>
<g>
	<path fill="#FFFFFF" d="M19.1,49.5c0.2,0.1,0.3-0.1,0.2-0.2c-0.6-0.5-1.3-0.8-2-1.3c-0.3-0.2-0.6,0.2-0.3,0.4
		C17.7,48.8,18.5,49.1,19.1,49.5z"/>
</g>
<g>
	<path fill="#FFFFFF" d="M19.9,48.4c0.2,0.1,0.4-0.1,0.2-0.3c-0.4-0.3-0.9-0.6-1.3-0.7c-0.2-0.1-0.4,0.2-0.2,0.4
		C18.9,48.1,19.5,48.2,19.9,48.4z"/>
</g>
<g>
	<path fill="#FFFFFF" d="M19.5,47.1c0.3,0.1,0.6,0.2,0.9,0.2c0.2,0,0.2-0.2,0.1-0.3c-0.3-0.1-0.6-0.3-0.9-0.3
		C19.3,46.8,19.3,47.1,19.5,47.1z"/>
</g>
<g>
	<path fill="#FFFFFF" d="M14.6,47c0.1,0.3,0.1,0.6,0.1,0.9c0,0.2,0.3,0.2,0.3,0c0-0.3,0-0.6,0-0.9c0-0.2,0-0.3-0.1-0.5
		c0.5,0.2,1.2,0.3,1.7,0.3c0.1,0,0.1-0.2,0-0.2c-0.4-0.1-0.8-0.2-1.1-0.3c-0.1,0-0.1-0.1-0.2-0.1c0.6-0.1,1.2-0.4,1.8-0.6
		c0.1,0,0-0.2-0.1-0.2c-0.4,0.1-0.8,0.2-1.2,0.3c-0.4,0.1-0.7,0-1.1,0.1c-0.7-0.3-1.2-0.8-1.9-1.2c-0.1-0.1-0.2,0.1-0.1,0.2
		c0.5,0.4,0.9,0.9,1.4,1.2c-0.1,0.1-0.2,0.1-0.4,0.2c-0.2,0.1-0.4,0.1-0.7,0.1c-0.2,0-0.1,0.2,0,0.2c0.4,0.1,0.9,0,1.3-0.1
		C14.5,46.6,14.6,46.8,14.6,47z"/>
</g>
<g>
	<path fill="#FFFFFF" d="M13,57.2c0.9,0.9,2.2,1.5,3.4,1.5c0.5,0,0.9-0.1,1.3-0.3c1.9,3.4,7.5,5.2,9.4,1.3c0.9-1.9,0.4-4.5-0.8-6.6
		c3.5,0.9,6.9-0.1,7.5-4c0.6-3.3-3-5.6-5.9-5.6c0.2-1.2,0-2.4-0.6-3.7c0-0.1-0.1-0.2-0.1-0.2c2.1-1.9,3.5-4.3,0.8-6.8
		c-1.6-1.5-5.4-2.5-6.8-0.7c-0.3-1.1-0.9-2.1-1.7-2.9c-3.3-3-6.8-0.1-7.5,3.2c-1.6-1.7-4.1-2.6-6.2-1.6c-3.3,1.6-3,5.7-1.2,8.6
		c-2.8,0.1-5.5,1.9-5.1,5c0.4,3.2,4.3,5.7,7.5,5.3c-3,1.8-5,6.2-2.1,9.1C7.5,61.4,12.4,60.8,13,57.2z M16.6,57.6
		c-1.3,0.2-2.9-1.2-3.5-2.3c-0.7-1.3,0.6-3.6,1.3-4.6c0,0,0,0,0,0c0.1,0,0.2,0.1,0.3,0.1c0.6,0.1,1.2-0.1,1.7-0.5
		c0.6,0.7,1.3,1.1,2.1,1.2c0,0,0,0.1,0,0.1C19,53.1,18.9,57.3,16.6,57.6z M14,47c-0.6,0.2-2.7,0.6-3.1-1.8c-0.1-0.7,0.4-1.3,1-1.5
		c1.1-0.5,2.4,0.1,2.8,1.2c0,0,0,0.1,0.1,0.1c0.2,0.4,0.8,0.6,1.1,0.2c0.6-0.8,2.1-0.9,2.5,0.3c0.5,1.4-1.3,2.5-2.5,2.2
		c-0.2-0.1-0.3,0.2-0.2,0.4c0,0,0,0.1,0,0.1c0.1,0.3,0.2,0.6,0.2,1c0,0.2-0.1,0.4-0.2,0.4c-0.1,0.1-0.3,0.2-0.4,0.2
		c-0.3,0-0.3,0-0.6,0c-0.1,0-0.1,0-0.2-0.1c-0.1,0-0.3-0.1-0.3-0.1c-0.1,0-0.2-0.1-0.2-0.1c0,0-0.1-0.1-0.1-0.1c0,0,0,0,0,0
		c0,0,0,0,0,0c0,0,0-0.1-0.1-0.1c0.1,0.1,0-0.1,0-0.1c0,0,0,0,0,0c0,0,0,0,0,0c0-0.1,0-0.1,0-0.2c0,0,0-0.1,0-0.1
		c0-0.1,0.1-0.2,0.1-0.2c0,0,0,0,0-0.1C14,48.3,14.7,47.1,14,47z M14,43c0,0,0-0.1,0-0.1c0-1.1-0.2-2.2,0.7-2.9
		c0.6-0.4,1.6-0.2,2.3,0c0.8,0.3,1.5,0.9,1.9,1.6c0.4,0.8,0,1.6-0.4,2.2c-1.1-0.7-2.7-0.6-3.5,0.4C14.9,43.7,14.5,43.3,14,43z
		 M21.4,49c-0.3,0.7-0.9,1.2-1.7,1.4c-1.1,0.2-1.9-0.6-2.8-1c-0.1,0-0.1,0-0.2,0c0-0.4-0.2-0.8-0.4-1.1c0.8,0.2,1.6,0.1,2.4-0.3
		c0.9-0.5,1.3-1.9,0.8-2.9c-0.1-0.3-0.3-0.6-0.5-0.8c0,0,0.1,0,0.1,0C21,45.2,22.1,47.1,21.4,49z M12.7,48.2
		c-0.1,0.5-0.1,0.9,0.1,1.4c0,0.1,0.1,0.1,0.1,0.2c-0.7,0.3-1.1,0.8-1.9,0.7c-0.7-0.1-1.3-0.5-1.7-1c-1.2-1.2-0.8-2.7,0.5-3.4
		c0,0,0,0,0,0C10.4,47.1,11.5,47.9,12.7,48.2z M22.4,49.7c2,1.9,3.7,4.7,3.9,7.5c0.1,1.7-1,3-2.7,3.3c-2,0.3-3.8-1.5-4.7-3.1
		c0,0,0,0,0,0c0.9-1.6,0.8-4.1,0-5.7C20.2,51.8,21.6,51.1,22.4,49.7C22.3,49.7,22.3,49.7,22.4,49.7C22.4,49.7,22.4,49.7,22.4,49.7z
		 M32.5,48.6c0,1.5-0.5,2.4-2.5,3.3c-2.2,1-4.7-0.6-4.9-0.5c-0.7-0.9-1.6-1.6-2.5-2.1c-0.1,0-0.1,0-0.2,0c0.1-0.3,0.2-0.6,0.2-0.9
		c0.2,0.1,0.4,0.1,0.6,0.1c2.3-0.7,4.1-2.4,4.6-4.6C30.2,44.5,32.5,46,32.5,48.6z M26.5,40.7c1.4,3-1.2,5.9-3.9,6.6c0,0,0,0,0,0
		c-0.4-1.5-1.5-2.8-3-3.4c1.1-1.1,0.7-2.6-0.5-3.8c1.9-1.1,4.8-2.3,6.6-0.5c0.1,0.1,0.1,0.2,0.2,0.2C26.1,40.1,26.3,40.4,26.5,40.7z
		 M27.1,33.5c2.3,1.8,0.7,3.7-0.9,4.9c-1.6-1.3-4.1-1-5.9,0c1-1.4,1.4-3.5,1.1-5.4C22.9,31.5,25.4,32.2,27.1,33.5z M19.1,30.7
		c2.1,2.6,0.8,6.3-0.6,8.7c0,0.1,0,0.1,0,0.2c-0.3-0.2-0.6-0.4-0.9-0.5c-0.3-0.1-0.6-0.2-1-0.3c-0.4-1.7-1.8-3.5-3.4-4.3
		c0,0,0-0.1,0-0.1c-0.1-0.3-0.2-0.5-0.3-0.7C13.3,30.4,16.7,27.8,19.1,30.7z M6.5,31.9c2.2-1.5,4.4,0.5,5.9,2.2
		c-0.7-0.2-1.5-0.2-2.2,0.2c-2,0.9-2.7,3.5-2.3,5.8c-0.4-0.2-0.8-0.4-1.3-0.5C4.2,37.4,4,33.6,6.5,31.9z M10.5,35.3
		c1.9-1.8,4.7,1.4,5.5,3.3c-0.7-0.1-1.4,0-1.9,0.4c-1.2,0.7-1.5,2.3-1.2,3.7c-0.6,0-1.2,0.1-1.7,0.3C8.6,41.4,8.5,37.1,10.5,35.3z
		 M1,45c-0.9-1.8,0.5-3.7,2.1-4.3c2.2-0.8,4.3,0,4.9,0.1c0.3,1.2,1,2.4,1.9,3.1c-0.1,0.1-0.2,0.3-0.2,0.4c-0.2,0.4-0.2,0.9-0.1,1.3
		c0,0,0,0,0,0c-1.3,0.3-2,1.1-2.1,2.2c-0.1,0-0.1,0-0.2,0C5.2,48.7,2.1,47.1,1,45z M5.8,57.6c-2.4-2.5,0.9-6,3.1-6.9c0,0,0,0,0,0
		c0.9,0.8,2.3,1.2,3.4,0.9c-0.6,1.2-1,2.5-0.5,3.8c0.2,0.4,0.4,0.8,0.7,1.2C12.5,56.7,9.8,61.8,5.8,57.6z"/>
</g>
<g>
	<path fill="#E0DFB1" d="M54,42.4c1.8,0.7,6.4,1.2,8.1-1c1.7-2.2,0-7.8-0.9-9.2c3.3-0.6,8-1.9,7.1-6.4s-5.7-7.5-8.3-7.6
		c2.6-4.6,3-7,0.4-9.5c-2.6-2.5-9.9-2-12.9,2.6c0.1-5.5-3.6-12-7.4-11.3S32.2,4.1,36,10.4c-4.3,0.4-6.1,2-5.5,4.4
		c-5.7-0.8-10.3,1.2-9.6,5.8c0.7,4.5,6.7,6.6,9,7.3c-4.7,3-6.7,8.4-3.5,12c3.2,3.6,7,1.5,10.5-1.1c1.3,2.2,4.5,3.1,5.5,2.8
		c-0.3,1.7-0.4,7.3,4.7,7.6C52.1,49.4,53.5,46.2,54,42.4z"/>
</g>
<g>
	<path fill="#FFFFFF" d="M37.9,15.1c0.8,1.3,1.6,2.3,1.8,3.9c0,0.1,0,0.1,0.1,0.2c-0.1,0-0.2,0-0.3-0.1c0.1-0.1,0.2-0.2,0.1-0.3
		c-0.5-1.2-1.6-2-2.7-2.6c-0.2-0.1-0.4,0.2-0.3,0.3c0.9,0.8,1.7,1.5,2.3,2.5c-1.4-0.4-2.5-1.1-3.6-2c-0.1-0.1-0.4,0-0.3,0.2
		c0.9,1.5,2.9,2.6,4.6,2.6c0.3,0,0.4-0.3,0.2-0.5c0.2,0,0.4-0.1,0.4-0.3c0.2-1.6-1.1-3.2-2.3-4.1C38,14.7,37.8,14.9,37.9,15.1z"/>
</g>
<g>
	<path fill="#FFFFFF" d="M31,25.5c1.1,0.3,2.3,0.5,3.4,0.1c0.3-0.1,0.1-0.6-0.2-0.5c-1.1,0.3-2.1,0.2-3.2,0.1
		C30.9,25.1,30.8,25.4,31,25.5z"/>
</g>
<g>
	<path fill="#FFFFFF" d="M29.9,23.3c1.7,0.5,3.6,0.7,5.3,0c0.3-0.1,0.1-0.6-0.2-0.5c-1.7,0.5-3.3,0.5-5,0.2
		C29.8,23,29.7,23.2,29.9,23.3z"/>
</g>
<g>
	<path fill="#FFFFFF" d="M30,21.2c1.8,0.2,3.5,0.3,5.2,0.9c0.4,0.1,0.5-0.4,0.2-0.6c-1.7-0.7-3.6-0.7-5.4-0.7
		C29.8,20.9,29.8,21.2,30,21.2z"/>
</g>
<g>
	<path fill="#FFFFFF" d="M34.7,34.8c-0.6,0.8-1.1,1.5-2,1.9c-0.2,0.1-0.1,0.4,0.1,0.4c1-0.3,1.8-1.1,2.2-2
		C35.2,34.8,34.9,34.6,34.7,34.8z"/>
</g>
<g>
	<path fill="#FFFFFF" d="M35.7,30c-2,1.1-3.4,2.8-4.7,4.7c-0.1,0.2,0.2,0.4,0.3,0.3c1.4-1.7,2.9-3,4.8-4.2
		C36.7,30.5,36.2,29.7,35.7,30z"/>
</g>
<g>
	<path fill="#FFFFFF" d="M29.8,32.5c-0.1,0.2,0.2,0.3,0.3,0.1c1.3-2,3-2.6,5-3.7c0.4-0.2,0.1-1-0.3-0.8C32.7,29,30.7,30.4,29.8,32.5
		z"/>
</g>
<g>
	<path fill="#FFFFFF" d="M46.3,37.6c0.4,1.6,0.8,3.2,0,4.8c-0.1,0.2,0.2,0.3,0.3,0.2c0.9-1.5,1.1-3.6,0.3-5.2
		C46.8,36.9,46.2,37.2,46.3,37.6z"/>
</g>
<g>
	<path fill="#FFFFFF" d="M47.8,37.1c0.3,1.8,0.6,3.4,0.5,5.3c0,0.2,0.3,0.2,0.3,0c0.3-1.8,0.6-3.8-0.2-5.6
		C48.3,36.4,47.8,36.7,47.8,37.1z"/>
</g>
<g>
	<path fill="#FFFFFF" d="M49.6,39.2c0.3,1,0.4,2,0.1,3c0,0.2,0.2,0.3,0.3,0.1c0.4-1,0.6-2.2,0.2-3.3C50,38.7,49.5,38.8,49.6,39.2z"
		/>
</g>
<g>
	<path fill="#FFFFFF" d="M42.8,29.7c-1.3,1.3-1.9,3.1-2.9,4.6c-0.1,0.2,0.1,0.4,0.3,0.2c1.1-1.4,1.9-2.9,3-4.3c0,0,0,0,0,0
		c-0.3,1.7-1.2,3.3-1.6,4.9c-0.1,0.2,0.2,0.3,0.3,0.1c0.7-1.6,1.8-3.2,2-5c0-0.3-0.4-0.4-0.6-0.2C43.5,29.8,43.1,29.5,42.8,29.7z"/>
</g>
<g>
	<path fill="#FFFFFF" d="M38,32.9c-0.1,0.2,0.2,0.4,0.3,0.2c0.3-0.5,0.7-0.9,1.2-1.4c0.5-0.5,1.2-0.7,1.7-1.1
		c0.3-0.2,0.1-0.7-0.2-0.6C39.7,30.4,38.5,31.7,38,32.9z"/>
</g>
<g>
	<path fill="#FFFFFF" d="M44.2,32.3c0.8,0.8,1,1.8,1,2.9c0,0.2,0.3,0.2,0.3,0c0.1-1.2,0.1-2.5-0.8-3.4C44.3,31.6,43.9,32,44.2,32.3z
		"/>
</g>
<g>
	<path fill="#FFFFFF" d="M48.7,32.4c0.2,0.8,1.1,1.5,1.7,2.1c0.6,0.5,1.3,0.8,1.8,1.3c0.1,0.1,0.3-0.1,0.2-0.2
		c-1-1.2-2.3-2.1-3.1-3.4C49.1,31.8,48.6,32.1,48.7,32.4z"/>
</g>
<g>
	<path fill="#FFFFFF" d="M50.1,32.3c1,1.2,2.4,2.1,3.7,3c0.2,0.1,0.3-0.2,0.2-0.3c-1.3-0.9-2.4-2-3.4-3.2
		C50.3,31.5,49.8,31.9,50.1,32.3z"/>
</g>
<g>
	<path fill="#FFFFFF" d="M52.9,32.1c0.5,0.8,1.3,1.3,2,1.9c0.2,0.1,0.4-0.1,0.2-0.2c-0.3-0.3-0.5-0.6-0.8-1
		c-0.3-0.4-0.5-0.8-0.8-1.1C53.2,31.4,52.7,31.7,52.9,32.1z"/>
</g>
<g>
	<path fill="#FFFFFF" d="M45.3,26.9c0.2,1.3,1.4,2.4,2,3.5c0.1,0.2,0.4,0.1,0.3-0.1c-0.2-0.6-0.5-1.1-0.7-1.7
		c-0.3-0.6-0.5-1.4-0.9-2C45.8,26.2,45.2,26.5,45.3,26.9z"/>
</g>
<g>
	<path fill="#FFFFFF" d="M46,25.6c0.8,1,1.7,1.8,2.4,2.9c0.1,0.2,0.3,0,0.3-0.1c-0.5-1.2-1.3-2.3-2.1-3.2
		C46.2,24.8,45.7,25.3,46,25.6z"/>
</g>
<g>
	<path fill="#FFFFFF" d="M47.1,24.7c0.8,0.6,1.8,1,2.3,2c0.1,0.2,0.4,0.1,0.3-0.1c-0.3-1-1.3-2-2.3-2.5C47,24,46.7,24.4,47.1,24.7z"
		/>
</g>
<g>
	<path fill="#FFFFFF" d="M52,28.3c0.5,0.2,1.1,0.3,1.6,0.4c0.6,0.2,1.2,0.3,1.7,0.6c0.2,0.1,0.4-0.2,0.2-0.3c-0.5-0.3-1-0.6-1.5-0.8
		c-0.5-0.2-1.1-0.5-1.7-0.6C51.9,27.6,51.7,28.1,52,28.3z"/>
</g>
<g>
	<path fill="#FFFFFF" d="M51.6,26.3c0.7,0.2,1.4,0.3,2.1,0.5c0.7,0.2,1.4,0.6,2.1,1c0.2,0.1,0.3-0.2,0.2-0.3
		c-1.2-0.9-2.8-1.8-4.3-1.8C51.4,25.7,51.3,26.2,51.6,26.3z"/>
</g>
<g>
	<path fill="#FFFFFF" d="M50.2,24.5c2.1-0.3,3.8,0.2,5.8,0.8c0.2,0.1,0.3-0.2,0.1-0.3c-1.8-0.8-4.1-1.8-6.1-1.2
		C49.6,24,49.8,24.6,50.2,24.5z"/>
</g>
<g>
	<path fill="#FFFFFF" d="M49.5,18.2c-0.4,0.1-0.3,0.7,0.2,0.7c2.2-0.2,3.7-2.2,5.3-3.6c0.2-0.1,0-0.4-0.2-0.3
		C53,16.1,51.7,17.6,49.5,18.2z"/>
</g>
<g>
	<path fill="#FFFFFF" d="M58.2,16.1c-1.4,1.4-2.6,2.5-4.5,2.9c-0.4,0.1-0.2,0.6,0.1,0.6c2.1-0.2,3.5-1.7,4.6-3.3
		C58.6,16.1,58.4,16,58.2,16.1z"/>
</g>
<g>
	<path fill="#FFFFFF" d="M49.5,15.2c-0.3,0.3,0.1,0.8,0.4,0.6c1-0.7,2-1.4,3.1-2c0.8-0.5,1.7-1,2.4-1.7c0.1-0.1,0-0.4-0.2-0.3
		C53.5,13,51,13.6,49.5,15.2z"/>
</g>
<g>
	<path fill="#FFFFFF" d="M49.2,13.2c-0.2,0.2,0.1,0.7,0.4,0.5c1.2-0.8,2.2-1.9,3.3-2.8c0.2-0.1,0-0.4-0.2-0.3
		C51.4,11.4,50.1,12.2,49.2,13.2z"/>
</g>
<g>
	<path fill="#FFFFFF" d="M45.1,14.7c-1,0.8-1.4,3-0.8,4.1c0.2,0.4,0.8,0.2,0.8-0.2c-0.1-0.6-0.2-1.1-0.1-1.7c0-0.7,0.3-1.3,0.5-2
		C45.4,14.7,45.2,14.6,45.1,14.7z"/>
</g>
<g>
	<path fill="#FFFFFF" d="M46.5,15.6c-0.3,0.3-0.4,0.7-0.5,1.1c-0.1,0.4-0.3,0.8-0.3,1.3c0,0.3,0.4,0.3,0.6,0.1
		c0.2-0.3,0.2-0.7,0.3-1c0.1-0.4,0.2-0.8,0.3-1.2C46.8,15.7,46.6,15.5,46.5,15.6z"/>
</g>
<g>
	<path fill="#FFFFFF" d="M57.5,20.9c-0.3,0.1-0.2,0.5,0.1,0.5c1.4-0.2,2.6-0.2,4,0c0.2,0,0.3-0.3,0.1-0.4
		C60.4,20.8,58.9,20.5,57.5,20.9z"/>
</g>
<g>
	<path fill="#FFFFFF" d="M60,24.1c0.8-0.1,1.7,0,2.5-0.1c0.2,0,0.1-0.3,0-0.3c-0.8,0-1.6-0.1-2.4,0C59.8,23.7,59.7,24.2,60,24.1z"/>
</g>
<g>
	<path fill="#FFFFFF" d="M60.7,26.3c0.7,0.1,1.3,0.1,2,0c0.2,0,0.1-0.3,0-0.3c-0.6,0-1.3-0.1-1.9-0.2C60.5,25.8,60.4,26.3,60.7,26.3
		z"/>
</g>
<g>
	<path fill="#FFFFFF" d="M40.7,8.6c-0.1,1.9,0.3,3.9,1.5,5.5c0.2,0.3,0.8,0,0.6-0.4c-0.3-0.8-0.8-1.5-1.1-2.3
		c-0.3-0.9-0.5-1.9-0.6-2.8C41.1,8.3,40.7,8.3,40.7,8.6z"/>
</g>
<g>
	<path fill="#FFFFFF" d="M39,8.1c-0.4,2.2,0.9,5.2,2.4,6.8c0.3,0.4,0.9-0.1,0.7-0.5c-1.1-2.1-2.2-3.9-2.7-6.3C39.3,8,39,8,39,8.1z"
		/>
</g>
<g>
	<path fill="#FFFFFF" d="M42.7,9.4c0,1.1-0.1,2.2,0.1,3.3c0.1,0.4,0.7,0.3,0.7-0.1c0.1-1.1-0.1-2.2-0.4-3.3
		C43.1,9.1,42.7,9.1,42.7,9.4z"/>
</g>
<g>
	<path fill="#FFFFFF" d="M37.7,23.9c-0.2,0.1-0.2,0.4,0.1,0.4c1-0.2,2-0.6,3-0.9c0.5-0.1,0.3-0.9-0.2-0.7
		C39.6,22.9,38.7,23.6,37.7,23.9z"/>
</g>
<g>
	<path fill="#FFFFFF" d="M38.2,25.7c-0.3,0.1-0.2,0.6,0.1,0.5c0.6-0.1,1.4-0.4,1.9-0.8c0.3-0.2,0.1-0.7-0.2-0.6
		C39.3,25,38.8,25.5,38.2,25.7z"/>
</g>
<g>
	<path fill="#FFFFFF" d="M39.9,26.6c-0.3,0.2-0.7,0.5-1,0.7c-0.2,0.2,0.1,0.5,0.3,0.4c0.4-0.2,0.8-0.4,1.1-0.8
		C40.5,26.7,40.1,26.5,39.9,26.6z"/>
</g>
<g>
	<path fill="#FFFFFF" d="M44.2,21.3c-0.4-0.2-0.7-0.5-1.1-0.7c-0.2-0.1-0.4,0.2-0.3,0.4c0.3,0.3,0.6,0.6,0.9,0.9
		c0.2,0.1,0.4,0.3,0.6,0.4c-0.7,0.3-1.4,1-1.7,1.6c-0.1,0.2,0.1,0.3,0.2,0.2c0.4-0.4,0.8-0.7,1.3-0.9c0.1-0.1,0.2-0.1,0.3-0.1
		c-0.4,0.8-0.6,1.8-0.9,2.5c-0.1,0.2,0.2,0.3,0.3,0.1c0.3-0.5,0.5-1,0.7-1.6c0.2-0.5,0.6-0.8,0.9-1.3c0.9-0.4,1.9-0.5,2.9-0.9
		c0.2-0.1,0.1-0.3-0.1-0.3c-0.8,0.2-1.7,0.2-2.5,0.4c0-0.2,0.1-0.4,0.1-0.6c0.1-0.3,0.2-0.6,0.4-0.9c0.1-0.2-0.1-0.3-0.3-0.2
		c-0.4,0.3-0.8,0.9-1,1.5C44.7,21.6,44.4,21.4,44.2,21.3z"/>
</g>
<g>
	<path fill="#FFFFFF" d="M34.9,9.7c-1.7,0.2-3.4,0.9-4.5,2.3c-0.4,0.5-0.7,1.1-0.8,1.7c-5.2-1.2-12,3.2-9.5,9.1
		c1.2,2.9,4.4,4.8,7.7,5.5c-4,2.9-5.7,7.7-2.3,12.1c2.9,3.8,8.5,2.2,11-1.1c1.1,1.4,2.5,2.4,4.4,3c0.1,0,0.3,0.1,0.4,0.1
		c0.2,4.1,1.6,8,6.6,7.5c2.9-0.3,7.2-3.5,6.6-6.7c1.5,0.7,3,1.1,4.5,0.9c6-0.7,6-7.4,3.1-11.3c3.2,0,6.3-2,7.1-5.3
		c1.2-5.2-3.5-8.9-8-9.7c2.4-3.2,2.7-7.9-0.9-10.5c-3.7-2.7-9.8-0.8-12.1,3.1c0.6-5-2.2-11.5-7.8-11.1C35.1-0.4,31.6,5.6,34.9,9.7z
		 M31.4,13.3c1-1.6,3.8-2.1,5.4-1.7c2,0.5,3.3,4.1,3.7,5.8c0,0,0,0,0,0c-0.1,0.1-0.3,0.2-0.4,0.3c-0.6,0.6-1,1.4-0.9,2.3
		c-1.2,0-2.2,0.4-3.1,1.1c0-0.1-0.1-0.1-0.2-0.1C34,20.2,29.7,16,31.4,13.3z M44.7,20.6c0.3-0.9,1.7-3.5,4.5-1.7
		c0.9,0.6,1,1.7,0.7,2.6c-0.4,1.6-2.2,2.6-3.7,1.9c-0.1,0-0.1,0-0.2,0c-0.6-0.2-1.3,0.3-1.2,1c0.3,1.4-0.8,3.3-2.5,2.5
		c-1.8-0.8-1.5-3.8-0.1-4.8c0.2-0.2,0-0.5-0.2-0.6c0,0-0.1-0.1-0.1-0.1c-0.5-0.2-0.9-0.4-1.2-0.7c-0.2-0.2-0.3-0.5-0.3-0.6
		c0-0.3,0.1-0.5,0.2-0.6c0.2-0.4,0.2-0.4,0.6-0.7c0.1-0.1,0.1-0.1,0.3-0.2c0.1,0,0.3-0.2,0.3-0.2c0.1,0,0.3-0.1,0.3-0.1
		c0.1,0,0.1,0,0.2,0c0,0,0.1,0,0.1,0c0,0,0,0,0,0c0.1,0,0.1,0,0.2,0.1c-0.2-0.1,0.1,0,0.1,0.1c0,0,0,0,0,0c0,0,0,0,0,0
		c0.1,0.1,0.1,0.1,0.2,0.2c0,0,0.1,0.1,0.1,0.1c0.1,0.1,0.1,0.2,0.2,0.3c0,0,0,0.1,0,0.1C43.4,19.4,44.1,21.3,44.7,20.6z M48.9,24.6
		c0,0.1,0.1,0.1,0.1,0.2c1.2,1,2.6,1.9,2.5,3.6c-0.1,1.1-1.1,2-2.1,2.5c-1,0.6-2.2,0.8-3.3,0.5c-1.1-0.3-1.6-1.5-1.9-2.6
		c1.7-0.5,2.9-2.4,2.5-4.2C47.5,24.9,48.3,24.8,48.9,24.6z M36.2,26.8c-0.5-1-0.6-2.2,0-3.2c0.7-1.3,2.2-1.5,3.5-2.1
		c0.1,0,0.2-0.1,0.2-0.2c0.4,0.3,0.9,0.5,1.5,0.7c-0.9,0.7-1.5,1.7-1.7,2.9c-0.2,1.5,0.9,3.2,2.3,3.7c0.4,0.2,0.9,0.2,1.3,0.2
		c0,0,0,0.1,0,0.1C40.6,30.1,37.7,29.5,36.2,26.8z M44.6,18c-0.4-0.6-0.9-1-1.6-1.2c-0.1,0-0.2,0-0.3-0.1c0.2-1,0.1-1.9,0.9-2.8
		c0.6-0.7,1.6-0.9,2.5-0.9c2.3-0.1,3.5,1.7,3.2,3.9c0,0,0,0,0,0.1C47.7,16.6,45.9,17.1,44.6,18z M34.7,27.2c-3.8,0.4-8.2-0.5-11.2-3
		c-1.9-1.6-2.3-4-1.1-6.1c1.4-2.5,4.9-2.8,7.3-2.1c0,0,0,0,0,0c0.8,2.6,3.7,4.9,6,5.4c-1.4,1.4-1.9,3.6-1,5.6
		C34.7,27.1,34.7,27.2,34.7,27.2C34.8,27.3,34.7,27.2,34.7,27.2z M27.1,39.4c-1.6-1.5-2-2.9-1.3-6c0.8-3.4,4.7-4.6,4.7-4.9
		c1.5,0,3-0.2,4.3-0.7c0.1,0,0.1-0.1,0.1-0.2c0.2,0.4,0.5,0.7,0.7,1c-0.2,0.1-0.4,0.3-0.5,0.6c-1.3,3.2-0.9,6.8,0.9,9.5
		C33.5,40.9,29.8,42,27.1,39.4z M40.7,40.4c-4.4-1.4-5.2-7-3.6-10.6c0,0,0,0,0-0.1c1.8,1,4.2,1,6.2,0c0.1,2.3,2.2,3.3,4.4,3.2
		c-0.5,3.2-1.8,7.5-5.2,7.7c-0.1,0-0.3,0-0.4,0C41.6,40.7,41.2,40.6,40.7,40.4z M47.8,48.1c-3.8,0.8-4.5-2.8-4.5-5.7
		c2.8-0.5,4.6-3.5,5.1-6.4c0.6,2.5,2.5,5,4.8,6.5C53.4,45.5,50.6,47.5,47.8,48.1z M57.6,42c-4.6-0.2-7.3-5.3-8.6-9
		c0-0.1-0.1-0.2-0.2-0.2c0.4-0.1,0.9-0.2,1.3-0.5c0.4-0.2,0.8-0.4,1.2-0.7c2.1,1.2,5.2,1.4,7.5,0.4c0,0,0.1,0.1,0.1,0.1
		c0.3,0.1,0.7,0.3,1,0.4C62.9,36,62.8,42.3,57.6,42z M67.2,27.1c-0.2,3.9-4.4,4.3-7.4,4.3c0.8-0.6,1.5-1.5,1.7-2.6
		c0.7-3.1-1.3-6.3-4.2-8.1c0.6-0.2,1.1-0.5,1.7-0.9C63.3,19.1,67.4,22.7,67.2,27.1z M60.1,28.1c0.2,3.8-5.5,3.8-8.3,2.9
		c0.7-0.7,1.1-1.6,1.2-2.5c0.2-2-1.2-3.9-2.8-4.9c0.6-0.6,1-1.4,1.2-2.2C55.4,20.1,59.9,24.2,60.1,28.1z M58.1,8.4
		c2.7,0.8,3.4,4.1,2.7,6.5c-1,3.2-3.7,4.7-4.4,5.3c-1.6-0.8-3.3-1.2-4.9-0.9c-0.1-0.2-0.1-0.5-0.3-0.7c-0.3-0.6-0.8-1-1.3-1.3
		c0,0,0,0,0,0c0.8-1.7,0.5-3.3-0.5-4.4c0-0.1,0.1-0.2,0.1-0.3C50.5,9.2,54.9,7.4,58.1,8.4z M40.6,1.3c4.7-0.2,5.5,6.8,4.6,10.1
		c0,0,0,0,0,0c-1.6,0.3-3.2,1.4-3.9,2.8c-0.7-1.8-1.8-3.5-3.6-4.2c-0.6-0.2-1.2-0.3-1.9-0.4C35.8,9.6,32.8,1.7,40.6,1.3z"/>
</g>
</svg>
