<?xml version="1.0" encoding="utf-8"?>
<!-- Generator: Adobe Illustrator 16.0.0, SVG Export Plug-In . SVG Version: 6.00 Build 0)  -->
<!DOCTYPE svg PUBLIC "-//W3C//DTD SVG 1.1//EN" "http://www.w3.org/Graphics/SVG/1.1/DTD/svg11.dtd">
<svg version="1.1" id="Layer_1" xmlns="http://www.w3.org/2000/svg" xmlns:xlink="http://www.w3.org/1999/xlink" x="0px" y="0px" viewBox="0 0 77.7 227.2" xml:space="preserve">
<g>
	<path fill="#774F38" d="M33.2,170.7l-27.9-3.3c-0.3,0-0.6-0.3-0.5-0.7c0-0.3,0.3-0.6,0.7-0.5l27.8,3.3l41.7-1.9
		c0.3,0,0.6,0.2,0.6,0.6c0,0.3-0.2,0.6-0.6,0.6L33.2,170.7z"/>
</g>
<g>
	<path fill="#774F38" d="M40.3,225.4c-0.3,0-0.6-0.2-0.6-0.5L34,170.1c0,0,0-0.1,0-0.1l6.4-64.6c0-0.3,0.3-0.6,0.7-0.5
		c0.3,0,0.6,0.3,0.5,0.7l-6.4,64.6l5.6,54.7C40.9,225.1,40.7,225.4,40.3,225.4C40.3,225.4,40.3,225.4,40.3,225.4z"/>
</g>
<g>
	<path fill="#D6D9BA" d="M55.5,178.4c0.7,1.4,3.3,4,5.4,3.5c2.1-0.5,4-4.9,4.2-6.3c2.3,1.3,5.8,2.9,7.6-0.5c1.8-3.3,0.4-7.6-1.1-9
		c3.9-1.6,5.4-2.9,5.1-5.8s-4.9-6.2-9.1-4.9c2.9-3.4,4-9.4,1.3-10.9s-6.8-1.4-7.8,4.4c-2.8-1.9-4.7-1.8-5.6,0
		c-3-3.4-6.8-4.5-8.7-1.2s0.6,7.6,1.7,9.2c-4.4-0.5-8.3,1.9-8.3,5.8c0.1,3.9,3.4,4.5,6.9,4.6c-0.4,2.1,1.1,4.2,1.8,4.5
		c-1,0.9-4,4.4-1.1,7.1C50.7,181.8,53.2,180.5,55.5,178.4z"/>
</g>
<g>
	<path fill="#FFFFFF" d="M59.8,152.9c-0.2,1.2-0.2,2.3-0.9,3.4c0,0,0,0.1,0,0.1c0-0.1-0.1-0.1-0.1-0.2c0.1,0,0.2,0,0.2-0.1
		c0.3-1,0.1-2.1-0.3-3c-0.1-0.2-0.3-0.1-0.3,0.1c0.1,0.9,0.3,1.8,0.1,2.8c-0.6-0.9-1-1.9-1.2-3.1c0-0.1-0.2-0.2-0.3,0
		c-0.2,1.4,0.4,3.1,1.4,4c0.2,0.1,0.4,0,0.4-0.2c0.1,0.1,0.3,0.1,0.4,0c1-0.9,1-2.6,0.7-3.7C60,152.8,59.8,152.8,59.8,152.9z"/>
</g>
<g>
	<path fill="#FFFFFF" d="M50.3,156.1c0.5,0.7,1.1,1.5,2,1.8c0.2,0.1,0.4-0.3,0.1-0.4c-0.8-0.4-1.4-1-1.9-1.6
		C50.4,155.7,50.2,155.9,50.3,156.1z"/>
</g>
<g>
	<path fill="#FFFFFF" d="M50.8,154.1c0.8,1.2,1.8,2.2,3.2,2.6c0.2,0.1,0.4-0.3,0.1-0.4c-1.3-0.5-2.2-1.3-3.1-2.4
		C50.9,153.8,50.7,154,50.8,154.1z"/>
</g>
<g>
	<path fill="#FFFFFF" d="M51.9,152.9c0.9,1.1,1.9,2,2.7,3.2c0.2,0.3,0.5,0,0.4-0.3c-0.6-1.3-1.8-2.3-2.9-3.1
		C51.9,152.5,51.8,152.7,51.9,152.9z"/>
</g>
<g>
	<path fill="#FFFFFF" d="M47.7,163.8c-0.7,0.2-1.4,0.4-2.1,0.2c-0.2,0-0.3,0.2-0.1,0.3c0.7,0.3,1.6,0.2,2.4-0.1
		C48.1,164.1,48,163.7,47.7,163.8z"/>
</g>
<g>
	<path fill="#FFFFFF" d="M50.8,161.3c-1.8-0.3-3.5,0.1-5.2,0.6c-0.2,0.1-0.1,0.4,0.1,0.3c1.7-0.4,3.3-0.4,5-0.2
		C51.1,162,51.3,161.4,50.8,161.3z"/>
</g>
<g>
	<path fill="#FFFFFF" d="M46,159.9c-0.1,0.1,0,0.3,0.1,0.2c1.8-0.6,3.2-0.1,4.9,0.2c0.4,0.1,0.6-0.5,0.2-0.7
		C49.5,159.1,47.6,159,46,159.9z"/>
</g>
<g>
	<path fill="#FFFFFF" d="M53.3,171.4c-0.6,1.2-1.1,2.4-2.4,3c-0.1,0.1-0.1,0.3,0.1,0.2c1.3-0.5,2.5-1.7,2.9-3.1
		C53.9,171.3,53.4,171.1,53.3,171.4z"/>
</g>
<g>
	<path fill="#FFFFFF" d="M54.5,171.9c-0.7,1.3-1.4,2.5-2.4,3.6c-0.1,0.1,0.1,0.3,0.2,0.2c1.1-1,2.3-2.1,2.8-3.6
		C55.1,171.7,54.6,171.6,54.5,171.9z"/>
</g>
<g>
	<path fill="#FFFFFF" d="M54.4,174.1c-0.4,0.8-0.8,1.4-1.5,2c-0.1,0.1,0,0.3,0.1,0.2c0.8-0.4,1.5-1.1,1.8-2
		C54.9,174,54.6,173.8,54.4,174.1z"/>
</g>
<g>
	<path fill="#FFFFFF" d="M55.2,164.7c-1.4,0.2-2.7,1-4.1,1.5c-0.1,0-0.1,0.3,0.1,0.3c1.4-0.3,2.6-0.9,4-1.2c0,0,0,0,0,0
		c-1,1-2.4,1.5-3.5,2.3c-0.1,0.1,0,0.3,0.1,0.2c1.2-0.7,2.7-1.1,3.7-2.2c0.2-0.2,0-0.4-0.2-0.4C55.6,165.1,55.5,164.7,55.2,164.7z"
		/>
</g>
<g>
	<path fill="#FFFFFF" d="M50.7,164.2c-0.2,0.1-0.1,0.3,0.1,0.3c0.5-0.2,0.9-0.2,1.4-0.2c0.5,0,1.1,0.2,1.6,0.2
		c0.3,0,0.4-0.4,0.2-0.5C53,163.5,51.6,163.7,50.7,164.2z"/>
</g>
<g>
	<path fill="#FFFFFF" d="M54.7,167c0,0.9-0.3,1.6-0.9,2.3c-0.1,0.1,0.1,0.3,0.2,0.2c0.7-0.7,1.4-1.5,1.2-2.6
		C55.2,166.6,54.7,166.7,54.7,167z"/>
</g>
<g>
	<path fill="#FFFFFF" d="M57.3,169.4c-0.3,0.6-0.1,1.5,0,2.2c0.1,0.6,0.3,1.2,0.4,1.8c0,0.2,0.2,0.1,0.2,0c0-1.3-0.3-2.5-0.1-3.7
		C57.9,169.2,57.5,169.1,57.3,169.4z"/>
</g>
<g>
	<path fill="#FFFFFF" d="M58.3,170c0,1.3,0.3,2.6,0.7,3.8c0.1,0.2,0.3,0.1,0.2-0.1c-0.3-1.2-0.4-2.4-0.4-3.7
		C58.8,169.6,58.3,169.6,58.3,170z"/>
</g>
<g>
	<path fill="#FFFFFF" d="M60.1,171.3c-0.1,0.7,0.1,1.5,0.2,2.2c0,0.2,0.3,0.1,0.3,0c0-0.3,0-0.7,0-1c0-0.4,0.1-0.8,0.1-1.1
		C60.6,171,60.1,170.9,60.1,171.3z"/>
</g>
<g>
	<path fill="#FFFFFF" d="M58.1,164.1c-0.5,0.9-0.4,2.2-0.6,3.2c0,0.2,0.2,0.3,0.3,0.1c0.2-0.5,0.3-0.9,0.4-1.4
		c0.1-0.6,0.4-1.1,0.5-1.7C58.8,163.9,58.3,163.8,58.1,164.1z"/>
</g>
<g>
	<path fill="#FFFFFF" d="M59.2,163.7c0,1,0,2,0,3c0,0.2,0.2,0.2,0.2,0c0.3-1,0.4-2.1,0.4-3.1C59.7,163.3,59.2,163.3,59.2,163.7z"/>
</g>
<g>
	<path fill="#FFFFFF" d="M60.3,163.7c0.2,0.8,0.6,1.6,0.4,2.4c0,0.2,0.2,0.2,0.3,0.1c0.3-0.8,0.2-1.9-0.1-2.7
		C60.7,163.2,60.3,163.3,60.3,163.7z"/>
</g>
<g>
	<path fill="#FFFFFF" d="M61.5,168.4c0.2,0.4,0.5,0.7,0.7,1.1c0.3,0.4,0.5,0.8,0.7,1.3c0.1,0.2,0.3,0.1,0.3-0.1
		c-0.1-0.5-0.3-0.9-0.5-1.3c-0.2-0.4-0.4-0.9-0.8-1.2C61.7,167.9,61.4,168.2,61.5,168.4z"/>
</g>
<g>
	<path fill="#FFFFFF" d="M62.2,167c0.3,0.5,0.7,0.9,1,1.4c0.3,0.5,0.6,1.1,0.8,1.7c0.1,0.2,0.3,0.1,0.2-0.1
		c-0.3-1.2-0.8-2.5-1.7-3.3C62.4,166.4,62.1,166.7,62.2,167z"/>
</g>
<g>
	<path fill="#FFFFFF" d="M62.3,165.1c1.4,0.9,2.2,2,3.1,3.4c0.1,0.1,0.3,0,0.2-0.1c-0.7-1.5-1.5-3.2-3.1-3.8
		C62.2,164.5,62,164.9,62.3,165.1z"/>
</g>
<g>
	<path fill="#FFFFFF" d="M65.2,160.8c-0.3-0.2-0.5,0.3-0.2,0.5c1.4,0.9,3.4,0.5,5,0.4c0.2,0,0.2-0.3,0-0.3
		C68.3,161.2,66.7,161.5,65.2,160.8z"/>
</g>
<g>
	<path fill="#FFFFFF" d="M71.4,163.8c-1.5,0.2-2.8,0.3-4.2-0.4c-0.3-0.1-0.5,0.3-0.2,0.4c1.4,0.9,3,0.7,4.5,0.2
		C71.6,164.1,71.6,163.8,71.4,163.8z"/>
</g>
<g>
	<path fill="#FFFFFF" d="M66.7,158.9c-0.3,0-0.4,0.5,0,0.6c1,0.1,1.9,0.1,2.9,0.3c0.8,0.1,1.5,0.2,2.3,0.1c0.1,0,0.2-0.3,0-0.3
		C70.2,159.5,68.4,158.6,66.7,158.9z"/>
</g>
<g>
	<path fill="#FFFFFF" d="M67.5,157.5c-0.3,0-0.3,0.5,0,0.5c1.1,0.1,2.3-0.1,3.4-0.1c0.2,0,0.2-0.3,0-0.3
		C69.8,157.4,68.6,157.3,67.5,157.5z"/>
</g>
<g>
	<path fill="#FFFFFF" d="M64.3,156.3c-1,0-2.4,1.2-2.6,2.2c-0.1,0.3,0.4,0.6,0.6,0.3c0.3-0.4,0.5-0.8,0.8-1.2c0.4-0.4,0.9-0.7,1.3-1
		C64.5,156.5,64.4,156.3,64.3,156.3z"/>
</g>
<g>
	<path fill="#FFFFFF" d="M64.6,157.6c-0.3,0.1-0.6,0.2-0.9,0.4c-0.3,0.2-0.6,0.4-0.8,0.7c-0.1,0.2,0.1,0.4,0.3,0.4
		c0.3-0.1,0.5-0.3,0.7-0.5c0.3-0.2,0.5-0.4,0.8-0.6C64.8,157.8,64.8,157.6,64.6,157.6z"/>
</g>
<g>
	<path fill="#FFFFFF" d="M68.5,166.6c-0.2-0.1-0.4,0.2-0.2,0.4c0.9,0.6,1.7,1.2,2.4,2c0.1,0.1,0.3-0.1,0.2-0.2
		C70.3,167.9,69.6,167,68.5,166.6z"/>
</g>
<g>
	<path fill="#FFFFFF" d="M68.4,169.8c0.5,0.4,1,0.9,1.5,1.2c0.1,0.1,0.3-0.1,0.1-0.2c-0.5-0.4-0.9-0.9-1.4-1.3
		C68.4,169.4,68.2,169.7,68.4,169.8z"/>
</g>
<g>
	<path fill="#FFFFFF" d="M67.7,171.6c0.3,0.4,0.7,0.8,1.2,1c0.1,0.1,0.3-0.1,0.2-0.2c-0.4-0.3-0.7-0.7-1-1.1
		C67.9,171.1,67.6,171.4,67.7,171.6z"/>
</g>
<g>
	<path fill="#FFFFFF" d="M64.7,150.2c-1,1.2-1.8,2.6-1.9,4.2c0,0.3,0.5,0.4,0.6,0.1c0.2-0.7,0.3-1.4,0.6-2c0.3-0.7,0.6-1.4,1.1-2.1
		C65.1,150.2,64.9,150.1,64.7,150.2z"/>
</g>
<g>
	<path fill="#FFFFFF" d="M63.9,149.1c-1.4,1.2-2.1,3.8-2,5.5c0,0.4,0.6,0.4,0.7,0c0.5-1.9,0.7-3.6,1.6-5.4
		C64.2,149.2,64.1,149,63.9,149.1z"/>
</g>
<g>
	<path fill="#FFFFFF" d="M65.6,151.8c-0.5,0.7-1.2,1.4-1.6,2.1c-0.2,0.3,0.2,0.5,0.5,0.3c0.6-0.6,1.1-1.5,1.4-2.3
		C65.9,151.8,65.7,151.6,65.6,151.8z"/>
</g>
<g>
	<path fill="#FFFFFF" d="M55.1,158.4c-0.2-0.1-0.3,0.2-0.1,0.3c0.7,0.4,1.5,0.6,2.3,1c0.3,0.2,0.6-0.4,0.3-0.6
		C56.8,158.8,55.9,158.7,55.1,158.4z"/>
</g>
<g>
	<path fill="#FFFFFF" d="M54.5,159.8c-0.2-0.1-0.4,0.2-0.2,0.4c0.4,0.2,1,0.4,1.5,0.5c0.3,0,0.4-0.3,0.2-0.5
		C55.5,159.9,54.9,160,54.5,159.8z"/>
</g>
<g>
	<path fill="#FFFFFF" d="M55,161.2c-0.3,0-0.6,0-1,0c-0.2,0-0.2,0.3,0,0.4c0.3,0.1,0.7,0.2,1.1,0.1C55.4,161.6,55.2,161.2,55,161.2z
		"/>
</g>
<g>
	<path fill="#FFFFFF" d="M60.3,160c-0.1-0.3-0.2-0.7-0.3-1c-0.1-0.2-0.3-0.1-0.3,0.1c0,0.3,0,0.7,0.1,1c0,0.2,0.1,0.4,0.1,0.6
		c-0.6-0.1-1.3-0.1-1.8,0.1c-0.1,0-0.1,0.2,0,0.2c0.4,0,0.8,0,1.2,0.1c0.1,0,0.2,0,0.3,0.1c-0.7,0.3-1.3,0.8-1.8,1.2
		c-0.1,0.1,0,0.3,0.1,0.2c0.4-0.2,0.8-0.4,1.2-0.6c0.4-0.2,0.8-0.2,1.2-0.4c0.8,0.2,1.4,0.7,2.2,0.9c0.1,0,0.2-0.2,0.1-0.2
		c-0.6-0.3-1.1-0.7-1.7-1c0.1-0.1,0.2-0.2,0.4-0.3c0.2-0.2,0.4-0.3,0.7-0.3c0.2-0.1,0.1-0.3-0.1-0.3c-0.4,0-1,0.2-1.3,0.5
		C60.5,160.5,60.4,160.2,60.3,160z"/>
</g>
<g>
	<path fill="#FFFFFF" d="M61.1,147c-1.1-0.8-2.5-1.1-3.9-0.8c-0.5,0.1-1,0.3-1.3,0.6c-2.5-3.4-8.8-4-10.4,0.9
		c-0.8,2.5,0.2,5.2,1.8,7.4c-3.9-0.2-7.4,2-7.6,6.5c-0.2,3.9,4,5.7,7.2,4.9c0,1.4,0.3,2.8,1.1,4.1c0.1,0.1,0.1,0.2,0.2,0.2
		c-2,2.7-3.2,5.9,0.1,8c1.9,1.3,6.1,1.4,7.4-0.9c0.5,1.2,1.3,2.2,2.3,2.9c3.9,2.6,7.4-1.7,7.6-5.6c1.9,1.6,4.8,1.9,7,0.2
		c3.4-2.7,2.5-7.4,0.1-10.2c3.1-0.8,5.6-3.6,4.8-7.1c-0.8-3.6-5.5-5.4-8.8-4.1c2.9-2.9,4.6-8.4,1-11C66.4,140.7,61.2,142.7,61.1,147
		z M57.2,147.5c1.4-0.5,3.3,0.6,4.1,1.7c0.9,1.3-0.1,4.2-0.7,5.6c0,0,0,0,0,0c-0.1,0-0.3,0-0.4,0c-0.7,0.1-1.3,0.4-1.7,1
		c-0.7-0.6-1.6-0.9-2.4-0.9c0,0,0-0.1,0-0.2C55.2,153.2,54.7,148.4,57.2,147.5z M61.4,158.9c0.6-0.4,2.8-1.4,3.6,1.2
		c0.2,0.8-0.3,1.6-0.9,2c-1.1,0.8-2.6,0.6-3.2-0.7c0,0-0.1-0.1-0.1-0.1c-0.2-0.4-1-0.4-1.2,0.1c-0.5,1.1-2.2,1.6-2.8,0.4
		c-0.7-1.5,1-3.1,2.4-3.1c0.2,0,0.3-0.3,0.2-0.5c0,0,0-0.1,0-0.1c-0.2-0.3-0.3-0.7-0.4-1.1c0-0.2,0.1-0.5,0.2-0.5
		c0.1-0.2,0.3-0.3,0.4-0.3c0.3-0.1,0.4-0.1,0.7-0.2c0.1,0,0.1,0,0.3,0c0.1,0,0.3,0.1,0.3,0.1c0.1,0,0.2,0.1,0.2,0.1
		c0,0,0.1,0.1,0.1,0.1c0,0,0,0,0,0c0,0,0,0,0,0c0,0,0.1,0.1,0.1,0.1c-0.1-0.1,0,0.1,0,0.1c0,0,0,0,0,0c0,0,0,0,0,0
		c0,0.1,0,0.1,0,0.2c0,0,0,0.1,0,0.1c0,0.1,0,0.2-0.1,0.3c0,0,0,0,0,0.1C61.2,157.4,60.7,159,61.4,158.9z M61.9,163.5
		c0,0.1,0,0.1,0,0.2c0.2,1.2,0.6,2.5-0.4,3.5c-0.6,0.7-1.7,0.7-2.5,0.6c-0.9-0.1-1.8-0.6-2.3-1.4c-0.5-0.8-0.2-1.8,0.2-2.6
		c1.3,0.5,3,0,3.7-1.4C60.9,163,61.4,163.3,61.9,163.5z M53.2,158.5c0.2-0.9,0.8-1.7,1.6-2c1.1-0.5,2.1,0.2,3.1,0.4
		c0.1,0,0.1,0,0.2,0c0.1,0.4,0.3,0.8,0.5,1.2c-0.9,0-1.8,0.3-2.5,1c-0.9,0.8-1.1,2.5-0.5,3.5c0.2,0.3,0.4,0.6,0.7,0.8
		c0,0-0.1,0-0.1,0.1C54.1,162.8,52.6,160.9,53.2,158.5z M62.7,157.2c0.1-0.6,0-1.1-0.3-1.6c-0.1-0.1-0.1-0.1-0.2-0.2
		c0.7-0.5,1.1-1.2,2-1.3c0.7-0.1,1.4,0.2,2,0.6c1.4,1.1,1.2,2.9-0.1,4.1c0,0,0,0,0,0C65.3,157.8,63.9,157.2,62.7,157.2z M52,158
		c-2.5-1.7-4.7-4.5-5.2-7.5c-0.3-2,0.6-3.7,2.5-4.5c2.1-0.9,4.3,0.7,5.5,2.4c0,0,0,0,0,0c-0.8,2-0.3,4.9,0.8,6.5
		c-1.5,0.2-3,1.4-3.5,3C52.1,157.9,52.1,158,52,158C52,158,52,158,52,158z M41.2,161.9c-0.2-1.7,0.2-2.8,2.3-4.5
		c2.2-1.8,5.1-0.5,5.3-0.7c0.9,0.8,1.9,1.4,3,1.7c0.1,0,0.1,0,0.2,0c-0.1,0.4-0.1,0.7-0.1,1c-0.2-0.1-0.4,0-0.6,0.1
		c-2.4,1.4-4.1,3.9-4.3,6.5C44.3,166,41.5,164.9,41.2,161.9z M48.8,169.4c-2-3.1,0.4-7,3.3-8.6c0,0,0,0,0,0c0.6,1.6,2,2.8,3.7,3.2
		c-1.1,1.5-0.4,3.2,1,4.2c-1.9,1.8-4.9,3.9-7.1,2.3c-0.1-0.1-0.2-0.2-0.3-0.2C49.3,170,49,169.7,48.8,169.4z M49.2,177.8
		c-2.7-1.4-1.2-4.1,0.2-5.9c1.9,1,4.5,0.1,6.3-1.5c-0.9,1.9-1,4.4-0.4,6.5C53.9,179,51.2,178.9,49.2,177.8z M58.2,178.9
		c-2.7-2.5-1.7-7-0.6-10.1c0-0.1,0-0.2,0-0.2c0.3,0.2,0.7,0.3,1,0.4c0.3,0.1,0.7,0.1,1.1,0.1c0.6,1.8,2.4,3.5,4.3,4c0,0,0,0.1,0,0.1
		c0.1,0.3,0.3,0.5,0.4,0.8C64.5,177.7,61.2,181.7,58.2,178.9z M71.6,174.3c-2.1,2.3-4.8,0.5-6.6-1c0.8,0,1.6-0.2,2.4-0.8
		c2-1.6,2.4-4.7,1.6-7.2c0.5,0.2,1,0.2,1.5,0.3C73.4,167.3,74,171.6,71.6,174.3z M66.8,171.4c-1.8,2.5-5.2-0.4-6.4-2.4
		c0.7-0.1,1.5-0.4,2-1c1.2-1.1,1.3-3.1,0.8-4.5c0.6-0.1,1.3-0.4,1.8-0.8C68.1,164,68.7,168.8,66.8,171.4z M75.7,157.9
		c1.2,1.9-0.1,4.3-1.7,5.4c-2.2,1.5-4.6,1.1-5.3,1.1c-0.5-1.3-1.4-2.4-2.5-3c0.1-0.2,0.1-0.4,0.2-0.6c0.1-0.6,0.1-1.1-0.1-1.5
		c0,0,0,0,0,0c1.4-0.7,2-1.8,1.9-3.1c0.1,0,0.1-0.1,0.2-0.1C70.7,154.6,74.3,155.6,75.7,157.9z M68.8,144.6c2.9,2.2-0.2,7.1-2.4,8.7
		c0,0,0,0,0,0c-1.1-0.6-2.6-0.7-3.8-0.2c0.5-1.5,0.7-3.1,0-4.5c-0.2-0.4-0.6-0.8-1-1.2C61.7,147.4,63.9,140.9,68.8,144.6z"/>
</g>
<g>
	<path fill="#CDC866" d="M31.2,191.6c-1.1,0.5-3.5,2.5-3.4,4.2s3.3,3.6,4.3,3.8c-1.3,1.8-3,4.6-0.7,6.2s5.8,0.7,7.1-0.4
		c0.7,3.3,1.5,4.6,3.8,4.5c2.3-0.1,5.5-3.7,5-7.3c2.2,2.6,6.7,3.8,8.2,1.6c1.5-2.2,2-5.6-2.4-6.6c1.8-2.2,2.1-3.8,0.8-4.6
		c3-2.3,4.4-5.4,2.1-7.1c-2.2-1.7-5.9,0.1-7.3,0.9c1-3.6-0.3-7-3.4-7.1c-3-0.1-3.9,2.6-4.5,5.4c-1.5-0.4-3.4,0.7-3.8,1.3
		c-0.6-0.9-2.9-3.5-5.4-1.2S29.8,189.6,31.2,191.6z"/>
</g>
<g>
	<path fill="#FFFFFF" d="M50.2,196.4c-0.9-0.2-1.7-0.3-2.5-0.9c0,0-0.1,0-0.1,0c0,0,0.1-0.1,0.1-0.1c0,0.1,0,0.2,0.1,0.2
		c0.7,0.3,1.6,0.2,2.4-0.1c0.1,0,0.1-0.3,0-0.3c-0.7,0.1-1.4,0.1-2.1,0c0.8-0.5,1.6-0.7,2.6-0.8c0.1,0,0.2-0.2,0-0.2
		c-1-0.3-2.5,0.2-3.2,1c-0.1,0.1,0,0.3,0.1,0.3c-0.1,0.1-0.1,0.2-0.1,0.4c0.6,0.8,1.8,0.9,2.8,0.8C50.3,196.6,50.3,196.5,50.2,196.4
		z"/>
</g>
<g>
	<path fill="#FFFFFF" d="M49.1,188.5c-0.6,0.4-1.3,0.9-1.6,1.6c-0.1,0.2,0.2,0.3,0.3,0.1c0.4-0.6,0.9-1.1,1.5-1.5
		C49.3,188.6,49.2,188.4,49.1,188.5z"/>
</g>
<g>
	<path fill="#FFFFFF" d="M50.5,189c-1,0.6-2,1.4-2.5,2.5c-0.1,0.2,0.2,0.3,0.3,0.1c0.6-1,1.3-1.8,2.3-2.4
		C50.7,189.1,50.6,188.9,50.5,189z"/>
</g>
<g>
	<path fill="#FFFFFF" d="M51.3,190c-0.9,0.7-1.8,1.5-2.8,2c-0.2,0.1-0.1,0.4,0.2,0.3c1.1-0.5,2-1.4,2.8-2.2
		C51.6,190,51.5,189.9,51.3,190z"/>
</g>
<g>
	<path fill="#FFFFFF" d="M43.5,186c0-0.6-0.1-1.2,0.1-1.8c0.1-0.1-0.1-0.2-0.2-0.1c-0.3,0.6-0.4,1.3-0.2,1.9
		C43.2,186.2,43.5,186.2,43.5,186z"/>
</g>
<g>
	<path fill="#FFFFFF" d="M45,188.6c0.5-1.4,0.4-2.9,0.2-4.3c0-0.1-0.3-0.1-0.3,0c0.1,1.4-0.1,2.7-0.5,4.1
		C44.4,188.9,44.9,189,45,188.6z"/>
</g>
<g>
	<path fill="#FFFFFF" d="M46.7,184.7c0-0.1-0.2,0-0.2,0.1c0.3,1.5-0.3,2.6-0.8,4c-0.1,0.3,0.3,0.5,0.5,0.2
		C46.8,187.7,47.2,186.1,46.7,184.7z"/>
</g>
<g>
	<path fill="#FFFFFF" d="M36.8,190.2c-0.9-0.5-1.7-1.1-2-2.1c0-0.1-0.2-0.1-0.2,0.1c0.2,1.1,1,2.2,2,2.5
		C36.9,190.7,37.1,190.3,36.8,190.2z"/>
</g>
<g>
	<path fill="#FFFFFF" d="M36.3,191.1c-0.9-0.7-1.7-1.3-2.4-2.2c-0.1-0.1-0.2,0-0.2,0.1c0.6,1,1.3,2,2.4,2.5
		C36.4,191.6,36.5,191.2,36.3,191.1z"/>
</g>
<g>
	<path fill="#FFFFFF" d="M34.6,190.9c-0.6-0.3-1-0.7-1.3-1.3c-0.1-0.1-0.2,0-0.2,0.1c0.2,0.6,0.7,1.3,1.3,1.6
		C34.6,191.4,34.8,191.1,34.6,190.9z"/>
</g>
<g>
	<path fill="#FFFFFF" d="M41.8,192.1c0-1.2-0.4-2.3-0.6-3.4c0-0.1-0.2-0.1-0.2,0c0.1,1.1,0.3,2.2,0.3,3.4c0,0,0,0,0,0
		c-0.6-0.9-0.8-2-1.3-3c-0.1-0.1-0.2,0-0.2,0.1c0.4,1.1,0.5,2.3,1.2,3.2c0.1,0.2,0.3,0,0.4-0.2C41.4,192.4,41.7,192.3,41.8,192.1z"
		/>
</g>
<g>
	<path fill="#FFFFFF" d="M42.7,188.4c0-0.1-0.3-0.1-0.2,0.1c0.1,0.4,0,0.8,0,1.2c-0.1,0.5-0.3,0.9-0.4,1.3c-0.1,0.2,0.2,0.4,0.3,0.2
		C43,190.3,43,189.2,42.7,188.4z"/>
</g>
<g>
	<path fill="#FFFFFF" d="M40,191.5c-0.7,0-1.2-0.4-1.7-0.9c-0.1-0.1-0.2,0-0.2,0.1c0.4,0.6,1,1.2,1.8,1.2
		C40.3,191.9,40.3,191.5,40,191.5z"/>
</g>
<g>
	<path fill="#FFFFFF" d="M37.9,193.6c-0.4-0.3-1.2-0.2-1.7-0.1c-0.5,0-1,0.2-1.4,0.2c-0.1,0-0.1,0.2,0,0.2c1,0.1,1.9-0.1,2.9,0.1
		C37.9,194.1,38.1,193.7,37.9,193.6z"/>
</g>
<g>
	<path fill="#FFFFFF" d="M37.3,194.3c-1-0.1-2,0.1-3,0.4c-0.1,0-0.1,0.2,0,0.2c1-0.2,1.9-0.2,2.9-0.2
		C37.5,194.8,37.5,194.3,37.3,194.3z"/>
</g>
<g>
	<path fill="#FFFFFF" d="M36,195.7c-0.5-0.1-1.2,0-1.7,0c-0.1,0-0.1,0.2,0,0.2c0.3,0,0.5,0,0.8,0.1c0.3,0,0.6,0.1,0.9,0.1
		C36.2,196.2,36.3,195.8,36,195.7z"/>
</g>
<g>
	<path fill="#FFFFFF" d="M41.8,194.5c-0.6-0.5-1.6-0.5-2.4-0.6c-0.1,0-0.2,0.2-0.1,0.2c0.3,0.2,0.7,0.3,1,0.4
		c0.4,0.1,0.8,0.4,1.3,0.5C41.8,195,42,194.7,41.8,194.5z"/>
</g>
<g>
	<path fill="#FFFFFF" d="M42,195.4c-0.8-0.1-1.5-0.1-2.3-0.2c-0.1,0-0.2,0.1-0.1,0.2c0.7,0.3,1.6,0.4,2.4,0.5
		C42.2,195.9,42.3,195.4,42,195.4z"/>
</g>
<g>
	<path fill="#FFFFFF" d="M41.8,196.4c-0.7,0.1-1.3,0.4-1.9,0.2c-0.1,0-0.2,0.2-0.1,0.2c0.6,0.3,1.5,0.3,2.1,0
		C42.2,196.7,42.1,196.3,41.8,196.4z"/>
</g>
<g>
	<path fill="#FFFFFF" d="M38,197.1c-0.3,0.1-0.6,0.4-0.9,0.5c-0.3,0.2-0.7,0.4-1.1,0.5c-0.1,0-0.1,0.2,0,0.2
		c0.4-0.1,0.7-0.2,1.1-0.4c0.3-0.2,0.8-0.3,1-0.6C38.4,197.3,38.2,197,38,197.1z"/>
</g>
<g>
	<path fill="#FFFFFF" d="M39,197.8c-0.4,0.2-0.8,0.5-1.2,0.8c-0.4,0.2-0.9,0.4-1.4,0.6c-0.1,0-0.1,0.2,0,0.2c0.9-0.2,2-0.5,2.8-1.2
		C39.4,197.9,39.2,197.6,39,197.8z"/>
</g>
<g>
	<path fill="#FFFFFF" d="M40.5,197.9c-0.9,1.1-1.9,1.7-3.1,2.4c-0.1,0.1,0,0.2,0.1,0.2c1.2-0.5,2.7-1.1,3.4-2.3
		C41,197.9,40.6,197.7,40.5,197.9z"/>
</g>
<g>
	<path fill="#FFFFFF" d="M43.4,200.5c0.2-0.3-0.2-0.4-0.4-0.2c-0.9,1.1-0.8,2.8-1,4.1c0,0.1,0.2,0.2,0.2,0
		C42.7,203,42.7,201.7,43.4,200.5z"/>
</g>
<g>
	<path fill="#FFFFFF" d="M40.2,205.5c0.1-1.3,0.2-2.3,0.9-3.5c0.1-0.2-0.2-0.4-0.3-0.2c-0.9,1.1-0.9,2.4-0.8,3.7
		C40,205.6,40.2,205.6,40.2,205.5z"/>
</g>
<g>
	<path fill="#FFFFFF" d="M44.7,201.8c0-0.2-0.4-0.3-0.4-0.1c-0.2,0.8-0.4,1.6-0.6,2.4c-0.2,0.6-0.4,1.2-0.4,1.9c0,0.1,0.2,0.2,0.2,0
		C43.7,204.7,44.7,203.3,44.7,201.8z"/>
</g>
<g>
	<path fill="#FFFFFF" d="M45.7,202.6c0-0.2-0.3-0.3-0.4-0.1c-0.2,0.9-0.2,1.9-0.4,2.8c0,0.1,0.2,0.2,0.2,0
		C45.4,204.5,45.7,203.5,45.7,202.6z"/>
</g>
<g>
	<path fill="#FFFFFF" d="M47,200c0.1-0.8-0.6-2-1.3-2.2c-0.2-0.1-0.5,0.3-0.3,0.5c0.3,0.2,0.6,0.4,0.8,0.7c0.3,0.3,0.4,0.8,0.6,1.1
		C46.8,200.1,47,200.1,47,200z"/>
</g>
<g>
	<path fill="#FFFFFF" d="M45.9,200.2c0-0.3-0.1-0.5-0.2-0.7c-0.1-0.3-0.2-0.5-0.4-0.7c-0.1-0.1-0.3,0.1-0.3,0.2
		c0,0.2,0.2,0.4,0.3,0.6c0.1,0.2,0.2,0.5,0.4,0.7C45.8,200.4,45.9,200.3,45.9,200.2z"/>
</g>
<g>
	<path fill="#FFFFFF" d="M38.5,203c0.1-0.2-0.1-0.3-0.3-0.2c-0.6,0.7-1.2,1.3-1.9,1.9c-0.1,0.1,0,0.3,0.1,0.2
		C37.2,204.4,38.1,203.8,38.5,203z"/>
</g>
<g>
	<path fill="#FFFFFF" d="M36,202.7c-0.4,0.4-0.8,0.8-1.1,1.2c-0.1,0.1,0.1,0.2,0.2,0.1c0.4-0.4,0.8-0.7,1.2-1.1
		C36.3,202.7,36.1,202.5,36,202.7z"/>
</g>
<g>
	<path fill="#FFFFFF" d="M34.8,202c-0.4,0.3-0.7,0.6-1,0.9c-0.1,0.1,0.1,0.2,0.2,0.1c0.3-0.3,0.6-0.5,1-0.8
		C35.1,202.2,34.9,201.9,34.8,202z"/>
</g>
<g>
	<path fill="#FFFFFF" d="M51.6,200.7c-0.8-0.9-1.8-1.6-3-1.8c-0.2,0-0.4,0.4-0.2,0.5c0.5,0.2,1,0.3,1.5,0.6c0.5,0.3,1,0.6,1.5,1
		C51.5,201,51.7,200.8,51.6,200.7z"/>
</g>
<g>
	<path fill="#FFFFFF" d="M52.6,200.1c-0.7-1.2-2.6-1.9-4-2c-0.3,0-0.4,0.5-0.1,0.6c1.4,0.5,2.7,0.7,3.9,1.6
		C52.5,200.3,52.7,200.2,52.6,200.1z"/>
</g>
<g>
	<path fill="#FFFFFF" d="M50.3,201.3c-0.5-0.5-0.9-1.1-1.4-1.5c-0.2-0.2-0.4,0.2-0.3,0.4c0.4,0.5,1,1,1.5,1.3
		C50.3,201.6,50.4,201.4,50.3,201.3z"/>
</g>
<g>
	<path fill="#FFFFFF" d="M46.6,192.3c0.1-0.1-0.1-0.3-0.2-0.1c-0.4,0.6-0.7,1.2-1,1.8c-0.2,0.3,0.2,0.5,0.4,0.2
		C46.1,193.7,46.3,193,46.6,192.3z"/>
</g>
<g>
	<path fill="#FFFFFF" d="M45.6,191.7c0.1-0.2-0.1-0.3-0.3-0.2c-0.2,0.3-0.5,0.8-0.6,1.2c0,0.2,0.2,0.4,0.4,0.2
		C45.4,192.6,45.4,192.1,45.6,191.7z"/>
</g>
<g>
	<path fill="#FFFFFF" d="M44.4,192.1c0-0.3,0.1-0.5,0.2-0.8c0-0.2-0.2-0.2-0.3,0c-0.1,0.3-0.2,0.6-0.2,0.9
		C44.1,192.4,44.4,192.3,44.4,192.1z"/>
</g>
<g>
	<path fill="#FFFFFF" d="M44.7,196.6c0.3-0.1,0.5-0.1,0.8-0.2c0.2,0,0.1-0.3,0-0.3c-0.3,0-0.5,0-0.8,0c-0.1,0-0.3,0-0.5,0.1
		c0.2-0.5,0.2-1.1,0.2-1.5c0-0.1-0.2-0.1-0.2,0c0,0.3-0.1,0.7-0.2,1c0,0.1-0.1,0.1-0.1,0.2c-0.1-0.6-0.5-1.1-0.7-1.5
		c0-0.1-0.2,0-0.2,0.1c0.1,0.4,0.2,0.7,0.3,1.1c0.1,0.3,0.1,0.7,0.1,1c-0.3,0.6-0.7,1.1-1,1.8c0,0.1,0.1,0.2,0.2,0.1
		c0.3-0.5,0.7-0.9,1-1.4c0.1,0.1,0.1,0.2,0.2,0.3c0.1,0.2,0.1,0.4,0.2,0.6c0,0.1,0.2,0.1,0.2,0c0.1-0.4,0-0.8-0.2-1.1
		C44.3,196.7,44.5,196.6,44.7,196.6z"/>
</g>
<g>
	<path fill="#FFFFFF" d="M53.9,197.4c0.7-0.9,1.2-2,1.2-3.1c0-0.4-0.1-0.8-0.3-1.1c3-1.9,4.3-7.1,0.7-8.6c-1.8-0.7-4.1-0.1-5.9,1.1
		c0.6-3.2-0.5-6.2-4-6.6c-3-0.3-4.9,3-4.7,5.6c-1.1-0.1-2.2,0.1-3.3,0.7c-0.1,0-0.1,0.1-0.2,0.1c-1.8-1.8-4.1-2.9-6.2-0.3
		c-1.2,1.5-1.9,5-0.3,6.2c-1,0.4-1.9,0.9-2.5,1.7c-2.5,3.1,0.3,6.1,3.3,6.6c-1.5,1.5-2.1,3.9-1.1,5.7c1.6,2.9,5.3,2.4,7.8,0.6
		c0.2,2.6,2,4.8,4.8,4.4c2.9-0.5,4.9-4.2,4.4-7.1c1.8,2.6,5.8,4.2,8.3,1.4C58,202.2,57.2,197.8,53.9,197.4z M54,194.2
		c0.2,1.2-0.9,2.7-1.9,3.3c-1.2,0.7-3.2-0.3-4.2-0.9c0,0,0,0,0,0c0-0.1,0-0.2,0.1-0.3c0-0.6-0.1-1.1-0.5-1.5c0.6-0.6,0.9-1.2,1-1.9
		c0,0,0.1,0,0.1,0C49.9,192.3,53.7,192.2,54,194.2z M44.7,197.1c0.2,0.5,0.7,2.4-1.5,2.9c-0.6,0.1-1.2-0.3-1.4-0.8
		c-0.5-0.9-0.1-2.2,0.9-2.6c0,0,0.1,0,0.1-0.1c0.3-0.2,0.5-0.8,0.1-1c-0.7-0.5-1-1.9,0.1-2.3c1.2-0.5,2.3,1,2.1,2.1
		c0,0.2,0.2,0.3,0.3,0.2c0,0,0.1,0,0.1,0c0.3-0.1,0.6-0.2,0.9-0.2c0.2,0,0.3,0.1,0.4,0.2c0.1,0.1,0.2,0.2,0.2,0.4
		c0.1,0.3,0.1,0.3,0,0.6c0,0.1,0,0.1-0.1,0.2c0,0-0.1,0.2-0.1,0.2c0,0.1-0.1,0.2-0.1,0.2c0,0-0.1,0.1-0.1,0.1c0,0,0,0,0,0
		c0,0,0,0,0,0c0,0-0.1,0-0.1,0.1c0.1-0.1,0,0-0.1,0c0,0,0,0,0,0c0,0,0,0,0,0c-0.1,0-0.1,0-0.2,0c0,0-0.1,0-0.1,0
		c-0.1,0-0.2,0-0.2-0.1c0,0,0,0-0.1,0C45.8,197,44.7,196.5,44.7,197.1z M41,197.3c0,0-0.1,0-0.1,0c-0.9,0.1-2,0.3-2.7-0.5
		c-0.4-0.6-0.3-1.5-0.1-2.1c0.2-0.7,0.7-1.4,1.4-1.8c0.7-0.4,1.4-0.1,2,0.3c-0.6,1-0.4,2.5,0.6,3.1C41.6,196.5,41.2,196.8,41,197.3z
		 M46.1,190.3c0.7,0.2,1.2,0.7,1.3,1.4c0.2,1-0.4,1.7-0.8,2.6c0,0.1,0,0.1,0,0.2c-0.3,0-0.7,0.2-1,0.4c0.1-0.8,0-1.5-0.4-2.1
		c-0.5-0.8-1.8-1-2.6-0.6c-0.3,0.1-0.5,0.3-0.7,0.5c0,0,0,0,0-0.1C42.6,190.9,44.3,189.8,46.1,190.3z M45.8,198.2
		c0.4,0.1,0.9,0.1,1.3-0.2c0.1,0,0.1-0.1,0.2-0.1c0.3,0.6,0.7,0.9,0.7,1.7c0,0.6-0.4,1.2-0.8,1.6c-1.1,1.1-2.4,0.9-3.1-0.3
		c0,0,0,0,0,0C44.9,200.4,45.6,199.3,45.8,198.2z M46.6,189.4c1.6-1.9,4.1-3.6,6.5-3.9c1.6-0.2,2.8,0.7,3.1,2.3
		c0.4,1.8-1.1,3.5-2.6,4.4c0,0,0,0,0,0c-1.5-0.8-3.8-0.5-5.1,0.3C48.6,191.2,47.9,190,46.6,189.4C46.7,189.5,46.6,189.4,46.6,189.4
		C46.6,189.4,46.6,189.4,46.6,189.4z M45.1,180.3c1.4-0.1,2.2,0.4,3.1,2.1c1.1,1.9-0.3,4.3-0.2,4.4c-0.7,0.7-1.3,1.5-1.7,2.4
		c0,0.1,0,0.1,0,0.1c-0.3-0.1-0.5-0.1-0.8-0.1c0.1-0.2,0.1-0.3,0-0.5c-0.7-2.1-2.4-3.5-4.4-3.9C41.5,182.6,42.8,180.4,45.1,180.3z
		 M38.3,186.2c2.7-1.5,5.4,0.7,6.1,3.1c0,0,0,0,0,0c-1.3,0.4-2.4,1.5-3,2.9c-1-1-2.4-0.5-3.4,0.6c-1.1-1.7-2.3-4.3-0.8-5.9
		c0.1-0.1,0.1-0.1,0.2-0.2C37.8,186.5,38,186.4,38.3,186.2z M31.7,186c1.5-2.2,3.3-0.8,4.5,0.5c-1.1,1.5-0.7,3.7,0.3,5.3
		c-1.4-0.9-3.2-1.1-5-0.7C30.2,189.9,30.7,187.6,31.7,186z M29.7,193.4c2.3-2.1,5.7-1,7.8,0.1c0.1,0,0.1,0,0.2,0
		c-0.2,0.3-0.3,0.5-0.4,0.8c-0.1,0.3-0.2,0.6-0.2,0.9c-1.5,0.4-3.1,1.8-3.7,3.3c0,0-0.1,0-0.1,0c-0.2,0.1-0.4,0.2-0.6,0.3
		C29.7,198.6,27.1,195.7,29.7,193.4z M31.4,204.7c-1.5-1.9,0.3-4,1.7-5.4c-0.1,0.7-0.1,1.4,0.3,2c0.9,1.7,3.3,2.2,5.4,1.7
		c-0.2,0.4-0.3,0.8-0.4,1.2C36.5,206.5,33.1,206.8,31.4,204.7z M34.3,200.9c-1.7-1.6,1-4.3,2.7-5.2c0,0.6,0.1,1.2,0.5,1.7
		c0.7,1,2.2,1.2,3.4,0.9c0,0.5,0.1,1.1,0.4,1.6C39.9,202.3,36,202.6,34.3,200.9z M43.5,208.9c-1.6,0.9-3.3-0.3-4-1.7
		c-0.8-1.9-0.2-3.8-0.1-4.5c1.1-0.4,2.1-1,2.7-1.9c0.1,0.1,0.3,0.1,0.4,0.2c0.4,0.1,0.8,0.1,1.2,0c0,0,0,0,0,0
		c0.3,1.2,1.1,1.8,2.1,1.8c0,0.1,0,0.1,0.1,0.2C46.7,205,45.4,207.9,43.5,208.9z M54.7,203.9c-2.1,2.3-5.4-0.5-6.4-2.4c0,0,0,0,0,0
		c0.6-0.9,0.9-2.1,0.6-3.1c1.1,0.5,2.3,0.8,3.5,0.2c0.4-0.2,0.7-0.4,1-0.7C53.5,198,58.2,200.1,54.7,203.9z"/>
</g>
<g>
	<path fill="#5B7F2D" d="M38.3,161.2c0.5-1.7,0.7-5.9-1.3-7.3c-2-1.4-7.1,0.4-8.2,1.3c-0.7-3-2.1-7.1-6.2-6.1s-6.5,5.6-6.4,7.9
		c-4.3-2.1-6.5-2.4-8.6,0.1c-2.2,2.5-1.2,9,3.1,11.5c-5,0.2-10.7,3.9-9.8,7.3c0.9,3.5,4.1,6.9,9.6,3.2c0.6,3.9,2.1,5.4,4.3,4.8
		c-0.4,5.2,1.7,9.3,5.7,8.4c4.1-0.9,5.6-6.4,6.1-8.5c3,4.1,8,5.6,11,2.5c3.1-3.1,1-6.4-1.6-9.4c2-1.3,2.5-4.2,2.3-5.1
		c1.5,0.2,6.6,0,6.6-4.6C44.7,162.6,41.8,161.5,38.3,161.2z"/>
</g>
<g>
	<path fill="#FFFFFF" d="M14.5,177.2c1.2-0.8,2-1.6,3.4-1.9c0.1,0,0.1,0,0.1-0.1c0,0.1,0,0.2,0,0.2c-0.1-0.1-0.2-0.1-0.3-0.1
		c-1,0.5-1.8,1.5-2.2,2.6c-0.1,0.2,0.2,0.4,0.3,0.2c0.7-0.8,1.2-1.6,2.1-2.3c-0.3,1.3-0.8,2.3-1.6,3.4c-0.1,0.1,0,0.3,0.2,0.2
		c1.3-0.9,2.2-2.7,2.1-4.3c0-0.2-0.3-0.3-0.5-0.2c0-0.2-0.1-0.4-0.3-0.4c-1.5-0.1-2.8,1.1-3.5,2.3C14.2,177.2,14.4,177.3,14.5,177.2
		z"/>
</g>
<g>
	<path fill="#FFFFFF" d="M24.3,182.9c0.2-1,0.3-2.1-0.1-3.1c-0.1-0.3-0.5-0.1-0.4,0.2c0.3,0.9,0.3,1.9,0.2,2.9
		C23.9,183,24.3,183.1,24.3,182.9z"/>
</g>
<g>
	<path fill="#FFFFFF" d="M22.4,184c0.3-1.6,0.4-3.3-0.3-4.8c-0.1-0.3-0.6-0.1-0.4,0.2c0.6,1.5,0.6,2.9,0.5,4.5
		C22.1,184.1,22.3,184.2,22.4,184z"/>
</g>
<g>
	<path fill="#FFFFFF" d="M20.5,184c0.1-1.6,0.1-3.2,0.5-4.8c0.1-0.4-0.4-0.5-0.5-0.1c-0.6,1.6-0.5,3.3-0.3,4.9
		C20.2,184.2,20.5,184.2,20.5,184z"/>
</g>
<g>
	<path fill="#FFFFFF" d="M32.5,179.1c0.7,0.5,1.4,0.9,1.8,1.7c0.1,0.2,0.4,0,0.3-0.1c-0.4-0.8-1-1.6-1.9-1.9
		C32.5,178.6,32.3,178.9,32.5,179.1z"/>
</g>
<g>
	<path fill="#FFFFFF" d="M28.1,178.4c1.1,1.8,2.7,2.9,4.5,4c0.2,0.1,0.4-0.2,0.2-0.3c-1.6-1.2-2.9-2.5-4-4.1
		C28.5,177.5,27.8,177.9,28.1,178.4z"/>
</g>
<g>
	<path fill="#FFFFFF" d="M30.7,183.6c0.2,0.1,0.3-0.2,0.1-0.3c-1.9-1-2.5-2.6-3.6-4.3c-0.2-0.3-0.9-0.1-0.7,0.3
		C27.3,181.2,28.7,182.9,30.7,183.6z"/>
</g>
<g>
	<path fill="#FFFFFF" d="M34.4,168.4c1.4-0.5,2.8-0.9,4.3-0.3c0.2,0.1,0.3-0.2,0.1-0.3c-1.4-0.7-3.3-0.8-4.7,0
		C33.8,168,34,168.5,34.4,168.4z"/>
</g>
<g>
	<path fill="#FFFFFF" d="M33.8,167.1c1.6-0.4,3.1-0.7,4.8-0.7c0.2,0,0.2-0.3,0-0.3c-1.7-0.2-3.5-0.3-5,0.4
		C33.2,166.7,33.5,167.2,33.8,167.1z"/>
</g>
<g>
	<path fill="#FFFFFF" d="M35.7,165.4c0.9-0.3,1.8-0.4,2.7-0.3c0.2,0,0.2-0.2,0.1-0.3c-0.9-0.3-2-0.4-3,0
		C35.2,165,35.3,165.5,35.7,165.4z"/>
</g>
<g>
	<path fill="#FFFFFF" d="M27.5,172c1.3,1.1,2.9,1.5,4.3,2.3c0.1,0.1,0.3-0.1,0.2-0.2c-1.3-0.9-2.8-1.6-4-2.5c0,0,0,0,0,0
		c1.6,0.1,3,0.9,4.5,1.2c0.2,0,0.2-0.2,0.1-0.3c-1.5-0.5-3-1.4-4.6-1.5c-0.3,0-0.4,0.3-0.2,0.5C27.5,171.4,27.2,171.8,27.5,172z"/>
</g>
<g>
	<path fill="#FFFFFF" d="M30.6,176.2c0.2,0.1,0.4-0.2,0.2-0.3c-0.5-0.3-0.9-0.6-1.3-1c-0.4-0.5-0.7-1-1.1-1.5
		c-0.2-0.2-0.6-0.1-0.5,0.2C28.3,174.8,29.5,175.8,30.6,176.2z"/>
</g>
<g>
	<path fill="#FFFFFF" d="M29.8,170.7c0.7-0.8,1.6-1,2.6-1c0.2,0,0.2-0.3,0-0.3c-1.1,0-2.3,0-3,0.9C29.1,170.5,29.5,170.9,29.8,170.7
		z"/>
</g>
<g>
	<path fill="#FFFFFF" d="M29.6,166.6c0.7-0.2,1.3-1.1,1.8-1.6c0.4-0.5,0.7-1.2,1.1-1.7c0.1-0.1-0.1-0.3-0.2-0.2c-1,1-1.8,2.2-2.9,3
		C29.1,166.2,29.3,166.7,29.6,166.6z"/>
</g>
<g>
	<path fill="#FFFFFF" d="M29.4,165.3c1-1,1.8-2.3,2.5-3.5c0.1-0.2-0.2-0.3-0.3-0.1c-0.8,1.2-1.7,2.2-2.7,3.2
		C28.7,165.2,29.1,165.6,29.4,165.3z"/>
</g>
<g>
	<path fill="#FFFFFF" d="M29.1,162.8c0.7-0.5,1.1-1.3,1.6-1.9c0.1-0.1-0.1-0.3-0.2-0.2c-0.3,0.3-0.6,0.5-0.8,0.8
		c-0.3,0.3-0.7,0.5-1,0.8C28.4,162.6,28.8,163,29.1,162.8z"/>
</g>
<g>
	<path fill="#FFFFFF" d="M24.8,170c1.2-0.2,2.1-1.4,3.1-2c0.2-0.1,0-0.4-0.1-0.3c-0.5,0.2-1,0.5-1.5,0.8c-0.6,0.3-1.2,0.6-1.7,0.9
		C24.2,169.6,24.4,170,24.8,170z"/>
</g>
<g>
	<path fill="#FFFFFF" d="M23.6,169.4c0.8-0.8,1.6-1.6,2.5-2.3c0.1-0.1,0-0.3-0.1-0.2c-1,0.5-2,1.3-2.8,2.1
		C22.9,169.3,23.3,169.7,23.6,169.4z"/>
</g>
<g>
	<path fill="#FFFFFF" d="M22.7,168.4c0.5-0.8,0.8-1.7,1.7-2.2c0.2-0.1,0-0.4-0.1-0.3c-0.9,0.4-1.8,1.3-2.1,2.2
		C22,168.5,22.5,168.8,22.7,168.4z"/>
</g>
<g>
	<path fill="#FFFFFF" d="M25.7,163.8c0.2-0.5,0.2-1,0.3-1.4c0.1-0.5,0.3-1.1,0.5-1.6c0.1-0.2-0.2-0.3-0.3-0.1
		c-0.3,0.5-0.5,0.9-0.7,1.4c-0.2,0.5-0.4,1.1-0.4,1.6C25.1,163.9,25.6,164.1,25.7,163.8z"/>
</g>
<g>
	<path fill="#FFFFFF" d="M23.9,164.2c0.1-0.6,0.2-1.3,0.3-1.9c0.2-0.7,0.4-1.3,0.8-2c0.1-0.2-0.2-0.3-0.3-0.1
		c-0.7,1.1-1.5,2.6-1.4,4C23.4,164.5,23.9,164.6,23.9,164.2z"/>
</g>
<g>
	<path fill="#FFFFFF" d="M22.4,165.6c-0.4-1.9-0.1-3.5,0.4-5.3c0-0.2-0.2-0.3-0.3-0.1c-0.7,1.7-1.4,3.8-0.7,5.6
		C21.9,166.2,22.5,166,22.4,165.6z"/>
</g>
<g>
	<path fill="#FFFFFF" d="M16.7,166.6c0.1,0.4,0.7,0.2,0.6-0.2c-0.3-1.9-2.2-3.2-3.5-4.5c-0.1-0.1-0.4,0.1-0.3,0.2
		C14.7,163.6,16.1,164.7,16.7,166.6z"/>
</g>
<g>
	<path fill="#FFFFFF" d="M14.4,158.8c1.3,1.2,2.4,2.2,2.9,3.9c0.1,0.4,0.6,0.2,0.5-0.2c-0.3-1.8-1.7-3.1-3.3-4
		C14.4,158.5,14.2,158.7,14.4,158.8z"/>
</g>
<g>
	<path fill="#FFFFFF" d="M14,166.7c0.3,0.2,0.7-0.1,0.5-0.4c-0.7-0.9-1.4-1.8-2-2.7c-0.5-0.7-1-1.5-1.7-2c-0.1-0.1-0.4,0.1-0.2,0.2
		C11.8,163.3,12.4,165.5,14,166.7z"/>
</g>
<g>
	<path fill="#FFFFFF" d="M12.2,167.1c0.2,0.2,0.6-0.1,0.4-0.4c-0.8-1-1.8-1.9-2.7-2.8c-0.1-0.1-0.4,0.1-0.3,0.2
		C10.4,165.2,11.2,166.4,12.2,167.1z"/>
</g>
<g>
	<path fill="#FFFFFF" d="M13.8,170.8c0.8,0.8,2.8,1.1,3.7,0.5c0.3-0.2,0.2-0.8-0.2-0.7c-0.5,0.1-1,0.2-1.6,0.2
		c-0.6,0-1.2-0.2-1.8-0.3C13.8,170.5,13.7,170.6,13.8,170.8z"/>
</g>
<g>
	<path fill="#FFFFFF" d="M14.6,169.5c0.3,0.2,0.6,0.3,1,0.4c0.4,0.1,0.8,0.2,1.2,0.2c0.3-0.1,0.2-0.4,0-0.5
		c-0.3-0.2-0.6-0.2-0.9-0.2c-0.4,0-0.7-0.1-1.1-0.2C14.6,169.2,14.4,169.4,14.6,169.5z"/>
</g>
<g>
	<path fill="#FFFFFF" d="M18.8,159.2c0.1,0.3,0.5,0.1,0.4-0.1c-0.2-1.2-0.3-2.4-0.2-3.6c0-0.2-0.3-0.2-0.3,0
		C18.5,156.6,18.3,158,18.8,159.2z"/>
</g>
<g>
	<path fill="#FFFFFF" d="M21.5,156.8c-0.1-0.7-0.1-1.5-0.2-2.2c0-0.2-0.3-0.1-0.3,0c0.1,0.7,0,1.5,0.1,2.2
		C21.2,157,21.6,157,21.5,156.8z"/>
</g>
<g>
	<path fill="#FFFFFF" d="M23.4,156c0.1-0.6,0-1.2-0.1-1.8c0-0.2-0.3-0.1-0.3,0.1c0,0.6,0,1.1-0.1,1.7C23,156.2,23.4,156.3,23.4,156z
		"/>
</g>
<g>
	<path fill="#FFFFFF" d="M8.5,175.1c1.7,0,3.5-0.5,4.9-1.6c0.3-0.2-0.1-0.7-0.4-0.6c-0.7,0.3-1.3,0.8-2.1,1.1
		c-0.8,0.4-1.6,0.6-2.5,0.7C8.2,174.7,8.3,175.1,8.5,175.1z"/>
</g>
<g>
	<path fill="#FFFFFF" d="M8.2,176.6c2,0.2,4.6-1.1,6-2.5c0.3-0.3-0.1-0.8-0.5-0.6c-1.9,1.1-3.4,2.2-5.5,2.8
		C8,176.4,8,176.6,8.2,176.6z"/>
</g>
<g>
	<path fill="#FFFFFF" d="M9.1,173.2c1-0.1,2,0,3-0.2c0.4-0.1,0.2-0.6-0.1-0.6c-1,0-2,0.2-2.9,0.5C8.8,172.9,8.9,173.2,9.1,173.2z"/>
</g>
<g>
	<path fill="#FFFFFF" d="M22.5,176.9c0.1,0.2,0.4,0.1,0.3-0.1c-0.2-0.9-0.7-1.8-1-2.7c-0.1-0.4-0.8-0.2-0.7,0.2
		C21.5,175.3,22.1,176,22.5,176.9z"/>
</g>
<g>
	<path fill="#FFFFFF" d="M24.1,176.4c0.1,0.3,0.5,0.2,0.4-0.1c-0.1-0.5-0.4-1.2-0.8-1.7c-0.2-0.2-0.6-0.1-0.5,0.2
		C23.4,175.4,23.9,175.9,24.1,176.4z"/>
</g>
<g>
	<path fill="#FFFFFF" d="M24.8,174.8c0.2,0.3,0.5,0.6,0.7,0.8c0.2,0.2,0.4-0.1,0.3-0.3c-0.2-0.4-0.4-0.7-0.8-0.9
		C24.9,174.3,24.7,174.6,24.8,174.8z"/>
</g>
<g>
	<path fill="#FFFFFF" d="M19.8,171.2c-0.2,0.4-0.4,0.7-0.6,1c-0.1,0.2,0.2,0.4,0.3,0.2c0.3-0.2,0.5-0.6,0.7-0.9
		c0.1-0.2,0.2-0.4,0.4-0.6c0.3,0.6,1,1.2,1.5,1.5c0.1,0.1,0.3-0.1,0.2-0.2c-0.3-0.3-0.6-0.7-0.9-1.1c-0.1-0.1-0.1-0.2-0.1-0.3
		c0.7,0.4,1.7,0.5,2.3,0.6c0.2,0,0.2-0.2,0.1-0.3c-0.5-0.2-1-0.4-1.4-0.6c-0.4-0.2-0.8-0.5-1.2-0.7c-0.4-0.8-0.6-1.7-1-2.5
		c-0.1-0.1-0.3,0-0.3,0.1c0.2,0.7,0.3,1.5,0.5,2.3c-0.2,0-0.4,0-0.5-0.1c-0.3-0.1-0.5-0.2-0.8-0.3c-0.2-0.1-0.3,0.1-0.2,0.3
		c0.3,0.4,0.9,0.7,1.4,0.8C20,170.8,19.9,171,19.8,171.2z"/>
</g>
<g>
	<path fill="#FFFFFF" d="M9.9,180.3c0.2,1.6,1,3.1,2.3,3.9c0.5,0.4,1,0.6,1.5,0.6c-0.8,4.8,3.5,10.7,8.7,8.1
		c2.6-1.3,4.1-4.2,4.6-7.2c2.9,3.4,7.2,4.8,11.1,1.4c3.3-2.9,1.5-7.8-1.6-9.9c1.2-1,2-2.4,2.4-4.1c0-0.1,0-0.2,0.1-0.3
		c3.7-0.4,7.2-1.9,6.4-6.3c-0.5-2.6-3.6-6.3-6.4-5.6c0.6-1.4,0.8-2.8,0.6-4.1c-0.9-5.4-7-5-10.4-2.2c-0.2-2.9-2.2-5.6-5.2-6.1
		c-4.8-0.8-7.8,3.6-8.3,7.8c-3-2-7.3-2-9.5,1.4c-2.3,3.5-0.2,8.9,3.4,10.7c-4.6-0.3-10.3,2.6-9.6,7.7C0.7,180.6,6.3,183.5,9.9,180.3
		z M13.2,183.2c-1.5-0.8-2.1-3.3-1.8-4.8c0.4-1.8,3.5-3.2,5.1-3.7c0,0,0,0,0,0c0.1,0.1,0.2,0.2,0.3,0.3c0.6,0.5,1.3,0.8,2.1,0.7
		c0.1,1.1,0.5,2,1.1,2.7c0,0-0.1,0.1-0.1,0.1C19.4,180.5,15.8,184.6,13.2,183.2z M19.2,170.8c-0.8-0.2-3.3-1.4-1.7-4
		c0.5-0.8,1.5-1,2.3-0.8c1.5,0.3,2.5,1.8,1.9,3.2c0,0,0,0.1,0,0.1c-0.1,0.5,0.4,1.2,1,1c1.2-0.4,3,0.6,2.4,2.1
		c-0.6,1.7-3.3,1.6-4.4,0.4c-0.2-0.2-0.5,0-0.5,0.2c0,0-0.1,0.1-0.1,0.1c-0.1,0.4-0.3,0.8-0.6,1.1c-0.2,0.2-0.5,0.3-0.6,0.3
		c-0.2,0-0.4,0-0.6-0.1c-0.3-0.2-0.4-0.2-0.7-0.5c-0.1-0.1-0.1-0.1-0.2-0.3c0-0.1-0.2-0.3-0.2-0.3c0-0.1-0.1-0.3-0.1-0.3
		c0-0.1,0-0.1,0-0.2c0,0,0,0,0-0.1c0,0,0,0,0,0c0-0.1,0-0.1,0-0.2c-0.1,0.2,0-0.1,0.1-0.1c0,0,0,0,0,0c0,0,0,0,0,0
		c0-0.1,0.1-0.1,0.2-0.2c0,0,0.1-0.1,0.1-0.1c0.1-0.1,0.2-0.1,0.3-0.2c0,0,0.1,0,0.1,0C18.2,172.1,19.8,171.3,19.2,170.8z
		 M22.5,166.8c0,0,0.1-0.1,0.1-0.1c0.8-1.1,1.6-2.4,3.1-2.4c1,0,1.9,0.9,2.4,1.7c0.6,0.9,0.9,2,0.6,3c-0.2,1-1.3,1.6-2.3,1.9
		c-0.6-1.5-2.3-2.5-4-2.1C22.9,168.1,22.8,167.4,22.5,166.8z M25.2,178.1c-0.9,0.5-1.9,0.6-2.9,0.2c-1.3-0.6-1.5-1.9-2.1-3
		c0-0.1-0.1-0.1-0.2-0.2c0.3-0.4,0.4-0.9,0.5-1.4c0.7,0.8,1.6,1.3,2.7,1.4c1.4,0.1,2.9-1,3.2-2.3c0.1-0.4,0.1-0.8,0.1-1.2
		c0,0,0.1,0,0.1,0C28,174,27.5,176.7,25.2,178.1z M16.9,171c-0.5,0.4-0.9,0.8-1,1.5c0,0.1,0,0.2,0,0.3c-0.9-0.2-1.7,0-2.6-0.7
		c-0.6-0.5-0.9-1.4-1-2.2c-0.2-2.1,1.4-3.3,3.3-3.1c0,0,0,0,0,0C15.3,168.3,15.9,169.9,16.9,171z M25.7,179.5
		c0.5,3.4,0,7.4-2.1,10.3c-1.3,1.8-3.5,2.3-5.5,1.4c-2.4-1.1-2.8-4.2-2.3-6.5c0,0,0,0,0,0c2.3-0.9,4.2-3.6,4.6-5.7
		c1.3,1.2,3.4,1.5,5.1,0.6C25.6,179.5,25.6,179.4,25.7,179.5C25.7,179.4,25.7,179.5,25.7,179.5z M37.1,185.7c-1.3,1.5-2.5,2-5.3,1.5
		c-3.1-0.5-4.4-4-4.7-4c-0.1-1.4-0.4-2.7-0.9-3.9c0-0.1-0.1-0.1-0.2-0.1c0.3-0.2,0.6-0.4,0.9-0.7c0.1,0.2,0.3,0.4,0.5,0.5
		c3,1,6.2,0.5,8.5-1.3C38.1,179.9,39.3,183.1,37.1,185.7z M37.3,173.4c-1,4.1-6,5.1-9.4,3.8c0,0,0,0-0.1,0c0.8-1.7,0.7-3.9-0.3-5.6
		c2.1-0.2,2.9-2.2,2.6-4.1c2.9,0.3,6.9,1.2,7.2,4.3c0,0.1,0,0.3,0,0.4C37.4,172.5,37.4,172.9,37.3,173.4z M43.8,166.5
		c1,3.4-2.3,4.2-4.9,4.3c-0.6-2.5-3.4-3.9-6.1-4.2c2.3-0.7,4.3-2.5,5.6-4.7C41.1,161.6,43.1,164,43.8,166.5z M37.8,158
		c0.1,4.2-4.4,6.9-7.7,8.3c-0.1,0-0.1,0.1-0.2,0.2c-0.1-0.4-0.3-0.8-0.5-1.1c-0.2-0.4-0.4-0.7-0.7-1c1-1.9,1-4.8,0-6.8
		c0,0,0.1-0.1,0.1-0.1c0.1-0.3,0.2-0.6,0.3-1C32,153.6,37.7,153.3,37.8,158z M23.8,150.2c3.5,0,4.1,3.7,4.3,6.5
		c-0.6-0.7-1.4-1.2-2.5-1.4c-2.8-0.5-5.6,1.6-7.1,4.2c-0.2-0.5-0.6-1-0.9-1.5C16.8,154.1,19.8,150.2,23.8,150.2z M25.1,156.5
		c3.4-0.4,3.7,4.8,3,7.3c-0.7-0.5-1.5-0.9-2.3-1c-1.8-0.1-3.5,1.3-4.3,2.8c-0.6-0.5-1.3-0.8-2.1-0.9
		C18.2,161.2,21.6,156.9,25.1,156.5z M7.4,159.4c0.6-2.5,3.5-3.3,5.7-2.8c2.9,0.8,4.4,3.1,5,3.7c-0.6,1.5-0.9,3.1-0.5,4.5
		c-0.2,0.1-0.4,0.2-0.6,0.3c-0.5,0.3-0.9,0.8-1.1,1.2c0,0,0,0,0,0c-1.6-0.7-3-0.3-3.9,0.7c-0.1,0-0.2-0.1-0.2-0.1
		C8.6,166.2,6.7,162.3,7.4,159.4z M2,175.6c-0.5-4.2,5.8-5.4,8.9-4.7c0,0,0,0,0,0c0.3,1.4,1.4,2.8,2.8,3.3c-1.6,0.7-3.1,1.8-3.6,3.5
		c-0.2,0.6-0.2,1.1-0.2,1.7C9.7,179.4,2.7,182.6,2,175.6z"/>
</g>
<g>
	<path fill="#4F2621" d="M41.3,227.2c-0.2,0-0.4-0.1-0.5-0.3L4.9,167.2c-0.1-0.2-0.1-0.4,0-0.6c0.1-0.2,0.3-0.3,0.5-0.3l45.3-1.9
		c0.2,0,0.4,0.1,0.5,0.2c0.1,0.1,0.2,0.3,0.1,0.5l-9.4,61.6c0,0.2-0.2,0.4-0.5,0.5C41.4,227.2,41.4,227.2,41.3,227.2z M6.4,167.4
		L41,224.9l9-59.3L6.4,167.4z"/>
</g>
<g>
	<path fill="#4F2621" d="M41.3,227.2c-0.1,0-0.2,0-0.3-0.1c-0.3-0.2-0.4-0.5-0.2-0.8L74,168.7l-23.3-3.2c-0.3,0-0.5-0.2-0.5-0.5
		l-9.7-59.5c-0.1-0.3,0.2-0.6,0.5-0.7c0.3-0.1,0.6,0.2,0.7,0.5l9.6,59.1l23.8,3.2c0.2,0,0.4,0.2,0.5,0.3c0.1,0.2,0.1,0.4,0,0.6
		l-33.6,58.3C41.7,227.1,41.5,227.2,41.3,227.2z"/>
</g>
<g>
	<path fill="#4F2621" d="M74.9,168.9c-0.2,0-0.4-0.1-0.5-0.3L41,106.6L5.9,167.2c-0.2,0.3-0.5,0.4-0.8,0.2c-0.3-0.2-0.4-0.5-0.2-0.8
		l35.6-61.4c0.1-0.2,0.3-0.3,0.5-0.3c0.2,0,0.4,0.1,0.5,0.3L75.5,168c0.2,0.3,0,0.7-0.2,0.8C75.1,168.8,75,168.9,74.9,168.9z"/>
</g>
<g>
	<path fill="#4F2621" d="M41.3,106.8c-0.3,0-0.5-0.2-0.6-0.5c0-0.1,0-0.1,0-0.2c-1.5,0-2.5-1.2-2.5-2.3c-0.1-1.1,0.7-2.3,2.4-2.4
		c1.8-0.1,2.9,1.1,3.1,2.4c0.2,1.2-0.5,2.6-2.2,3C41.4,106.8,41.4,106.8,41.3,106.8z M40.9,104.9c0.3,0,0.6,0.3,0.6,0.6
		c0,0,0,0,0,0.1c0.9-0.3,1.1-1,1-1.6c-0.1-0.7-0.7-1.5-1.8-1.4c-0.8,0.1-1.3,0.5-1.3,1.1C39.4,104.3,40,104.9,40.9,104.9
		C40.8,104.9,40.9,104.9,40.9,104.9z"/>
</g>
<g>
	<path fill="#4F2621" d="M54,111.8c-3.8,0-5.5-3.2-7-6c-0.8-1.4-1.5-2.7-2.3-3.6c-0.6-0.2-1.3-0.5-1.9-0.7c-0.5-0.2-1-0.4-1.4-0.5
		c0,0.3,0.1,0.6,0.2,0.8c0.1,0.3,0,0.7-0.4,0.8c-0.3,0.1-0.7,0-0.8-0.4c-1-2.6,1.2-6.8,2.6-8.3c0.9-1.1,4.2-3.6,6.1-2.9
		c0.7,0.2,1.4,0.9,1.4,2.8c0,1.1-0.4,1.9-1.1,2.6c0.6,0,1.1,0,1.7,0c1.7,0.2,3.8,1.2,4.3,2.7c0.2,0.7,0.2,1.8-1.2,3
		c-2,1.7-4.8,1.4-7.5,0.6c0.5,0.8,0.9,1.6,1.4,2.4c1.9,3.4,3.5,6.4,8,5.1c0.3-0.1,0.7,0.1,0.7,0.4s-0.1,0.7-0.4,0.7
		C55.5,111.7,54.7,111.8,54,111.8z M45.3,101.1c2.9,1,6.1,1.8,8.1,0.2c0.7-0.6,1-1.2,0.8-1.8c-0.3-0.9-1.7-1.8-3.2-1.9
		c-1.3-0.1-2.6,0-3.9,0.3c-0.8,0.4-1.6,0.7-2.3,0.9c-0.6,0.2-1.3,0.5-1.8,0.7c0,0-0.1,0-0.1,0.1C43.8,99.9,44.6,100.4,45.3,101.1z
		 M48.3,92c-1.3,0-3.5,1.6-4.4,2.6c-0.8,1-1.8,2.7-2.2,4.3c0.2-0.1,0.4-0.2,0.7-0.3c1.5-0.8,2.9-1.4,4.3-1.7
		c1.5-0.7,2.7-1.6,2.7-3.1c0-0.7-0.1-1.5-0.6-1.7C48.6,92,48.4,92,48.3,92z"/>
</g>
<g>
	<path fill="#4F2621" d="M40,0v102c0,0.3,0.3,0.6,0.6,0.6s0.6-0.3,0.6-0.6V0H40z"/>
</g>
</svg>
