<?xml version="1.0" encoding="utf-8"?>
<!-- Generator: Adobe Illustrator 16.0.0, SVG Export Plug-In . SVG Version: 6.00 Build 0)  -->
<!DOCTYPE svg PUBLIC "-//W3C//DTD SVG 1.1//EN" "http://www.w3.org/Graphics/SVG/1.1/DTD/svg11.dtd">
<svg version="1.1" id="Layer_1" xmlns="http://www.w3.org/2000/svg" xmlns:xlink="http://www.w3.org/1999/xlink" x="0px" y="0px" viewBox="0 0 144.3 295.7" xml:space="preserve">
<g>
	<path fill="#4F2621" d="M77.9,0L55,172.9c0,0.3,0.2,0.6,0.5,0.7c0,0,0.1,0,0.1,0c0.3,0,0.6-0.2,0.6-0.5L79.1,0H77.9z"/>
	<path fill="#4F2621" d="M97.1,0l21.7,172c0,0.3,0.3,0.6,0.7,0.5c0.3,0,0.6-0.3,0.5-0.7L98.3,0H97.1z"/>
</g>
<g>
	<path fill="#4F2621" d="M83.7,0l-9.3,170.9c0,0.3,0.2,0.6,0.6,0.6c0,0,0,0,0,0c0.3,0,0.6-0.2,0.6-0.6L84.9,0H83.7z"/>
</g>
<g>
	<path fill="#774F38" d="M92.9,269.9c-0.3,0-0.6-0.2-0.6-0.6c0-0.3,0.2-0.6,0.6-0.6l17.1-0.9l30.6-36.3L123,211.4
		c-0.1-0.1-0.1-0.2-0.1-0.3l-3.9-38.5l-44.1,4.5l-47.2,34.1c-0.3,0.2-0.6,0.1-0.8-0.1c-0.2-0.3-0.1-0.6,0.1-0.8l47.3-34.2
		c0.1-0.1,0.2-0.1,0.3-0.1l44.9-4.6c0.2,0,0.3,0,0.4,0.1c0.1,0.1,0.2,0.2,0.2,0.4l3.9,38.9l17.9,20.3c0.2,0.2,0.2,0.6,0,0.8
		l-31.1,36.9c-0.1,0.1-0.3,0.2-0.4,0.2L92.9,269.9C92.9,269.9,92.9,269.9,92.9,269.9z"/>
</g>
<g>
	<path fill="#774F38" d="M46.5,268.2c-0.1,0-0.2,0-0.3-0.1c-0.3-0.2-0.4-0.6-0.2-0.8l21.9-33.8l-40.6-21.4c-0.3-0.2-0.4-0.5-0.3-0.8
		s0.5-0.4,0.8-0.3l41.2,21.7c0.1,0.1,0.3,0.2,0.3,0.4s0,0.3-0.1,0.5L47,267.9C46.9,268.1,46.7,268.2,46.5,268.2z"/>
</g>
<g>
	<path fill="#774F38" d="M68.8,233.9c-0.2,0-0.5-0.1-0.6-0.4c-0.1-0.3,0-0.7,0.3-0.8l53.6-21.9l-47.8-33.8L58,172.6
		c-0.3-0.1-0.5-0.4-0.4-0.7c0.1-0.3,0.4-0.5,0.7-0.4l16.4,4.6c0.1,0,0.1,0,0.2,0.1l48.8,34.5c0.2,0.1,0.3,0.3,0.2,0.6
		c0,0.2-0.2,0.4-0.4,0.5L69,233.9C69,233.9,68.9,233.9,68.8,233.9z"/>
</g>
<g>
	<path fill="#774F38" d="M110.3,269c0,0-0.1,0-0.1,0c-0.3-0.1-0.5-0.4-0.5-0.7l13.1-57.4c0.1-0.3,0.4-0.5,0.7-0.5
		c0.3,0.1,0.5,0.4,0.5,0.7l-13.1,57.4C110.8,268.8,110.6,269,110.3,269z"/>
</g>
<g>
	<path fill="#774F38" d="M67.7,233.3C67.7,233.3,67.6,233.3,67.7,233.3c-0.4,0-0.6-0.3-0.6-0.7l6.9-56.2c0-0.3,0.3-0.6,0.7-0.5
		c0.3,0,0.6,0.3,0.5,0.7l-6.9,56.2C68.3,233.1,68,233.3,67.7,233.3z"/>
</g>
<g>
	<path fill="#5B7F2D" d="M125.5,180.9c-2.3,5.5-2.8,11.4-5.3,16.9c-1.9,4.4-5.1,8.2-7.8,12.1c-5,7.2-8.5,14.8-10.7,23.3
		c-0.9,3.3-1.6,7.3-1.9,11.5c-0.7-0.5-1.5-1.1-2.2-1.6c-7.5-11.5-11.1-23.7-12.7-37.5c-1.5-12.3-2.4-23.8-8.7-34.8
		c-0.4-0.7-1.4-0.1-1.1,0.6c9.6,21.1,4.5,45.8,15,66.2c-17.4-13.3-34.2-29.4-39.4-51.3c-0.2-0.7-1.2-0.4-1.1,0.3
		c4.3,26.6,25.9,44.6,46.2,59.8c0,0,0,0-0.1,0c-0.1,0.1-0.3,0.2-0.4,0.3c-2.1-1.1-4-2.2-6-3.2c-8.9-6.8-17.6-13.8-27.8-19.3
		c-6.6-3.6-14.4-4.8-21.6-6.6c-6.1-1.6-11.4-4-17.6-1.8c-0.6,0.2-0.6,1.2,0.2,1.2c6.7-0.1,13.2,3.2,19.5,5c8.2,2.3,15.5,4.6,23,8.9
		c4.6,2.7,8.9,5.8,13.1,9c-6.5-0.8-13-0.1-19.5,0.8c-7.9,1-15.9,0.8-23.7,2c-8.5,1.4-17.4,5.8-24.3,10.9c-0.5,0.4-0.2,1.4,0.5,1.1
		c6.1-2.3,12-4.9,18.2-7c8.4-2.9,17.3-2.4,26-3.1c1.9-0.1,3.7-0.3,5.6-0.5c5.8,0.9,11.7,1.7,17.5,2.6c4.1,0.6,7.8,2.2,11.5,3.6
		c-15,8.7-30.7,6.8-46.2-3.3c-0.6-0.4-1.2,0.5-0.7,1c14.9,15.1,34.6,15.1,51.3,4.8c2.2,1.7,4.4,3.3,6.7,4.9c0.9,3-1.2,1,0.9,3
		c1.6,1.5,7.5-4.3,6-5.9c-1.7-1.8-2.9,4.3-3.6,1.9c0.4-0.9,0.3-2.1-0.7-2.8c-2-10.7,2.5-24.7,6.2-32.7c3.2-6.9,8.3-12.7,12.2-19.2
		c3.8-6.3,3.8-13.8,4.7-20.9C126.8,180.5,125.8,180.2,125.5,180.9z"/>
</g>
<g>
	<path fill="#5B7F2D" d="M94.2,259.9c-4.6,3.7-8.6,8-13.8,10.9c-6.6,3.8-16.2,2.8-23.2,1c-0.6-0.2-1.1,0.8-0.5,1.1
		c15.9,7.8,28.4,0.5,40.4-10C99.2,261.1,96.2,258.3,94.2,259.9z"/>
</g>
<g>
	<path fill="#D6D68B" d="M125.3,177.6c-0.1-0.8-1.5-0.6-1.4,0.2c0.6,6.5-1.6,12.2-4.7,17.6c-0.6-1.4-1.2-2.8-2-4.2
		c-0.3-0.6-1.4-0.2-1.2,0.5c0.8,1.9,1.4,3.8,2,5.6c-4.1,6.6-9.4,12.9-12.4,19.8c-3.7,8.3-5.2,17.4-4.2,26.3
		c-0.6-1.2-1.1-2.4-1.5-3.8c-1.5-12.8,1.6-27.4,0.6-39.2c-0.1-0.7-1.3-1-1.4-0.2c-1,6.3-1.5,12.9-1.8,19.5c-0.3-7-0.4-13.8-1.9-19
		c-1.8-6.3-6-14.5-11.8-20.5c-2.1-7.5-5.9-15-13.2-18.5c-4.8-2.3-11.5-1.5-13.9,3.6c-0.3,0.6,0.5,1.3,1,0.7c8-8.5,15.2,0.2,19.4,8.6
		c-3.7-2.2-7.8-3.3-12-2.7c-0.7,0.1-0.5,1.3,0.2,1.2c5.5-0.2,10.3,2.8,14.2,7c0.5,1.4,0.9,2.6,1.1,3.6c2.8,11,2.9,22.6,4.4,33.8
		c0.7,5,1.9,11,3.9,16.9c-4.5-6.4-8.5-13.1-12.1-20.3c-0.3-0.7-1.6-0.2-1.3,0.5c3.3,8.5,7.9,16.8,13.2,24.4
		c-8.1-5.7-15.6-12.2-21.9-20.4c-8.7-11.3-17.1-25.5-16.9-40.2c0-0.8-1.1-0.8-1.2,0c-1.1,17.6,6.9,33,18.4,46
		c-5.9-5.3-11.5-10.9-16.4-17.3c-0.5-0.6-1.5-0.1-1.1,0.6c4.7,7.2,10.6,13.6,16.9,19.5c-1.9-1.1-3.8-2.1-5.8-3.1
		c-5.1-2.7-10.4-4.8-15.9-6.4c0,0,0,0,0,0c-6.9-4.9-13.5-10.2-20.9-14.4c-0.7-0.4-1.3,0.6-0.6,1.1c5.5,3.8,10.7,8.1,16.1,11.9
		c-9.6-2.1-19.5-2.5-29.4-0.3c-0.7,0.2-0.6,1.4,0.2,1.3c20.6-2.2,39.5,4.6,56.9,15.2c3.6,2.2,7.2,4.6,10.8,7c-7-0.7-14.1-0.7-21-0.3
		c-4.5-4.3-8.2-9.5-8.5-15.2c0-0.7-1.2-1-1.4-0.2c-1,5.7,2,11.1,6,15.6c-2.6,0.2-5.1,0.4-7.6,0.7c-16.5,1.8-34.3,7.6-43.4,22.4
		c-0.4,0.6,0.6,1.2,1,0.6c4.9-6.9,11.7-11.4,19.3-14.4c0,0.1,0,0.2,0.1,0.3c17.5,16.8,50.3,21.3,73.3,11.6
		C83.6,270.5,67.4,276.7,52,270c-0.7-0.3-1.3,0.6-0.6,1.1c12.9,7.5,29,4.5,41.6-3.4c-3.4,4.4-7.2,8.6-8.9,14
		c-0.2,0.6,0.8,1.1,1.1,0.5c1.2-2.8,2.9-5.3,4.8-7.7c-3,5.5-4.7,11.6-3.7,17.7c0.2,1.2,2.3,0.9,2.2-0.3C87.9,279.2,95.6,268,105,260
		c0.1-0.1,0.2-0.3,0.2-0.4c0.2,0.1,0.4,0.2,0.6,0.2c0,0,0,0,0.1,0.1c1.2,0.9,2.5-0.7,2-1.8c0-0.3-0.1-0.6-0.3-1
		c-0.2-0.3-0.3-0.6-0.4-0.9c0.9-0.3,1.6-1.2,1.1-2.4c-0.2-0.4-0.3-0.9-0.5-1.3c0.2-0.6,0.1-1.3-0.3-1.9c2.4-7,10-16.3,11.6-20.6
		c3.9-10.5,4.4-21,1.1-31.2C124.2,192.4,126.8,185.8,125.3,177.6z M88.4,193.2c4.5,8.6,5,17.8,5.6,27.2c0.4,6.8,0.6,14.9,3,21.9
		c-4-7-6.1-16-7.3-22.5c-2-10.4-2.2-21.1-4-31.5C86.6,190,87.6,191.7,88.4,193.2z M85.2,244.4c1.1,0.7,2.2,1.5,3.2,2.2
		c1.8,1.2,3.5,2.6,5.2,3.9c-0.9,0.3-1.9,0.6-2.9,0.9c-8.7,1-16.8,0-24.8-5.4c-1.6-1.1-3.4-2.3-5.1-3.7
		C68.9,242.3,77.2,242.8,85.2,244.4z M23.8,247.9c7.7-2.8,16.1-4.1,24.1-4.9c2.7-0.2,5.5-0.4,8.4-0.6c2,1.9,4.1,3.7,6,5.2
		c4.2,3.4,8.7,5.6,13.4,6.9c-12.9,1.4-26.1-0.4-35.6-8.1c-0.7-0.6-1.7,0.4-1,1c12.5,12.4,37.6,13.9,55.5,7.6c1.5-0.3,2.9-0.6,4.4-1
		c0,0,0,0,0.1,0C76.9,266.9,43.7,262.7,23.8,247.9z M111.7,236.6c-1.3,2.2-3.7,5.6-5.5,9.1c-2.4-13.2,1.5-26.7,8.8-38.2
		c1.3-2.1,2.7-4.2,4-6.3C121.3,213.5,118.3,225.4,111.7,236.6z"/>
</g>
<g>
	<path fill="#5B7F2D" d="M109.4,249.6c-1.2,0.7-2.4,1.5-3.6,2.2c-9.9-4.7-15.8-15.4-19.5-25.3c-0.2-0.7-1.3-0.4-1.1,0.3
		c3.1,9.9,8.3,21,17.2,26.9c-21.3,11.2-48.6,14.4-69.7,0.8c-0.6-0.4-1.3,0.5-0.7,0.9c21.3,17.5,52.4,13.2,75.2,0.6
		c0.6,0.2,1.1,0.4,1.7,0.6c1.7,0.5,2.6-1.5,1.8-2.7c0.3-0.2,0.6-0.3,0.9-0.5C114.1,251.9,111.8,248.1,109.4,249.6z"/>
</g>
<g>
	<path fill="#4F2621" d="M107.9,254.9c-0.5-0.1-0.8,0.1-1.1,0.3c-0.7-0.3-1.4-0.1-1.6,0.8c-0.6,2.7-1,5.6-1.5,8.3
		c-0.4,2.4-0.1,4.7,1.6,6.4c0.5,0.5,1.2-0.1,1-0.8c-1.6-3.5,0.9-6.9,1.6-10.2c0.3,0.6,0.6,1.2,0.8,2c0.3,1.6,0.2,3.4,0.4,5.1
		c0.3,2.6,1.3,4.5,3.5,5.8c0.6,0.4,1.1-0.6,0.6-0.9c-3.6-2.4-1.7-7.9-2.4-12c1.4,1.2,2.5,2.6,3.1,4.6c0.2,0.6,1.2,0.7,1.3,0
		C115.8,260.4,111.3,255.9,107.9,254.9z"/>
</g>
<g>
	<path fill="#4F2621" d="M115.8,249.5c-1.9-1.4-5-0.4-6.2,1.5c-0.1,0.2-0.1,0.4-0.1,0.5c-0.4,0.4-0.5,1.1,0,1.5c2,1.7,4,3.4,4.7,6
		c0.2,0.8,1.4,0.6,1.4-0.2c-0.1-2.6-1.6-5.2-3.6-6.8c1-0.6,1.8-1.3,3.2-1.1C116.1,251.1,116.5,250,115.8,249.5z"/>
</g>
<g>
	<path fill="#4F2621" d="M92.9,269.9H46.8c-0.3,0-0.5-0.2-0.6-0.4l-19.5-58.6c-0.1-0.2,0-0.4,0.1-0.5l29-40.3
		c0.1-0.2,0.3-0.3,0.5-0.2l63.2,1.5c0.2,0,0.5,0.2,0.5,0.4l22,59.5c0.1,0.2,0,0.5-0.2,0.7l-48.5,37.8
		C93.2,269.9,93,269.9,92.9,269.9z M47.3,268.7h45.4l48-37.4L119,172.6L56.6,171L28,210.8L47.3,268.7z"/>
</g>
<g>
	<path fill="#4F2621" d="M46.8,269.9c-0.3,0-0.5-0.2-0.6-0.5l-7.3-37.8c0-0.1,0-0.2,0-0.3l16.8-61c0.1-0.2,0.2-0.4,0.4-0.4
		c0.2-0.1,0.4,0,0.6,0.1l43.3,36l41.7,25c0.3,0.2,0.4,0.5,0.2,0.8s-0.5,0.4-0.8,0.2l-41.8-25l-42.7-35.5l-16.5,60l7.3,37.7
		c0.1,0.3-0.1,0.6-0.5,0.7C46.9,269.9,46.9,269.9,46.8,269.9z"/>
</g>
<g>
	<path fill="#4F2621" d="M92.9,269.9c-0.1,0-0.2,0-0.3-0.1l-53.2-36.7c-0.2-0.1-0.3-0.3-0.3-0.6s0.2-0.4,0.4-0.5l58.6-25.6l0.1-0.8
		c0-0.1,0-0.2,0.1-0.3l20.7-33.8c0.2-0.3,0.5-0.4,0.8-0.2c0.3,0.2,0.4,0.5,0.2,0.8l-20.6,33.6l0,0c0.3-0.1,0.7,0,0.8,0.3
		c0.1,0.3,0,0.7-0.3,0.8l-0.7,0.3l-5.7,62.1c0,0.2-0.2,0.4-0.3,0.5C93.1,269.9,93,269.9,92.9,269.9z M41,232.7l51.5,35.5l5.5-60.4
		L41,232.7z"/>
</g>
<g>
	<path fill="none" stroke="#85605F" stroke-width="1.2" stroke-linecap="round" stroke-linejoin="round" stroke-miterlimit="10" d="
		M92.9,269.3"/>
</g>
<g>
	<path fill="none" stroke="#85605F" stroke-miterlimit="10" d="M54.4,97.8"/>
</g>
</svg>
